<svg width="40" height="30" viewBox="0 0 40 30" fill="none" xmlns="http://www.w3.org/2000/svg">
<path d="M38.2307 1.01013C36.936 0.819563 30.9093 0.292701 29.1814 0.438429C27.8541 0.00685031 21.0264 0.174998 19.2985 0.275886C18.9911 0.186208 13.3231 0.0292701 12.9459 0.0124554C12.3078 -0.0155692 11.6651 0.0124554 11.0271 0.0124554C10.6079 0.0124554 1.56797 0.35996 1.13949 0.477663C0.249936 0.729885 0.110215 2.18156 0.226649 3.09516C0.436231 4.75982 8.03704 4.61409 8.37237 4.61409C9.08495 4.61409 9.79752 4.61409 10.5101 4.65333C11.87 4.72058 16.8115 4.78224 17.9293 4.79905C20.2347 4.82708 22.5401 4.79905 24.8454 4.79905C26.2939 4.79905 27.7423 4.82147 29.1908 4.79905C31.1655 4.77663 33.1402 4.72619 35.1196 4.68695C36.5214 4.65893 37.8581 4.2778 39.1948 3.87985C39.6093 3.75654 39.8375 3.43145 39.9446 3.01669C40.075 2.52346 39.9819 2.10309 39.5953 1.75558C39.1948 1.39687 38.7663 1.07739 38.2354 0.998921L38.2307 1.01013Z" fill="#002D2E"/>
<path d="M1.85723 16.5638C3.15197 16.7543 9.17859 17.2812 10.9065 17.1355C12.2338 17.567 19.0615 17.3989 20.7894 17.298C21.0968 17.3877 26.7648 17.5446 27.142 17.5614C27.7801 17.5895 28.4228 17.5614 29.0609 17.5614C29.48 17.5614 38.52 17.2139 38.9484 17.0962C39.838 16.844 39.9777 15.3923 39.8613 14.4787C39.6517 12.8141 32.0509 12.9598 31.7156 12.9598C31.003 12.9598 30.2904 12.9598 29.5778 12.9206C28.2179 12.8533 23.2764 12.7917 22.1587 12.7748C19.8533 12.7468 17.5479 12.7748 15.2425 12.7748C13.794 12.7748 12.3456 12.7524 10.8972 12.7748C8.92244 12.7973 6.94772 12.8477 4.96834 12.8869C3.56648 12.915 2.22982 12.7356 0.893153 13.1336C0.478648 13.2569 0.250438 14.1424 0.143319 14.5572C0.0129126 15.0504 0.10606 15.4708 0.49262 15.8183C0.893153 16.177 1.32163 16.4965 1.85257 16.575L1.85723 16.5638Z" fill="#002D2E"/>
<path d="M38.0393 26.1986C36.7445 26.0081 30.7179 25.4812 28.99 25.6269C27.6627 25.1953 20.835 25.3635 19.1071 25.4644C18.7997 25.3747 13.1317 25.2178 12.7545 25.2009C12.1164 25.1729 11.4737 25.2009 10.8357 25.2009C10.4165 25.2009 1.37656 25.5485 0.948085 25.6662C0.05853 25.9184 -0.0811908 27.37 0.0352431 28.2836C0.244824 29.9483 7.84563 29.8026 8.18096 29.8026C8.89354 29.8026 9.60612 29.8026 10.3187 29.8418C11.6786 29.9091 16.6201 29.9707 17.7379 29.9875C20.0433 30.0156 22.3486 29.9875 24.654 29.9875C26.1025 29.9875 27.5509 30.01 28.9994 29.9875C30.9741 29.9651 32.9488 29.9147 34.9282 29.8754C36.33 29.8474 37.6667 30.0268 39.0034 29.6288C39.4179 29.5055 39.7905 27.2916 39.4039 26.9441C39.0034 26.5854 38.5749 26.2659 38.0439 26.1874L38.0393 26.1986Z" fill="#002D2E"/>
</svg>
