<svg width="75" height="33" viewBox="0 0 75 33" fill="none" xmlns="http://www.w3.org/2000/svg">
<path d="M2.93395 31.0629C2.93963 30.7211 2.91125 30.1683 2.95287 30.0677C3.3955 29.0123 2.86207 25.9263 2.73912 25.5443C2.58212 25.0618 2.47051 24.0465 2.45916 23.2323C2.4289 21.1515 1.16721 19.9553 1.12559 16.1657C1.0121 15.9244 0.821046 15.6028 0.652695 15.1605C-0.0642174 13.2405 -0.160688 10.4862 0.217629 7.22937C0.401114 5.65119 0.365173 3.70108 0.429487 1.8716C1.10857 1.48962 1.40744 3.27889 1.6193 3.05774C1.75738 2.91702 2.26244 3.7815 2.3608 3.5704C2.4724 3.32915 2.65021 3.43972 2.79208 3.56035C3.55628 4.19363 4.25239 2.74613 4.98822 2.48477C5.09036 2.44457 6.68876 2.97733 7.40567 3.07785C8.49333 3.22863 19.0635 2.15306 20.1266 2.71597C21.0762 3.21858 21.9841 2.67576 22.9091 2.72603C25.4174 2.86675 35.4901 3.19847 37.9983 3.12811C39.9013 3.0678 41.8023 2.53503 43.7034 2.1229C46.7526 1.46951 68.7178 0.715604 71.767 0.0722698C72.3855 -0.0584075 73.0079 0.132582 73.6283 0.182843C74.6498 0.26326 74.8106 0.93675 74.9449 4.86712C75.0432 7.75208 75.03 10.5466 74.7387 13.723C73.9518 14.0145 73.1403 14.306 72.2645 14.6277C72.2418 15.7636 72.2191 16.8593 72.1945 18.1761C72.6428 18.7189 73.0571 19.2115 73.5262 19.7744C73.5697 22.2975 73.6378 24.7803 73.6453 27.2733C73.6586 30.6608 73.3389 32.038 72.4442 32.2792C71.7632 32.4601 71.0747 32.2792 70.3918 32.2491C67.0607 32.0983 44.8156 31.8068 41.4845 31.8068C38.7682 31.8068 32.2687 32.2591 29.5505 32.2792C27.9029 32.2893 22.4741 31.7967 20.8265 31.6761C19.4646 31.5756 8.64277 31.8269 7.28272 31.6761C6.03805 31.5454 4.79338 31.0931 3.54872 30.8116C3.34632 30.7714 2.93584 31.0428 2.93584 31.0428" fill="#E5C996"/>
</svg>
