<svg width="852" height="66" viewBox="0 0 852 66" fill="none" xmlns="http://www.w3.org/2000/svg">
<path d="M2.61025 56.4336C4.34005 57.9272 51.0705 60.2865 71.9915 59.2178C83.805 60.9803 96.1846 60.152 108.3 60.4387C156.311 61.5689 204.359 61.9938 252.446 61.6808C263.282 62.4751 274.118 62.5642 285.03 62.0465C296.054 63.4149 307.041 62.8152 317.991 61.8875C322.13 62.5955 326.231 62.549 330.295 61.7808C346.662 62.0539 362.992 62.9173 379.397 62.0424C383.574 62.5372 387.712 62.7367 391.739 61.8865C406.901 63.6184 494.308 61.7894 518.916 61.6906C520.007 61.9209 520.873 61.8395 521.588 61.43L521.663 61.3972C522.942 61.48 524.184 61.5629 525.463 61.6457C532.725 62.5689 539.986 62.508 547.286 61.7091C551.425 62.1711 555.526 62.0425 559.59 61.5532C566.626 62.4598 573.587 62.1527 580.473 61.3208C588.487 62.6052 596.803 61.3314 604.93 61.8287C648.839 62.661 692.787 63.5261 736.696 64.2928C761.68 64.7191 786.663 65.4735 811.647 64.8009C827.865 64.3687 830.085 63.3697 829.299 57.0057C829.187 56.1692 829.827 55.3004 829.376 54.5129C827.422 50.8379 829.907 48.7074 839.916 48.2383C849.21 47.7851 851.018 44.8834 851.697 41.5217C852.943 35.0443 849.749 28.8263 847.571 22.4778C846.106 18.1307 842.571 15.9799 832.224 15.5467C828.875 15.397 825.564 14.9848 822.253 14.6874C819.583 13.4392 816.535 13.6832 813.411 14.3372C798.699 14.1144 784.328 11.9238 769.389 12.9636C755.77 11.0195 741.848 10.7316 727.7 11.5752C723.599 11.0313 719.573 11.1107 715.584 11.7313C707.571 9.54478 698.954 10.392 690.45 10.8785C682.587 10.3321 674.685 10.1794 666.783 10.7482C651.658 9.50831 636.495 9.00639 621.331 10.6694C617.305 10.1911 613.242 9.71285 608.99 10.1529C606.394 9.05235 603.761 8.2142 600.787 9.96713C599.32 9.93337 597.89 9.91604 596.423 9.88229C594.316 8.94607 591.983 8.86254 589.387 9.53328C587.731 9.64701 586.076 9.76073 584.42 9.87446C581.824 8.67551 578.965 8.03402 575.315 9.21249C564.629 8.25427 553.943 9.46096 543.257 9.12597C531.181 6.46118 518.763 8.56876 506.496 8.74117C501.003 8.63918 495.547 8.53722 490.054 8.43523C489.427 8.79564 489.427 8.79564 490.054 8.43523C485.577 7.16946 481.588 8.16729 477.562 8.8863C473.46 8.88362 469.397 8.88097 465.295 8.87829C435.684 8.69497 406.071 8.79045 376.497 8.27914C338.646 7.63122 300.87 6.44213 263.056 5.56462C231.525 4.82242 153.115 0.359486 145.512 3.55265C138.777 3.40065 132.08 3.24868 125.345 3.09668C113.419 0.46479 100.511 2.68686 88.2082 1.8588C84.0697 1.26568 79.9683 1.54181 75.9043 1.96558C60.4785 0.545057 39.7462 0.71194 28.2698 1.14727C16.7935 1.5826 28.751 13.4645 18.9651 18.1323C11.2505 19.9641 19.0363 24.299 11.2841 26.1308C8.08569 26.3419 3.1949 25.3875 3.5318 28.0282C3.86844 31.0626 4.39324 34.1134 2.32185 37.0806C-0.691118 41.4248 -0.505854 45.7875 1.44788 50.1842C-0.133253 51.4296 1.25819 52.6113 1.89706 53.809C-0.210225 54.152 2.53499 56.4335 2.53499 56.4335L2.61025 56.4336ZM93.1277 16.5734C94.0308 16.6068 94.8961 16.6566 95.7991 16.7064C97.4897 20.6436 102.793 23.0744 111.409 24.0804C102.793 23.0744 97.5274 20.6436 95.7991 16.7064C94.9337 16.6402 94.0307 16.6068 93.1653 16.5734C90.3057 16.5716 87.4838 16.5369 84.6242 16.5351C84.6239 16.8631 84.6613 17.2075 84.6235 17.5519C84.6613 17.2239 84.6239 16.8795 84.6242 16.5351C87.4838 16.5369 90.3057 16.5716 93.1653 16.5734L93.1277 16.5734ZM208.936 25.3413C209.049 25.2102 209.124 25.079 209.2 24.9479C209.275 24.8167 209.35 24.702 209.35 24.5708C209.35 24.6856 209.275 24.8167 209.2 24.9479C209.124 25.079 209.011 25.2102 208.936 25.3413ZM214.993 26.4113C214.994 24.6728 216.35 22.8204 214.319 21.2775C216.35 22.8368 214.994 24.6728 214.993 26.4113ZM231.474 25.684C231.7 25.2742 231.7 24.8969 231.55 24.536C231.7 24.8969 231.7 25.2742 231.474 25.7004C229.329 25.7974 227.222 25.9109 225.077 26.0243C227.184 25.9108 229.329 25.7974 231.436 25.684L231.474 25.684ZM452.645 20.7933C452.607 21.2197 451.666 21.6127 451.102 22.0224C451.666 21.6127 452.607 21.2033 452.645 20.7933ZM407.715 26.8979C408.393 26.8163 409.07 26.7347 409.71 26.6532C409.032 26.7347 408.393 26.8163 407.715 26.8979ZM232.112 28.1937C225.414 29.2718 219.205 30.7438 212.582 31.8876C219.242 30.7603 225.414 29.2718 232.112 28.1937ZM211.114 32.1326C210.098 32.296 209.044 32.4593 207.991 32.5898C209.044 32.4429 210.098 32.296 211.114 32.1326ZM127.249 25.4192C124.954 25.1061 122.584 24.8914 120.138 24.7258C122.546 24.8913 124.954 25.1061 127.249 25.4192ZM84.5859 17.6011C84.548 17.8799 84.4349 18.1586 84.2091 18.3881C84.4349 18.1422 84.548 17.8799 84.5859 17.6011ZM313.14 57.3578C311.898 58.1934 311.484 59.0624 314.004 60.0973C311.484 59.0624 311.898 58.177 313.14 57.3414L313.14 57.3578ZM316.189 55.6705C315.286 56.2112 314.119 56.7352 313.291 57.2595C314.119 56.7188 315.286 56.1948 316.189 55.6705ZM352.309 57.3834C352.234 57.2849 352.084 57.1864 351.971 57.0715C352.084 57.17 352.234 57.2849 352.309 57.3834C352.61 57.3507 353.062 57.351 353.325 57.3184C353.062 57.3674 352.648 57.3508 352.309 57.3834ZM691.177 50.585C691.704 50.8641 692.042 51.1923 692.23 51.5861C692.343 51.783 692.38 52.0126 692.418 52.2422C692.418 51.9962 692.305 51.7829 692.23 51.5861C692.042 51.1759 691.666 50.8477 691.177 50.585ZM645.762 50.2601C645.424 49.8171 645.048 49.5872 644.784 49.6034C645.085 49.5872 645.424 49.8007 645.762 50.2601ZM592.02 11.2735C591.794 11.2241 591.606 11.1584 591.418 11.0599C591.606 11.142 591.831 11.2241 592.02 11.2735ZM543.745 10.3891C543.745 10.3891 543.745 10.3563 543.745 10.3399C543.745 10.3399 543.745 10.3727 543.745 10.3891ZM486.629 10.4011C486.139 10.6304 485.688 10.8269 485.198 10.9906C485.688 10.8433 486.177 10.6304 486.629 10.4011ZM292.396 18.9011C292.17 18.4417 291.042 17.8998 289.537 17.3576C291.042 17.9162 292.17 18.4417 292.396 18.9175L292.396 18.9011ZM289.688 16.8657C289.688 16.8657 289.688 16.8493 289.688 16.8329L289.688 16.8657ZM285.249 14.5995C287.469 14.9125 288.635 15.5857 289.387 16.3898C288.635 15.5693 287.431 14.9125 285.249 14.5995C284.837 11.9423 280.737 10.8572 276.185 9.77176C280.737 10.8736 284.837 11.9423 285.249 14.5995ZM188.619 22.9664C185.082 23.3249 182.786 24.2418 182.146 25.8815C185.269 25.9819 188.354 26.0823 191.477 26.1828C195.239 26.2508 198.964 26.3188 202.727 26.3705C198.964 26.3024 195.202 26.2344 191.477 26.1828C188.354 26.0823 185.269 25.9819 182.146 25.8815C179.173 25.9615 176.201 26.058 173.228 26.138C176.201 26.0416 179.173 25.9615 182.146 25.8651C182.786 24.2254 185.12 23.3249 188.619 22.95L188.619 22.9664ZM32.8731 39.1014C26.5528 37.654 20.5711 36.2889 14.6271 34.9073C20.5712 36.2725 26.5528 37.6376 32.8731 39.1014Z" fill="#E5C996"/>
<path d="M2.61025 56.4336C4.34005 57.9272 51.0705 60.2865 71.9915 59.2178C83.805 60.9803 96.1846 60.152 108.3 60.4387C156.311 61.5689 204.359 61.9938 252.446 61.6808C263.282 62.4751 274.118 62.5642 285.03 62.0465C296.054 63.4149 307.041 62.8152 317.991 61.8875C322.13 62.5955 326.231 62.549 330.295 61.7808C346.662 62.0539 362.992 62.9173 379.397 62.0424C383.574 62.5372 387.712 62.7367 391.739 61.8865C406.901 63.6184 494.308 61.7894 518.916 61.6906C520.007 61.9209 520.873 61.8395 521.588 61.43L521.663 61.3972C522.942 61.48 524.184 61.5629 525.463 61.6457C532.725 62.5689 539.986 62.508 547.286 61.7091C551.425 62.1711 555.526 62.0425 559.59 61.5532C566.626 62.4598 573.587 62.1527 580.473 61.3208C588.487 62.6052 596.803 61.3314 604.93 61.8287C648.839 62.661 692.787 63.5261 736.696 64.2928C761.68 64.7191 786.663 65.4735 811.647 64.8009C827.865 64.3687 830.085 63.3697 829.299 57.0057C829.187 56.1692 829.827 55.3004 829.376 54.5129C827.422 50.8379 829.907 48.7074 839.916 48.2383C849.21 47.7851 851.018 44.8834 851.697 41.5217C852.943 35.0443 849.749 28.8263 847.571 22.4778C846.106 18.1307 842.571 15.9799 832.224 15.5467C828.875 15.397 825.564 14.9848 822.253 14.6874C819.583 13.4392 816.535 13.6832 813.411 14.3372C798.699 14.1144 784.328 11.9238 769.389 12.9636C755.77 11.0195 741.848 10.7316 727.7 11.5752C723.599 11.0313 719.573 11.1107 715.584 11.7313C707.571 9.54478 698.954 10.392 690.45 10.8785C682.587 10.3321 674.685 10.1794 666.783 10.7482C651.658 9.50831 636.495 9.00639 621.331 10.6694C617.305 10.1911 613.242 9.71285 608.99 10.1529C606.394 9.05235 603.761 8.2142 600.787 9.96713C599.32 9.93337 597.89 9.91604 596.423 9.88229C594.316 8.94607 591.983 8.86254 589.387 9.53328C587.731 9.64701 586.076 9.76073 584.42 9.87446C581.824 8.67551 578.965 8.03402 575.315 9.21249C564.629 8.25427 553.943 9.46096 543.257 9.12597C531.181 6.46118 518.763 8.56876 506.496 8.74117C501.003 8.63918 495.547 8.53722 490.054 8.43523C489.427 8.79564 489.427 8.79564 490.054 8.43523C485.577 7.16946 481.588 8.16729 477.562 8.8863C473.46 8.88362 469.397 8.88097 465.295 8.87829C435.684 8.69497 406.071 8.79045 376.497 8.27914C338.646 7.63122 300.87 6.44213 263.056 5.56462C231.525 4.82242 153.115 0.359486 145.512 3.55265C138.777 3.40065 132.08 3.24868 125.345 3.09668C113.419 0.46479 100.511 2.68686 88.2082 1.8588C84.0697 1.26568 79.9683 1.54181 75.9043 1.96558C60.4785 0.545057 39.7462 0.71194 28.2698 1.14727C16.7935 1.5826 28.751 13.4645 18.9651 18.1323C11.2505 19.9641 19.0363 24.299 11.2841 26.1308C8.08569 26.3419 3.1949 25.3875 3.5318 28.0282C3.86844 31.0626 4.39324 34.1134 2.32185 37.0806C-0.691118 41.4248 -0.505854 45.7875 1.44788 50.1842C-0.133253 51.4296 1.25819 52.6113 1.89706 53.809C-0.210225 54.152 2.53499 56.4335 2.53499 56.4335L2.61025 56.4336ZM93.1277 16.5734C94.0308 16.6068 94.8961 16.6566 95.7991 16.7064C97.4897 20.6436 102.793 23.0744 111.409 24.0804C102.793 23.0744 97.5274 20.6436 95.7991 16.7064C94.9337 16.6402 94.0307 16.6068 93.1653 16.5734C90.3057 16.5716 87.4838 16.5369 84.6242 16.5351C84.6239 16.8631 84.6613 17.2075 84.6235 17.5519C84.6613 17.2239 84.6239 16.8795 84.6242 16.5351C87.4838 16.5369 90.3057 16.5716 93.1653 16.5734L93.1277 16.5734ZM208.936 25.3413C209.049 25.2102 209.124 25.079 209.2 24.9479C209.275 24.8167 209.35 24.702 209.35 24.5708C209.35 24.6856 209.275 24.8167 209.2 24.9479C209.124 25.079 209.011 25.2102 208.936 25.3413ZM214.993 26.4113C214.994 24.6728 216.35 22.8204 214.319 21.2775C216.35 22.8368 214.994 24.6728 214.993 26.4113ZM231.474 25.684C231.7 25.2742 231.7 24.8969 231.55 24.536C231.7 24.8969 231.7 25.2742 231.474 25.7004C229.329 25.7974 227.222 25.9109 225.077 26.0243C227.184 25.9108 229.329 25.7974 231.436 25.684L231.474 25.684ZM452.645 20.7933C452.607 21.2197 451.666 21.6127 451.102 22.0224C451.666 21.6127 452.607 21.2033 452.645 20.7933ZM407.715 26.8979C408.393 26.8163 409.07 26.7347 409.71 26.6532C409.032 26.7347 408.393 26.8163 407.715 26.8979ZM232.112 28.1937C225.414 29.2718 219.205 30.7438 212.582 31.8876C219.242 30.7603 225.414 29.2718 232.112 28.1937ZM211.114 32.1326C210.098 32.296 209.044 32.4593 207.991 32.5898C209.044 32.4429 210.098 32.296 211.114 32.1326ZM127.249 25.4192C124.954 25.1061 122.584 24.8914 120.138 24.7258C122.546 24.8913 124.954 25.1061 127.249 25.4192ZM84.5859 17.6011C84.548 17.8799 84.4349 18.1586 84.2091 18.3881C84.4349 18.1422 84.548 17.8799 84.5859 17.6011ZM313.14 57.3578C311.898 58.1934 311.484 59.0624 314.004 60.0973C311.484 59.0624 311.898 58.177 313.14 57.3414L313.14 57.3578ZM316.189 55.6705C315.286 56.2112 314.119 56.7352 313.291 57.2595C314.119 56.7188 315.286 56.1948 316.189 55.6705ZM352.309 57.3834C352.234 57.2849 352.084 57.1864 351.971 57.0715C352.084 57.17 352.234 57.2849 352.309 57.3834C352.61 57.3507 353.062 57.351 353.325 57.3184C353.062 57.3674 352.648 57.3508 352.309 57.3834ZM691.177 50.585C691.704 50.8641 692.042 51.1923 692.23 51.5861C692.343 51.783 692.38 52.0126 692.418 52.2422C692.418 51.9962 692.305 51.7829 692.23 51.5861C692.042 51.1759 691.666 50.8477 691.177 50.585ZM645.762 50.2601C645.424 49.8171 645.048 49.5872 644.784 49.6034C645.085 49.5872 645.424 49.8007 645.762 50.2601ZM592.02 11.2735C591.794 11.2241 591.606 11.1584 591.418 11.0599C591.606 11.142 591.831 11.2241 592.02 11.2735ZM543.745 10.3891C543.745 10.3891 543.745 10.3563 543.745 10.3399C543.745 10.3399 543.745 10.3727 543.745 10.3891ZM486.629 10.4011C486.139 10.6304 485.688 10.8269 485.198 10.9906C485.688 10.8433 486.177 10.6304 486.629 10.4011ZM292.396 18.9011C292.17 18.4417 291.042 17.8998 289.537 17.3576C291.042 17.9162 292.17 18.4417 292.396 18.9175L292.396 18.9011ZM289.688 16.8657C289.688 16.8657 289.688 16.8493 289.688 16.8329L289.688 16.8657ZM285.249 14.5995C287.469 14.9125 288.635 15.5857 289.387 16.3898C288.635 15.5693 287.431 14.9125 285.249 14.5995C284.837 11.9423 280.737 10.8572 276.185 9.77176C280.737 10.8736 284.837 11.9423 285.249 14.5995ZM188.619 22.9664C185.082 23.3249 182.786 24.2418 182.146 25.8815C185.269 25.9819 188.354 26.0823 191.477 26.1828C195.239 26.2508 198.964 26.3188 202.727 26.3705C198.964 26.3024 195.202 26.2344 191.477 26.1828C188.354 26.0823 185.269 25.9819 182.146 25.8815C179.173 25.9615 176.201 26.058 173.228 26.138C176.201 26.0416 179.173 25.9615 182.146 25.8651C182.786 24.2254 185.12 23.3249 188.619 22.95L188.619 22.9664ZM32.8731 39.1014C26.5528 37.654 20.5711 36.2889 14.6271 34.9073C20.5712 36.2725 26.5528 37.6376 32.8731 39.1014Z" fill="#E5C996"/>
<path d="M2.61025 56.4336C4.34005 57.9272 51.0705 60.2865 71.9915 59.2178C83.805 60.9803 96.1846 60.152 108.3 60.4387C156.311 61.5689 204.359 61.9938 252.446 61.6808C263.282 62.4751 274.118 62.5642 285.03 62.0465C296.054 63.4149 307.041 62.8152 317.991 61.8875C322.13 62.5955 326.231 62.549 330.295 61.7808C346.662 62.0539 362.992 62.9173 379.397 62.0424C383.574 62.5372 387.712 62.7367 391.739 61.8865C406.901 63.6184 494.308 61.7894 518.916 61.6906C520.007 61.9209 520.873 61.8395 521.588 61.43L521.663 61.3972C522.942 61.48 524.184 61.5629 525.463 61.6457C532.725 62.5689 539.986 62.508 547.286 61.7091C551.425 62.1711 555.526 62.0425 559.59 61.5532C566.626 62.4598 573.587 62.1527 580.473 61.3208C588.487 62.6052 596.803 61.3314 604.93 61.8287C648.839 62.661 692.787 63.5261 736.696 64.2928C761.68 64.7191 786.663 65.4735 811.647 64.8009C827.865 64.3687 830.085 63.3697 829.299 57.0057C829.187 56.1692 829.827 55.3004 829.376 54.5129C827.422 50.8379 829.907 48.7074 839.916 48.2383C849.21 47.7851 851.018 44.8834 851.697 41.5217C852.943 35.0443 849.749 28.8263 847.571 22.4778C846.106 18.1307 842.571 15.9799 832.224 15.5467C828.875 15.397 825.564 14.9848 822.253 14.6874C819.583 13.4392 816.535 13.6832 813.411 14.3372C798.699 14.1144 784.328 11.9238 769.389 12.9636C755.77 11.0195 741.848 10.7316 727.7 11.5752C723.599 11.0313 719.573 11.1107 715.584 11.7313C707.571 9.54478 698.954 10.392 690.45 10.8785C682.587 10.3321 674.685 10.1794 666.783 10.7482C651.658 9.50831 636.495 9.00639 621.331 10.6694C617.305 10.1911 613.242 9.71285 608.99 10.1529C606.394 9.05235 603.761 8.2142 600.787 9.96713C599.32 9.93337 597.89 9.91604 596.423 9.88229C594.316 8.94607 591.983 8.86254 589.387 9.53328C587.731 9.64701 586.076 9.76073 584.42 9.87446C581.824 8.67551 578.965 8.03402 575.315 9.21249C564.629 8.25427 553.943 9.46096 543.257 9.12597C531.181 6.46118 518.763 8.56876 506.496 8.74117C501.003 8.63918 495.547 8.53722 490.054 8.43523C489.427 8.79564 489.427 8.79564 490.054 8.43523C485.577 7.16946 481.588 8.16729 477.562 8.8863C473.46 8.88362 469.397 8.88097 465.295 8.87829C435.684 8.69497 406.071 8.79045 376.497 8.27914C338.646 7.63122 300.87 6.44213 263.056 5.56462C231.525 4.82242 153.115 0.359486 145.512 3.55265C138.777 3.40065 132.08 3.24868 125.345 3.09668C113.419 0.46479 100.511 2.68686 88.2082 1.8588C84.0697 1.26568 79.9683 1.54181 75.9043 1.96558C60.4785 0.545057 39.7462 0.71194 28.2698 1.14727C16.7935 1.5826 28.751 13.4645 18.9651 18.1323C11.2505 19.9641 19.0363 24.299 11.2841 26.1308C8.08569 26.3419 3.1949 25.3875 3.5318 28.0282C3.86844 31.0626 4.39324 34.1134 2.32185 37.0806C-0.691118 41.4248 -0.505854 45.7875 1.44788 50.1842C-0.133253 51.4296 1.25819 52.6113 1.89706 53.809C-0.210225 54.152 2.53499 56.4335 2.53499 56.4335L2.61025 56.4336ZM93.1277 16.5734C94.0308 16.6068 94.8961 16.6566 95.7991 16.7064C97.4897 20.6436 102.793 23.0744 111.409 24.0804C102.793 23.0744 97.5274 20.6436 95.7991 16.7064C94.9337 16.6402 94.0307 16.6068 93.1653 16.5734C90.3057 16.5716 87.4838 16.5369 84.6242 16.5351C84.6239 16.8631 84.6613 17.2075 84.6235 17.5519C84.6613 17.2239 84.6239 16.8795 84.6242 16.5351C87.4838 16.5369 90.3057 16.5716 93.1653 16.5734L93.1277 16.5734ZM208.936 25.3413C209.049 25.2102 209.124 25.079 209.2 24.9479C209.275 24.8167 209.35 24.702 209.35 24.5708C209.35 24.6856 209.275 24.8167 209.2 24.9479C209.124 25.079 209.011 25.2102 208.936 25.3413ZM214.993 26.4113C214.994 24.6728 216.35 22.8204 214.319 21.2775C216.35 22.8368 214.994 24.6728 214.993 26.4113ZM231.474 25.684C231.7 25.2742 231.7 24.8969 231.55 24.536C231.7 24.8969 231.7 25.2742 231.474 25.7004C229.329 25.7974 227.222 25.9109 225.077 26.0243C227.184 25.9108 229.329 25.7974 231.436 25.684L231.474 25.684ZM452.645 20.7933C452.607 21.2197 451.666 21.6127 451.102 22.0224C451.666 21.6127 452.607 21.2033 452.645 20.7933ZM407.715 26.8979C408.393 26.8163 409.07 26.7347 409.71 26.6532C409.032 26.7347 408.393 26.8163 407.715 26.8979ZM232.112 28.1937C225.414 29.2718 219.205 30.7438 212.582 31.8876C219.242 30.7603 225.414 29.2718 232.112 28.1937ZM211.114 32.1326C210.098 32.296 209.044 32.4593 207.991 32.5898C209.044 32.4429 210.098 32.296 211.114 32.1326ZM127.249 25.4192C124.954 25.1061 122.584 24.8914 120.138 24.7258C122.546 24.8913 124.954 25.1061 127.249 25.4192ZM84.5859 17.6011C84.548 17.8799 84.4349 18.1586 84.2091 18.3881C84.4349 18.1422 84.548 17.8799 84.5859 17.6011ZM313.14 57.3578C311.898 58.1934 311.484 59.0624 314.004 60.0973C311.484 59.0624 311.898 58.177 313.14 57.3414L313.14 57.3578ZM316.189 55.6705C315.286 56.2112 314.119 56.7352 313.291 57.2595C314.119 56.7188 315.286 56.1948 316.189 55.6705ZM352.309 57.3834C352.234 57.2849 352.084 57.1864 351.971 57.0715C352.084 57.17 352.234 57.2849 352.309 57.3834C352.61 57.3507 353.062 57.351 353.325 57.3184C353.062 57.3674 352.648 57.3508 352.309 57.3834ZM691.177 50.585C691.704 50.8641 692.042 51.1923 692.23 51.5861C692.343 51.783 692.38 52.0126 692.418 52.2422C692.418 51.9962 692.305 51.7829 692.23 51.5861C692.042 51.1759 691.666 50.8477 691.177 50.585ZM645.762 50.2601C645.424 49.8171 645.048 49.5872 644.784 49.6034C645.085 49.5872 645.424 49.8007 645.762 50.2601ZM592.02 11.2735C591.794 11.2241 591.606 11.1584 591.418 11.0599C591.606 11.142 591.831 11.2241 592.02 11.2735ZM543.745 10.3891C543.745 10.3891 543.745 10.3563 543.745 10.3399C543.745 10.3399 543.745 10.3727 543.745 10.3891ZM486.629 10.4011C486.139 10.6304 485.688 10.8269 485.198 10.9906C485.688 10.8433 486.177 10.6304 486.629 10.4011ZM292.396 18.9011C292.17 18.4417 291.042 17.8998 289.537 17.3576C291.042 17.9162 292.17 18.4417 292.396 18.9175L292.396 18.9011ZM289.688 16.8657C289.688 16.8657 289.688 16.8493 289.688 16.8329L289.688 16.8657ZM285.249 14.5995C287.469 14.9125 288.635 15.5857 289.387 16.3898C288.635 15.5693 287.431 14.9125 285.249 14.5995C284.837 11.9423 280.737 10.8572 276.185 9.77176C280.737 10.8736 284.837 11.9423 285.249 14.5995ZM188.619 22.9664C185.082 23.3249 182.786 24.2418 182.146 25.8815C185.269 25.9819 188.354 26.0823 191.477 26.1828C195.239 26.2508 198.964 26.3188 202.727 26.3705C198.964 26.3024 195.202 26.2344 191.477 26.1828C188.354 26.0823 185.269 25.9819 182.146 25.8815C179.173 25.9615 176.201 26.058 173.228 26.138C176.201 26.0416 179.173 25.9615 182.146 25.8651C182.786 24.2254 185.12 23.3249 188.619 22.95L188.619 22.9664ZM32.8731 39.1014C26.5528 37.654 20.5711 36.2889 14.6271 34.9073C20.5712 36.2725 26.5528 37.6376 32.8731 39.1014Z" fill="#E5C996"/>
</svg>
