<svg width="59" height="27" viewBox="0 0 59 27" fill="none" xmlns="http://www.w3.org/2000/svg">
<path d="M0.180401 23.0994C0.300263 23.7144 3.53655 24.6741 4.98532 24.2281C5.80352 24.9513 6.66079 24.6066 7.49983 24.7215C10.8247 25.1743 14.1522 25.3365 17.4823 25.1946C18.2327 25.519 18.9832 25.5528 19.7388 25.3365C20.5023 25.8975 21.2632 25.6474 22.0214 25.2622C22.3081 25.5528 22.5921 25.5325 22.8735 25.2148C24.007 25.323 25.1379 25.6744 26.2739 25.3095C26.5632 25.5122 26.8498 25.5933 27.1286 25.2419C28.1787 25.9515 34.2318 25.1743 35.9359 25.127C36.0115 25.2216 36.0714 25.1878 36.1209 25.0188L36.1261 25.0053C36.2147 25.0391 36.3007 25.0729 36.3893 25.1067C36.8922 25.4852 37.3951 25.4582 37.9006 25.127C38.1872 25.3162 38.4713 25.2622 38.7527 25.0594C39.2399 25.4311 39.722 25.3027 40.1988 24.958C40.7539 25.4852 41.3297 24.958 41.8925 25.1608C44.9334 25.4919 47.9769 25.8366 51.0177 26.1408C52.7479 26.3097 54.4781 26.6139 56.2083 26.33C57.3314 26.1475 57.4851 25.7353 57.4304 23.1129C57.4226 22.7682 57.4669 22.41 57.4356 22.0856C57.3001 20.5717 57.4721 19.6931 58.1652 19.4971C58.8088 19.3078 58.9339 18.1116 58.9808 16.726C59.0668 14.0564 58.8453 11.4949 58.6941 8.87929C58.5925 7.08826 58.3476 6.20288 57.631 6.02716C57.3991 5.96633 57.1698 5.79736 56.9405 5.67571C56.7555 5.16206 56.5444 5.26343 56.3282 5.53378C55.3093 5.44592 54.314 4.54702 53.2795 4.97957C52.3362 4.18206 51.3721 4.06716 50.3924 4.41861C50.1083 4.19557 49.8295 4.22937 49.5533 4.48619C48.9983 3.5873 48.4016 3.93875 47.8127 4.14151C47.2681 3.91847 46.7209 3.85764 46.1737 4.0942C45.1262 3.5873 44.0761 3.38454 43.026 4.07392C42.7472 3.87792 42.4658 3.68192 42.1714 3.8644C41.9916 3.41157 41.8092 3.06689 41.6033 3.79006C41.5017 3.77654 41.4027 3.76978 41.3011 3.75626C41.1551 3.37102 40.9936 3.33723 40.8138 3.61433C40.6991 3.66164 40.5845 3.70895 40.4698 3.75626C40.29 3.26288 40.092 2.9993 39.8393 3.48592C39.0992 3.09392 38.3592 3.59406 37.6192 3.45889C36.7828 2.36399 35.9229 3.23585 35.0734 3.3102C34.693 3.26964 34.3152 3.22909 33.9347 3.18854C33.8913 3.33723 33.8913 3.33723 33.9347 3.18854C33.6246 2.66813 33.3484 3.0804 33.0696 3.37778C32.7856 3.37778 32.5042 3.37778 32.2202 3.37778C30.1695 3.31019 28.1188 3.3575 26.0707 3.15475C23.4494 2.89792 20.8332 2.41806 18.2145 2.06661C16.0309 1.76923 10.6006 -0.0488386 10.0743 1.26909C9.60785 1.20826 9.14403 1.14743 8.67761 1.08661C7.8516 0.00523047 6.95784 0.924403 6.10578 0.586472C5.81915 0.343161 5.53513 0.458058 5.25371 0.633781C4.18537 0.0525416 2.74963 0.126886 1.95488 0.309368C1.16015 0.491851 1.98876 5.38508 1.31128 7.31128C0.777104 8.06825 1.31649 9.85252 0.779713 10.6095C0.558228 10.6973 0.219483 10.3053 0.242936 11.3935C0.266385 12.6438 0.302868 13.9009 0.159554 15.1242C-0.048904 16.9153 -0.0358731 18.7131 0.0996249 20.5244C-0.00981498 21.038 0.0865938 21.5246 0.13089 22.018C-0.0150297 22.1599 0.175186 23.0994 0.175186 23.0994L0.180401 23.0994ZM6.44713 6.64894C6.50966 6.66246 6.56959 6.68273 6.63213 6.70301C6.74938 8.32508 7.11679 9.32535 7.71349 9.73763C7.11679 9.32535 6.75199 8.32508 6.63213 6.70301C6.5722 6.67598 6.50966 6.66246 6.44973 6.64894C6.25169 6.64894 6.05627 6.63542 5.85823 6.63542C5.85823 6.7706 5.86084 6.91253 5.85823 7.05446C5.86084 6.91928 5.85823 6.77736 5.85823 6.63542C6.05627 6.63542 6.25169 6.64894 6.44973 6.64894L6.44713 6.64894ZM14.4675 10.231C14.4753 10.1769 14.4805 10.1229 14.4857 10.0688C14.4909 10.0147 14.4962 9.96742 14.4962 9.91335C14.4962 9.96066 14.4909 10.0147 14.4857 10.0688C14.4805 10.1229 14.4727 10.1769 14.4675 10.231ZM14.887 10.6703C14.887 9.9539 14.9808 9.19018 14.8401 8.55487C14.9808 9.19694 14.887 9.9539 14.887 10.6703ZM16.0283 10.3662C16.0439 10.1972 16.0439 10.0418 16.0335 9.89307C16.0439 10.0418 16.0439 10.1972 16.0283 10.3729C15.8798 10.4135 15.7339 10.4608 15.5853 10.5081C15.7313 10.4608 15.8798 10.4135 16.0257 10.3662L16.0283 10.3662ZM31.3446 8.29129C31.342 8.46701 31.2769 8.62922 31.2378 8.79818C31.2769 8.62922 31.342 8.46025 31.3446 8.29129ZM28.2334 10.819C28.2803 10.7852 28.3272 10.7514 28.3715 10.7176C28.3246 10.7514 28.2803 10.7852 28.2334 10.819ZM16.0726 11.4002C15.6088 11.8463 15.1788 12.4546 14.7202 12.9277C15.1815 12.4613 15.6088 11.8463 16.0726 11.4002ZM14.6186 13.0291C14.5483 13.0967 14.4753 13.1642 14.4023 13.2183C14.4753 13.1575 14.5483 13.0967 14.6186 13.0291ZM8.8105 10.2851C8.65155 10.1567 8.48739 10.0688 8.31802 10.0012C8.48478 10.0688 8.65155 10.1567 8.8105 10.2851ZM5.85563 7.07473C5.85302 7.18963 5.8452 7.30453 5.82957 7.39915C5.8452 7.29777 5.85302 7.18963 5.85563 7.07473ZM21.6853 23.3968C21.5993 23.7415 21.5706 24.0997 21.7452 24.5255C21.5706 24.0997 21.5993 23.7347 21.6853 23.39L21.6853 23.3968ZM21.8964 22.7006C21.8338 22.9237 21.753 23.1399 21.6957 23.3562C21.753 23.1332 21.8338 22.9169 21.8964 22.7006ZM24.3978 23.3968C24.3926 23.3562 24.3822 23.3157 24.3744 23.2684C24.3822 23.3089 24.3926 23.3562 24.3978 23.3968C24.4187 23.3833 24.4499 23.3833 24.4682 23.3697C24.4499 23.39 24.4213 23.3833 24.3978 23.3968ZM47.8648 20.5041C47.9013 20.619 47.9248 20.7542 47.9378 20.9164C47.9456 20.9975 47.9482 21.0921 47.9508 21.1867C47.9508 21.0853 47.943 20.9975 47.9378 20.9164C47.9248 20.7474 47.8987 20.6122 47.8648 20.5041ZM44.7197 20.3824C44.6963 20.2 44.6702 20.1053 44.652 20.1121C44.6728 20.1053 44.6963 20.1932 44.7197 20.3824ZM40.9962 4.33074C40.9806 4.31047 40.9675 4.28344 40.9545 4.24288C40.9675 4.27668 40.9832 4.31047 40.9962 4.33074ZM37.6531 3.9793C37.6531 3.9793 37.6531 3.96578 37.6531 3.95902C37.6531 3.95902 37.6531 3.97254 37.6531 3.9793ZM33.6976 3.99957C33.6637 4.09419 33.6325 4.1753 33.5986 4.24288C33.6325 4.18206 33.6663 4.09419 33.6976 3.99957ZM20.2469 7.5546C20.2313 7.36536 20.1531 7.14232 20.0489 6.91929C20.1531 7.14908 20.2313 7.36536 20.2469 7.56135L20.2469 7.5546ZM20.0593 6.71653C20.0593 6.71653 20.0593 6.70977 20.0593 6.70301L20.0593 6.71653ZM19.7519 5.78384C19.9056 5.91226 19.9864 6.18936 20.0385 6.52053C19.9864 6.1826 19.903 5.91226 19.7519 5.78384C19.7232 4.68895 19.4392 4.24288 19.1239 3.79681C19.4392 4.24964 19.7232 4.68895 19.7519 5.78384ZM13.0604 9.25776C12.8155 9.40645 12.6565 9.78494 12.6122 10.4608C12.8285 10.5013 13.0422 10.5419 13.2584 10.5825C13.519 10.6095 13.777 10.6365 14.0375 10.6568C13.777 10.6298 13.5164 10.6027 13.2584 10.5825C13.0422 10.5419 12.8285 10.5013 12.6122 10.4608C12.4064 10.4946 12.2005 10.5351 11.9947 10.5689C12.2005 10.5284 12.4064 10.4946 12.6122 10.454C12.6565 9.77818 12.8181 9.40645 13.0604 9.25101L13.0604 9.25776ZM2.27539 15.9488C1.83763 15.354 1.42332 14.7931 1.01162 14.2253C1.42332 14.7863 1.83763 15.3473 2.27539 15.9488Z" fill="#E5C996"/>
<path d="M0.180401 23.0994C0.300263 23.7144 3.53655 24.6741 4.98532 24.2281C5.80352 24.9513 6.66079 24.6066 7.49983 24.7215C10.8247 25.1743 14.1522 25.3365 17.4823 25.1946C18.2327 25.519 18.9832 25.5528 19.7388 25.3365C20.5023 25.8975 21.2632 25.6474 22.0214 25.2622C22.3081 25.5528 22.5921 25.5325 22.8735 25.2148C24.007 25.323 25.1379 25.6744 26.2739 25.3095C26.5632 25.5122 26.8498 25.5933 27.1286 25.2419C28.1787 25.9515 34.2318 25.1743 35.9359 25.127C36.0115 25.2216 36.0714 25.1878 36.1209 25.0188L36.1261 25.0053C36.2147 25.0391 36.3007 25.0729 36.3893 25.1067C36.8922 25.4852 37.3951 25.4582 37.9006 25.127C38.1872 25.3162 38.4713 25.2622 38.7527 25.0594C39.2399 25.4311 39.722 25.3027 40.1988 24.958C40.7539 25.4852 41.3297 24.958 41.8925 25.1608C44.9334 25.4919 47.9769 25.8366 51.0177 26.1408C52.7479 26.3097 54.4781 26.6139 56.2083 26.33C57.3314 26.1475 57.4851 25.7353 57.4304 23.1129C57.4226 22.7682 57.4669 22.41 57.4356 22.0856C57.3001 20.5717 57.4721 19.6931 58.1652 19.4971C58.8088 19.3078 58.9339 18.1116 58.9808 16.726C59.0668 14.0564 58.8453 11.4949 58.6941 8.87929C58.5925 7.08826 58.3476 6.20288 57.631 6.02716C57.3991 5.96633 57.1698 5.79736 56.9405 5.67571C56.7555 5.16206 56.5444 5.26343 56.3282 5.53378C55.3093 5.44592 54.314 4.54702 53.2795 4.97957C52.3362 4.18206 51.3721 4.06716 50.3924 4.41861C50.1083 4.19557 49.8295 4.22937 49.5533 4.48619C48.9983 3.5873 48.4016 3.93875 47.8127 4.14151C47.2681 3.91847 46.7209 3.85764 46.1737 4.0942C45.1262 3.5873 44.0761 3.38454 43.026 4.07392C42.7472 3.87792 42.4658 3.68192 42.1714 3.8644C41.9916 3.41157 41.8092 3.06689 41.6033 3.79006C41.5017 3.77654 41.4027 3.76978 41.3011 3.75626C41.1551 3.37102 40.9936 3.33723 40.8138 3.61433C40.6991 3.66164 40.5845 3.70895 40.4698 3.75626C40.29 3.26288 40.092 2.9993 39.8393 3.48592C39.0992 3.09392 38.3592 3.59406 37.6192 3.45889C36.7828 2.36399 35.9229 3.23585 35.0734 3.3102C34.693 3.26964 34.3152 3.22909 33.9347 3.18854C33.8913 3.33723 33.8913 3.33723 33.9347 3.18854C33.6246 2.66813 33.3484 3.0804 33.0696 3.37778C32.7856 3.37778 32.5042 3.37778 32.2202 3.37778C30.1695 3.31019 28.1188 3.3575 26.0707 3.15475C23.4494 2.89792 20.8332 2.41806 18.2145 2.06661C16.0309 1.76923 10.6006 -0.0488386 10.0743 1.26909C9.60785 1.20826 9.14403 1.14743 8.67761 1.08661C7.8516 0.00523047 6.95784 0.924403 6.10578 0.586472C5.81915 0.343161 5.53513 0.458058 5.25371 0.633781C4.18537 0.0525416 2.74963 0.126886 1.95488 0.309368C1.16015 0.491851 1.98876 5.38508 1.31128 7.31128C0.777104 8.06825 1.31649 9.85252 0.779713 10.6095C0.558228 10.6973 0.219483 10.3053 0.242936 11.3935C0.266385 12.6438 0.302868 13.9009 0.159554 15.1242C-0.048904 16.9153 -0.0358731 18.7131 0.0996249 20.5244C-0.00981498 21.038 0.0865938 21.5246 0.13089 22.018C-0.0150297 22.1599 0.175186 23.0994 0.175186 23.0994L0.180401 23.0994ZM6.44713 6.64894C6.50966 6.66246 6.56959 6.68273 6.63213 6.70301C6.74938 8.32508 7.11679 9.32535 7.71349 9.73763C7.11679 9.32535 6.75199 8.32508 6.63213 6.70301C6.5722 6.67598 6.50966 6.66246 6.44973 6.64894C6.25169 6.64894 6.05627 6.63542 5.85823 6.63542C5.85823 6.7706 5.86084 6.91253 5.85823 7.05446C5.86084 6.91928 5.85823 6.77736 5.85823 6.63542C6.05627 6.63542 6.25169 6.64894 6.44973 6.64894L6.44713 6.64894ZM14.4675 10.231C14.4753 10.1769 14.4805 10.1229 14.4857 10.0688C14.4909 10.0147 14.4962 9.96742 14.4962 9.91335C14.4962 9.96066 14.4909 10.0147 14.4857 10.0688C14.4805 10.1229 14.4727 10.1769 14.4675 10.231ZM14.887 10.6703C14.887 9.9539 14.9808 9.19018 14.8401 8.55487C14.9808 9.19694 14.887 9.9539 14.887 10.6703ZM16.0283 10.3662C16.0439 10.1972 16.0439 10.0418 16.0335 9.89307C16.0439 10.0418 16.0439 10.1972 16.0283 10.3729C15.8798 10.4135 15.7339 10.4608 15.5853 10.5081C15.7313 10.4608 15.8798 10.4135 16.0257 10.3662L16.0283 10.3662ZM31.3446 8.29129C31.342 8.46701 31.2769 8.62922 31.2378 8.79818C31.2769 8.62922 31.342 8.46025 31.3446 8.29129ZM28.2334 10.819C28.2803 10.7852 28.3272 10.7514 28.3715 10.7176C28.3246 10.7514 28.2803 10.7852 28.2334 10.819ZM16.0726 11.4002C15.6088 11.8463 15.1788 12.4546 14.7202 12.9277C15.1815 12.4613 15.6088 11.8463 16.0726 11.4002ZM14.6186 13.0291C14.5483 13.0967 14.4753 13.1642 14.4023 13.2183C14.4753 13.1575 14.5483 13.0967 14.6186 13.0291ZM8.8105 10.2851C8.65155 10.1567 8.48739 10.0688 8.31802 10.0012C8.48478 10.0688 8.65155 10.1567 8.8105 10.2851ZM5.85563 7.07473C5.85302 7.18963 5.8452 7.30453 5.82957 7.39915C5.8452 7.29777 5.85302 7.18963 5.85563 7.07473ZM21.6853 23.3968C21.5993 23.7415 21.5706 24.0997 21.7452 24.5255C21.5706 24.0997 21.5993 23.7347 21.6853 23.39L21.6853 23.3968ZM21.8964 22.7006C21.8338 22.9237 21.753 23.1399 21.6957 23.3562C21.753 23.1332 21.8338 22.9169 21.8964 22.7006ZM24.3978 23.3968C24.3926 23.3562 24.3822 23.3157 24.3744 23.2684C24.3822 23.3089 24.3926 23.3562 24.3978 23.3968C24.4187 23.3833 24.4499 23.3833 24.4682 23.3697C24.4499 23.39 24.4213 23.3833 24.3978 23.3968ZM47.8648 20.5041C47.9013 20.619 47.9248 20.7542 47.9378 20.9164C47.9456 20.9975 47.9482 21.0921 47.9508 21.1867C47.9508 21.0853 47.943 20.9975 47.9378 20.9164C47.9248 20.7474 47.8987 20.6122 47.8648 20.5041ZM44.7197 20.3824C44.6963 20.2 44.6702 20.1053 44.652 20.1121C44.6728 20.1053 44.6963 20.1932 44.7197 20.3824ZM40.9962 4.33074C40.9806 4.31047 40.9675 4.28344 40.9545 4.24288C40.9675 4.27668 40.9832 4.31047 40.9962 4.33074ZM37.6531 3.9793C37.6531 3.9793 37.6531 3.96578 37.6531 3.95902C37.6531 3.95902 37.6531 3.97254 37.6531 3.9793ZM33.6976 3.99957C33.6637 4.09419 33.6325 4.1753 33.5986 4.24288C33.6325 4.18206 33.6663 4.09419 33.6976 3.99957ZM20.2469 7.5546C20.2313 7.36536 20.1531 7.14232 20.0489 6.91929C20.1531 7.14908 20.2313 7.36536 20.2469 7.56135L20.2469 7.5546ZM20.0593 6.71653C20.0593 6.71653 20.0593 6.70977 20.0593 6.70301L20.0593 6.71653ZM19.7519 5.78384C19.9056 5.91226 19.9864 6.18936 20.0385 6.52053C19.9864 6.1826 19.903 5.91226 19.7519 5.78384C19.7232 4.68895 19.4392 4.24288 19.1239 3.79681C19.4392 4.24964 19.7232 4.68895 19.7519 5.78384ZM13.0604 9.25776C12.8155 9.40645 12.6565 9.78494 12.6122 10.4608C12.8285 10.5013 13.0422 10.5419 13.2584 10.5825C13.519 10.6095 13.777 10.6365 14.0375 10.6568C13.777 10.6298 13.5164 10.6027 13.2584 10.5825C13.0422 10.5419 12.8285 10.5013 12.6122 10.4608C12.4064 10.4946 12.2005 10.5351 11.9947 10.5689C12.2005 10.5284 12.4064 10.4946 12.6122 10.454C12.6565 9.77818 12.8181 9.40645 13.0604 9.25101L13.0604 9.25776ZM2.27539 15.9488C1.83763 15.354 1.42332 14.7931 1.01162 14.2253C1.42332 14.7863 1.83763 15.3473 2.27539 15.9488Z" fill="#E5C996"/>
<path d="M0.180401 23.0994C0.300263 23.7144 3.53655 24.6741 4.98532 24.2281C5.80352 24.9513 6.66079 24.6066 7.49983 24.7215C10.8247 25.1743 14.1522 25.3365 17.4823 25.1946C18.2327 25.519 18.9832 25.5528 19.7388 25.3365C20.5023 25.8975 21.2632 25.6474 22.0214 25.2622C22.3081 25.5528 22.5921 25.5325 22.8735 25.2148C24.007 25.323 25.1379 25.6744 26.2739 25.3095C26.5632 25.5122 26.8498 25.5933 27.1286 25.2419C28.1787 25.9515 34.2318 25.1743 35.9359 25.127C36.0115 25.2216 36.0714 25.1878 36.1209 25.0188L36.1261 25.0053C36.2147 25.0391 36.3007 25.0729 36.3893 25.1067C36.8922 25.4852 37.3951 25.4582 37.9006 25.127C38.1872 25.3162 38.4713 25.2622 38.7527 25.0594C39.2399 25.4311 39.722 25.3027 40.1988 24.958C40.7539 25.4852 41.3297 24.958 41.8925 25.1608C44.9334 25.4919 47.9769 25.8366 51.0177 26.1408C52.7479 26.3097 54.4781 26.6139 56.2083 26.33C57.3314 26.1475 57.4851 25.7353 57.4304 23.1129C57.4226 22.7682 57.4669 22.41 57.4356 22.0856C57.3001 20.5717 57.4721 19.6931 58.1652 19.4971C58.8088 19.3078 58.9339 18.1116 58.9808 16.726C59.0668 14.0564 58.8453 11.4949 58.6941 8.87929C58.5925 7.08826 58.3476 6.20288 57.631 6.02716C57.3991 5.96633 57.1698 5.79736 56.9405 5.67571C56.7555 5.16206 56.5444 5.26343 56.3282 5.53378C55.3093 5.44592 54.314 4.54702 53.2795 4.97957C52.3362 4.18206 51.3721 4.06716 50.3924 4.41861C50.1083 4.19557 49.8295 4.22937 49.5533 4.48619C48.9983 3.5873 48.4016 3.93875 47.8127 4.14151C47.2681 3.91847 46.7209 3.85764 46.1737 4.0942C45.1262 3.5873 44.0761 3.38454 43.026 4.07392C42.7472 3.87792 42.4658 3.68192 42.1714 3.8644C41.9916 3.41157 41.8092 3.06689 41.6033 3.79006C41.5017 3.77654 41.4027 3.76978 41.3011 3.75626C41.1551 3.37102 40.9936 3.33723 40.8138 3.61433C40.6991 3.66164 40.5845 3.70895 40.4698 3.75626C40.29 3.26288 40.092 2.9993 39.8393 3.48592C39.0992 3.09392 38.3592 3.59406 37.6192 3.45889C36.7828 2.36399 35.9229 3.23585 35.0734 3.3102C34.693 3.26964 34.3152 3.22909 33.9347 3.18854C33.8913 3.33723 33.8913 3.33723 33.9347 3.18854C33.6246 2.66813 33.3484 3.0804 33.0696 3.37778C32.7856 3.37778 32.5042 3.37778 32.2202 3.37778C30.1695 3.31019 28.1188 3.3575 26.0707 3.15475C23.4494 2.89792 20.8332 2.41806 18.2145 2.06661C16.0309 1.76923 10.6006 -0.0488386 10.0743 1.26909C9.60785 1.20826 9.14403 1.14743 8.67761 1.08661C7.8516 0.00523047 6.95784 0.924403 6.10578 0.586472C5.81915 0.343161 5.53513 0.458058 5.25371 0.633781C4.18537 0.0525416 2.74963 0.126886 1.95488 0.309368C1.16015 0.491851 1.98876 5.38508 1.31128 7.31128C0.777104 8.06825 1.31649 9.85252 0.779713 10.6095C0.558228 10.6973 0.219483 10.3053 0.242936 11.3935C0.266385 12.6438 0.302868 13.9009 0.159554 15.1242C-0.048904 16.9153 -0.0358731 18.7131 0.0996249 20.5244C-0.00981498 21.038 0.0865938 21.5246 0.13089 22.018C-0.0150297 22.1599 0.175186 23.0994 0.175186 23.0994L0.180401 23.0994ZM6.44713 6.64894C6.50966 6.66246 6.56959 6.68273 6.63213 6.70301C6.74938 8.32508 7.11679 9.32535 7.71349 9.73763C7.11679 9.32535 6.75199 8.32508 6.63213 6.70301C6.5722 6.67598 6.50966 6.66246 6.44973 6.64894C6.25169 6.64894 6.05627 6.63542 5.85823 6.63542C5.85823 6.7706 5.86084 6.91253 5.85823 7.05446C5.86084 6.91928 5.85823 6.77736 5.85823 6.63542C6.05627 6.63542 6.25169 6.64894 6.44973 6.64894L6.44713 6.64894ZM14.4675 10.231C14.4753 10.1769 14.4805 10.1229 14.4857 10.0688C14.4909 10.0147 14.4962 9.96742 14.4962 9.91335C14.4962 9.96066 14.4909 10.0147 14.4857 10.0688C14.4805 10.1229 14.4727 10.1769 14.4675 10.231ZM14.887 10.6703C14.887 9.9539 14.9808 9.19018 14.8401 8.55487C14.9808 9.19694 14.887 9.9539 14.887 10.6703ZM16.0283 10.3662C16.0439 10.1972 16.0439 10.0418 16.0335 9.89307C16.0439 10.0418 16.0439 10.1972 16.0283 10.3729C15.8798 10.4135 15.7339 10.4608 15.5853 10.5081C15.7313 10.4608 15.8798 10.4135 16.0257 10.3662L16.0283 10.3662ZM31.3446 8.29129C31.342 8.46701 31.2769 8.62922 31.2378 8.79818C31.2769 8.62922 31.342 8.46025 31.3446 8.29129ZM28.2334 10.819C28.2803 10.7852 28.3272 10.7514 28.3715 10.7176C28.3246 10.7514 28.2803 10.7852 28.2334 10.819ZM16.0726 11.4002C15.6088 11.8463 15.1788 12.4546 14.7202 12.9277C15.1815 12.4613 15.6088 11.8463 16.0726 11.4002ZM14.6186 13.0291C14.5483 13.0967 14.4753 13.1642 14.4023 13.2183C14.4753 13.1575 14.5483 13.0967 14.6186 13.0291ZM8.8105 10.2851C8.65155 10.1567 8.48739 10.0688 8.31802 10.0012C8.48478 10.0688 8.65155 10.1567 8.8105 10.2851ZM5.85563 7.07473C5.85302 7.18963 5.8452 7.30453 5.82957 7.39915C5.8452 7.29777 5.85302 7.18963 5.85563 7.07473ZM21.6853 23.3968C21.5993 23.7415 21.5706 24.0997 21.7452 24.5255C21.5706 24.0997 21.5993 23.7347 21.6853 23.39L21.6853 23.3968ZM21.8964 22.7006C21.8338 22.9237 21.753 23.1399 21.6957 23.3562C21.753 23.1332 21.8338 22.9169 21.8964 22.7006ZM24.3978 23.3968C24.3926 23.3562 24.3822 23.3157 24.3744 23.2684C24.3822 23.3089 24.3926 23.3562 24.3978 23.3968C24.4187 23.3833 24.4499 23.3833 24.4682 23.3697C24.4499 23.39 24.4213 23.3833 24.3978 23.3968ZM47.8648 20.5041C47.9013 20.619 47.9248 20.7542 47.9378 20.9164C47.9456 20.9975 47.9482 21.0921 47.9508 21.1867C47.9508 21.0853 47.943 20.9975 47.9378 20.9164C47.9248 20.7474 47.8987 20.6122 47.8648 20.5041ZM44.7197 20.3824C44.6963 20.2 44.6702 20.1053 44.652 20.1121C44.6728 20.1053 44.6963 20.1932 44.7197 20.3824ZM40.9962 4.33074C40.9806 4.31047 40.9675 4.28344 40.9545 4.24288C40.9675 4.27668 40.9832 4.31047 40.9962 4.33074ZM37.6531 3.9793C37.6531 3.9793 37.6531 3.96578 37.6531 3.95902C37.6531 3.95902 37.6531 3.97254 37.6531 3.9793ZM33.6976 3.99957C33.6637 4.09419 33.6325 4.1753 33.5986 4.24288C33.6325 4.18206 33.6663 4.09419 33.6976 3.99957ZM20.2469 7.5546C20.2313 7.36536 20.1531 7.14232 20.0489 6.91929C20.1531 7.14908 20.2313 7.36536 20.2469 7.56135L20.2469 7.5546ZM20.0593 6.71653C20.0593 6.71653 20.0593 6.70977 20.0593 6.70301L20.0593 6.71653ZM19.7519 5.78384C19.9056 5.91226 19.9864 6.18936 20.0385 6.52053C19.9864 6.1826 19.903 5.91226 19.7519 5.78384C19.7232 4.68895 19.4392 4.24288 19.1239 3.79681C19.4392 4.24964 19.7232 4.68895 19.7519 5.78384ZM13.0604 9.25776C12.8155 9.40645 12.6565 9.78494 12.6122 10.4608C12.8285 10.5013 13.0422 10.5419 13.2584 10.5825C13.519 10.6095 13.777 10.6365 14.0375 10.6568C13.777 10.6298 13.5164 10.6027 13.2584 10.5825C13.0422 10.5419 12.8285 10.5013 12.6122 10.4608C12.4064 10.4946 12.2005 10.5351 11.9947 10.5689C12.2005 10.5284 12.4064 10.4946 12.6122 10.454C12.6565 9.77818 12.8181 9.40645 13.0604 9.25101L13.0604 9.25776ZM2.27539 15.9488C1.83763 15.354 1.42332 14.7931 1.01162 14.2253C1.42332 14.7863 1.83763 15.3473 2.27539 15.9488Z" fill="#E5C996"/>
</svg>
