<svg width="245" height="25" viewBox="0 0 245 25" fill="none" xmlns="http://www.w3.org/2000/svg">
<path d="M0.749115 21.1174C1.24684 21.6615 14.6857 22.5105 20.7018 22.1159C24.0993 22.7556 27.6592 22.4507 31.1434 22.5523C44.9501 22.9529 58.7676 23.0964 72.5959 22.9708C75.7122 23.2578 78.8284 23.2877 81.9663 23.0964C85.1367 23.5926 88.2962 23.3714 91.4449 23.0306C92.6351 23.2877 93.8146 23.2698 94.9832 22.9888C99.69 23.0844 104.386 23.3953 109.104 23.0725C110.305 23.2518 111.495 23.3236 112.653 23.0127C117.013 23.6404 142.149 22.9529 149.225 22.911C149.539 22.9947 149.788 22.9649 149.994 22.8154L150.015 22.8034C150.383 22.8333 150.74 22.8632 151.108 22.8931C153.196 23.2279 155.285 23.204 157.384 22.911C158.574 23.0784 159.754 23.0306 160.922 22.8513C162.946 23.1801 164.947 23.0665 166.927 22.7616C169.232 23.2279 171.623 22.7616 173.961 22.9409C186.588 23.2339 199.226 23.5388 211.853 23.8079C219.038 23.9573 226.223 24.2264 233.407 23.9753C238.071 23.8138 238.709 23.4491 238.482 21.1294C238.45 20.8245 238.634 20.5076 238.504 20.2206C237.941 18.8814 238.655 18.1041 241.533 17.9307C244.206 17.7633 244.725 16.7051 244.92 15.4794C245.277 13.1178 244.357 10.8519 243.73 8.5381C243.308 6.95372 242.291 6.1705 239.315 6.01506C238.352 5.96125 237.4 5.81178 236.448 5.70416C235.68 5.24977 234.803 5.33945 233.905 5.5786C229.674 5.50088 225.541 4.7057 221.245 5.08834C217.328 4.38285 213.325 4.28121 209.256 4.59211C208.077 4.39481 206.919 4.4247 205.772 4.65189C203.468 3.85672 200.99 4.16761 198.544 4.34698C196.283 4.14968 194.011 4.09587 191.738 4.30513C187.389 3.85672 183.028 3.67736 178.667 4.28719C177.51 4.1138 176.341 3.94042 175.118 4.10185C174.372 3.70127 173.614 3.39635 172.76 4.03608C172.338 4.02412 171.926 4.01814 171.504 4.00618C170.898 3.66539 170.228 3.6355 169.481 3.88063C169.005 3.92248 168.529 3.96433 168.053 4.00618C167.306 3.56974 166.484 3.33656 165.434 3.76703C162.361 3.42026 159.288 3.86269 156.215 3.74312C152.742 2.77456 149.171 3.54582 145.644 3.61158C144.064 3.57571 142.495 3.53984 140.915 3.50397C140.735 3.6355 140.735 3.6355 140.915 3.50397C139.628 3.0436 138.481 3.4083 137.323 3.67137C136.144 3.67137 134.975 3.67137 133.796 3.67137C125.28 3.61158 116.764 3.65343 108.26 3.47407C97.3745 3.24688 86.5109 2.82238 75.6364 2.51148C66.569 2.24842 44.0195 0.640129 41.8338 1.80599C39.897 1.75218 37.971 1.69837 36.0341 1.64456C32.6041 0.687958 28.8927 1.50107 25.3545 1.20213C24.1642 0.986896 22.9849 1.08853 21.8163 1.24398C17.3799 0.729808 11.4179 0.795575 8.11774 0.957001C4.81755 1.11843 8.25841 5.44705 5.44513 7.151C3.22696 7.82062 5.46677 9.39902 3.23779 10.0686C2.31806 10.1464 0.911409 9.79959 1.00879 10.7622C1.10617 11.8682 1.25766 12.9803 0.662553 14.0625C-0.203078 15.6468 -0.148971 17.2372 0.413681 18.8395C-0.0407711 19.2939 0.359574 19.7243 0.543518 20.1608C-0.0624081 20.2863 0.727463 21.1174 0.727463 21.1174L0.749115 21.1174ZM26.772 6.56508C27.0316 6.57704 27.2805 6.59498 27.5402 6.61291C28.0271 8.04782 29.5528 8.93268 32.0306 9.29738C29.5528 8.93268 28.0379 8.04782 27.5402 6.61291C27.2913 6.589 27.0316 6.57704 26.7828 6.56508C25.9604 6.56508 25.1489 6.55313 24.3266 6.55312C24.3266 6.6727 24.3374 6.79825 24.3266 6.92381C24.3374 6.80423 24.3266 6.67868 24.3266 6.55312C25.1489 6.55313 25.9604 6.56508 26.7828 6.56508L26.772 6.56508ZM60.0769 9.73383C60.1093 9.686 60.131 9.63817 60.1526 9.59034C60.1742 9.54251 60.1959 9.50066 60.1959 9.45283C60.1959 9.49468 60.1742 9.54251 60.1526 9.59034C60.131 9.63817 60.0985 9.686 60.0769 9.73383ZM61.8189 10.1225C61.8189 9.4887 62.2085 8.8131 61.6241 8.2511C62.2085 8.81908 61.8189 9.4887 61.8189 10.1225ZM66.5582 9.85341C66.6231 9.70394 66.6231 9.56643 66.5799 9.43489C66.6231 9.56643 66.6231 9.70394 66.5582 9.85939C65.9415 9.89526 65.3355 9.93711 64.7188 9.97896C65.3247 9.93711 65.9415 9.89526 66.5474 9.85341L66.5582 9.85341ZM130.16 8.01793C130.149 8.17338 129.879 8.31687 129.716 8.46634C129.879 8.31687 130.149 8.1674 130.16 8.01793ZM117.241 10.254C117.435 10.2241 117.63 10.1942 117.814 10.1643C117.619 10.1942 117.435 10.2241 117.241 10.254ZM66.7422 10.7682C64.8161 11.1628 63.0308 11.7008 61.1264 12.1194C63.0416 11.7068 64.8161 11.1628 66.7422 10.7682ZM60.7044 12.209C60.4123 12.2688 60.1093 12.3286 59.8064 12.3764C60.1093 12.3226 60.4123 12.2688 60.7044 12.209ZM36.586 9.78166C35.9259 9.66806 35.2442 9.59034 34.5409 9.53055C35.2334 9.59034 35.9259 9.66806 36.586 9.78166ZM24.3157 6.94175C24.3049 7.04338 24.2724 7.14502 24.2075 7.22873C24.2724 7.13904 24.3049 7.04338 24.3157 6.94175ZM90.0491 21.3805C89.692 21.6854 89.573 22.0023 90.298 22.3789C89.573 22.0023 89.692 21.6794 90.0491 21.3745L90.0491 21.3805ZM90.9255 20.7647C90.6659 20.962 90.3304 21.1533 90.0924 21.3446C90.3304 21.1473 90.6659 20.956 90.9255 20.7647ZM101.313 21.3805C101.291 21.3446 101.248 21.3087 101.216 21.2669C101.248 21.3027 101.291 21.3446 101.313 21.3805C101.4 21.3685 101.529 21.3685 101.605 21.3566C101.529 21.3745 101.41 21.3685 101.313 21.3805ZM198.761 18.8216C198.912 18.9232 199.01 19.0428 199.064 19.1863C199.096 19.258 199.107 19.3417 199.118 19.4254C199.118 19.3357 199.085 19.258 199.064 19.1863C199.01 19.0368 198.901 18.9172 198.761 18.8216ZM185.701 18.714C185.603 18.5525 185.495 18.4688 185.419 18.4748C185.506 18.4688 185.603 18.5465 185.701 18.714ZM170.238 4.51438C170.173 4.49644 170.119 4.47253 170.065 4.43666C170.119 4.46655 170.184 4.49644 170.238 4.51438ZM156.356 4.20348C156.356 4.20348 156.356 4.19153 156.356 4.18555C156.356 4.18555 156.356 4.1975 156.356 4.20348ZM139.931 4.22142C139.79 4.30512 139.66 4.37687 139.52 4.43666C139.66 4.38285 139.801 4.30512 139.931 4.22142ZM84.0763 7.36624C84.0114 7.19884 83.6868 7.00154 83.254 6.80424C83.6868 7.00752 84.0114 7.19884 84.0763 7.37222L84.0763 7.36624ZM83.2972 6.62488C83.2972 6.62488 83.2972 6.6189 83.2972 6.61292L83.2972 6.62488ZM82.0204 5.79981C82.6588 5.9134 82.9942 6.15853 83.2107 6.45149C82.9942 6.15255 82.648 5.9134 82.0204 5.79981C81.9014 4.83125 80.722 4.43665 79.4127 4.04205C80.722 4.44263 81.9014 4.83125 82.0204 5.79981ZM54.2339 8.87289C53.2168 9.00442 52.5567 9.33923 52.3728 9.93711C53.2709 9.97298 54.1582 10.0089 55.0562 10.0447C56.1383 10.0686 57.2095 10.0926 58.2915 10.1105C57.2095 10.0866 56.1274 10.0627 55.0562 10.0447C54.1582 10.0089 53.2709 9.97298 52.3728 9.93711C51.518 9.967 50.6632 10.0029 49.8084 10.0328C50.6632 9.9969 51.518 9.967 52.3728 9.93113C52.5567 9.33325 53.2276 9.00442 54.2339 8.86691L54.2339 8.87289ZM9.44864 14.7919C7.63083 14.2657 5.9104 13.7695 4.20079 13.2673C5.9104 13.7635 7.63083 14.2598 9.44864 14.7919Z" fill="#E5C996"/>
<path d="M0.749115 21.1174C1.24684 21.6615 14.6857 22.5105 20.7018 22.1159C24.0993 22.7556 27.6592 22.4507 31.1434 22.5523C44.9501 22.9529 58.7676 23.0964 72.5959 22.9708C75.7122 23.2578 78.8284 23.2877 81.9663 23.0964C85.1367 23.5926 88.2962 23.3714 91.4449 23.0306C92.6351 23.2877 93.8146 23.2698 94.9832 22.9888C99.69 23.0844 104.386 23.3953 109.104 23.0725C110.305 23.2518 111.495 23.3236 112.653 23.0127C117.013 23.6404 142.149 22.9529 149.225 22.911C149.539 22.9947 149.788 22.9649 149.994 22.8154L150.015 22.8034C150.383 22.8333 150.74 22.8632 151.108 22.8931C153.196 23.2279 155.285 23.204 157.384 22.911C158.574 23.0784 159.754 23.0306 160.922 22.8513C162.946 23.1801 164.947 23.0665 166.927 22.7616C169.232 23.2279 171.623 22.7616 173.961 22.9409C186.588 23.2339 199.226 23.5388 211.853 23.8079C219.038 23.9573 226.223 24.2264 233.407 23.9753C238.071 23.8138 238.709 23.4491 238.482 21.1294C238.45 20.8245 238.634 20.5076 238.504 20.2206C237.941 18.8814 238.655 18.1041 241.533 17.9307C244.206 17.7633 244.725 16.7051 244.92 15.4794C245.277 13.1178 244.357 10.8519 243.73 8.5381C243.308 6.95372 242.291 6.1705 239.315 6.01506C238.352 5.96125 237.4 5.81178 236.448 5.70416C235.68 5.24977 234.803 5.33945 233.905 5.5786C229.674 5.50088 225.541 4.7057 221.245 5.08834C217.328 4.38285 213.325 4.28121 209.256 4.59211C208.077 4.39481 206.919 4.4247 205.772 4.65189C203.468 3.85672 200.99 4.16761 198.544 4.34698C196.283 4.14968 194.011 4.09587 191.738 4.30513C187.389 3.85672 183.028 3.67736 178.667 4.28719C177.51 4.1138 176.341 3.94042 175.118 4.10185C174.372 3.70127 173.614 3.39635 172.76 4.03608C172.338 4.02412 171.926 4.01814 171.504 4.00618C170.898 3.66539 170.228 3.6355 169.481 3.88063C169.005 3.92248 168.529 3.96433 168.053 4.00618C167.306 3.56974 166.484 3.33656 165.434 3.76703C162.361 3.42026 159.288 3.86269 156.215 3.74312C152.742 2.77456 149.171 3.54582 145.644 3.61158C144.064 3.57571 142.495 3.53984 140.915 3.50397C140.735 3.6355 140.735 3.6355 140.915 3.50397C139.628 3.0436 138.481 3.4083 137.323 3.67137C136.144 3.67137 134.975 3.67137 133.796 3.67137C125.28 3.61158 116.764 3.65343 108.26 3.47407C97.3745 3.24688 86.5109 2.82238 75.6364 2.51148C66.569 2.24842 44.0195 0.640129 41.8338 1.80599C39.897 1.75218 37.971 1.69837 36.0341 1.64456C32.6041 0.687958 28.8927 1.50107 25.3545 1.20213C24.1642 0.986896 22.9849 1.08853 21.8163 1.24398C17.3799 0.729808 11.4179 0.795575 8.11774 0.957001C4.81755 1.11843 8.25841 5.44705 5.44513 7.151C3.22696 7.82062 5.46677 9.39902 3.23779 10.0686C2.31806 10.1464 0.911409 9.79959 1.00879 10.7622C1.10617 11.8682 1.25766 12.9803 0.662553 14.0625C-0.203078 15.6468 -0.148971 17.2372 0.413681 18.8395C-0.0407711 19.2939 0.359574 19.7243 0.543518 20.1608C-0.0624081 20.2863 0.727463 21.1174 0.727463 21.1174L0.749115 21.1174ZM26.772 6.56508C27.0316 6.57704 27.2805 6.59498 27.5402 6.61291C28.0271 8.04782 29.5528 8.93268 32.0306 9.29738C29.5528 8.93268 28.0379 8.04782 27.5402 6.61291C27.2913 6.589 27.0316 6.57704 26.7828 6.56508C25.9604 6.56508 25.1489 6.55313 24.3266 6.55312C24.3266 6.6727 24.3374 6.79825 24.3266 6.92381C24.3374 6.80423 24.3266 6.67868 24.3266 6.55312C25.1489 6.55313 25.9604 6.56508 26.7828 6.56508L26.772 6.56508ZM60.0769 9.73383C60.1093 9.686 60.131 9.63817 60.1526 9.59034C60.1742 9.54251 60.1959 9.50066 60.1959 9.45283C60.1959 9.49468 60.1742 9.54251 60.1526 9.59034C60.131 9.63817 60.0985 9.686 60.0769 9.73383ZM61.8189 10.1225C61.8189 9.4887 62.2085 8.8131 61.6241 8.2511C62.2085 8.81908 61.8189 9.4887 61.8189 10.1225ZM66.5582 9.85341C66.6231 9.70394 66.6231 9.56643 66.5799 9.43489C66.6231 9.56643 66.6231 9.70394 66.5582 9.85939C65.9415 9.89526 65.3355 9.93711 64.7188 9.97896C65.3247 9.93711 65.9415 9.89526 66.5474 9.85341L66.5582 9.85341ZM130.16 8.01793C130.149 8.17338 129.879 8.31687 129.716 8.46634C129.879 8.31687 130.149 8.1674 130.16 8.01793ZM117.241 10.254C117.435 10.2241 117.63 10.1942 117.814 10.1643C117.619 10.1942 117.435 10.2241 117.241 10.254ZM66.7422 10.7682C64.8161 11.1628 63.0308 11.7008 61.1264 12.1194C63.0416 11.7068 64.8161 11.1628 66.7422 10.7682ZM60.7044 12.209C60.4123 12.2688 60.1093 12.3286 59.8064 12.3764C60.1093 12.3226 60.4123 12.2688 60.7044 12.209ZM36.586 9.78166C35.9259 9.66806 35.2442 9.59034 34.5409 9.53055C35.2334 9.59034 35.9259 9.66806 36.586 9.78166ZM24.3157 6.94175C24.3049 7.04338 24.2724 7.14502 24.2075 7.22873C24.2724 7.13904 24.3049 7.04338 24.3157 6.94175ZM90.0491 21.3805C89.692 21.6854 89.573 22.0023 90.298 22.3789C89.573 22.0023 89.692 21.6794 90.0491 21.3745L90.0491 21.3805ZM90.9255 20.7647C90.6659 20.962 90.3304 21.1533 90.0924 21.3446C90.3304 21.1473 90.6659 20.956 90.9255 20.7647ZM101.313 21.3805C101.291 21.3446 101.248 21.3087 101.216 21.2669C101.248 21.3027 101.291 21.3446 101.313 21.3805C101.4 21.3685 101.529 21.3685 101.605 21.3566C101.529 21.3745 101.41 21.3685 101.313 21.3805ZM198.761 18.8216C198.912 18.9232 199.01 19.0428 199.064 19.1863C199.096 19.258 199.107 19.3417 199.118 19.4254C199.118 19.3357 199.085 19.258 199.064 19.1863C199.01 19.0368 198.901 18.9172 198.761 18.8216ZM185.701 18.714C185.603 18.5525 185.495 18.4688 185.419 18.4748C185.506 18.4688 185.603 18.5465 185.701 18.714ZM170.238 4.51438C170.173 4.49644 170.119 4.47253 170.065 4.43666C170.119 4.46655 170.184 4.49644 170.238 4.51438ZM156.356 4.20348C156.356 4.20348 156.356 4.19153 156.356 4.18555C156.356 4.18555 156.356 4.1975 156.356 4.20348ZM139.931 4.22142C139.79 4.30512 139.66 4.37687 139.52 4.43666C139.66 4.38285 139.801 4.30512 139.931 4.22142ZM84.0763 7.36624C84.0114 7.19884 83.6868 7.00154 83.254 6.80424C83.6868 7.00752 84.0114 7.19884 84.0763 7.37222L84.0763 7.36624ZM83.2972 6.62488C83.2972 6.62488 83.2972 6.6189 83.2972 6.61292L83.2972 6.62488ZM82.0204 5.79981C82.6588 5.9134 82.9942 6.15853 83.2107 6.45149C82.9942 6.15255 82.648 5.9134 82.0204 5.79981C81.9014 4.83125 80.722 4.43665 79.4127 4.04205C80.722 4.44263 81.9014 4.83125 82.0204 5.79981ZM54.2339 8.87289C53.2168 9.00442 52.5567 9.33923 52.3728 9.93711C53.2709 9.97298 54.1582 10.0089 55.0562 10.0447C56.1383 10.0686 57.2095 10.0926 58.2915 10.1105C57.2095 10.0866 56.1274 10.0627 55.0562 10.0447C54.1582 10.0089 53.2709 9.97298 52.3728 9.93711C51.518 9.967 50.6632 10.0029 49.8084 10.0328C50.6632 9.9969 51.518 9.967 52.3728 9.93113C52.5567 9.33325 53.2276 9.00442 54.2339 8.86691L54.2339 8.87289ZM9.44864 14.7919C7.63083 14.2657 5.9104 13.7695 4.20079 13.2673C5.9104 13.7635 7.63083 14.2598 9.44864 14.7919Z" fill="#E5C996"/>
<path d="M0.749115 21.1174C1.24684 21.6615 14.6857 22.5105 20.7018 22.1159C24.0993 22.7556 27.6592 22.4507 31.1434 22.5523C44.9501 22.9529 58.7676 23.0964 72.5959 22.9708C75.7122 23.2578 78.8284 23.2877 81.9663 23.0964C85.1367 23.5926 88.2962 23.3714 91.4449 23.0306C92.6351 23.2877 93.8146 23.2698 94.9832 22.9888C99.69 23.0844 104.386 23.3953 109.104 23.0725C110.305 23.2518 111.495 23.3236 112.653 23.0127C117.013 23.6404 142.149 22.9529 149.225 22.911C149.539 22.9947 149.788 22.9649 149.994 22.8154L150.015 22.8034C150.383 22.8333 150.74 22.8632 151.108 22.8931C153.196 23.2279 155.285 23.204 157.384 22.911C158.574 23.0784 159.754 23.0306 160.922 22.8513C162.946 23.1801 164.947 23.0665 166.927 22.7616C169.232 23.2279 171.623 22.7616 173.961 22.9409C186.588 23.2339 199.226 23.5388 211.853 23.8079C219.038 23.9573 226.223 24.2264 233.407 23.9753C238.071 23.8138 238.709 23.4491 238.482 21.1294C238.45 20.8245 238.634 20.5076 238.504 20.2206C237.941 18.8814 238.655 18.1041 241.533 17.9307C244.206 17.7633 244.725 16.7051 244.92 15.4794C245.277 13.1178 244.357 10.8519 243.73 8.5381C243.308 6.95372 242.291 6.1705 239.315 6.01506C238.352 5.96125 237.4 5.81178 236.448 5.70416C235.68 5.24977 234.803 5.33945 233.905 5.5786C229.674 5.50088 225.541 4.7057 221.245 5.08834C217.328 4.38285 213.325 4.28121 209.256 4.59211C208.077 4.39481 206.919 4.4247 205.772 4.65189C203.468 3.85672 200.99 4.16761 198.544 4.34698C196.283 4.14968 194.011 4.09587 191.738 4.30513C187.389 3.85672 183.028 3.67736 178.667 4.28719C177.51 4.1138 176.341 3.94042 175.118 4.10185C174.372 3.70127 173.614 3.39635 172.76 4.03608C172.338 4.02412 171.926 4.01814 171.504 4.00618C170.898 3.66539 170.228 3.6355 169.481 3.88063C169.005 3.92248 168.529 3.96433 168.053 4.00618C167.306 3.56974 166.484 3.33656 165.434 3.76703C162.361 3.42026 159.288 3.86269 156.215 3.74312C152.742 2.77456 149.171 3.54582 145.644 3.61158C144.064 3.57571 142.495 3.53984 140.915 3.50397C140.735 3.6355 140.735 3.6355 140.915 3.50397C139.628 3.0436 138.481 3.4083 137.323 3.67137C136.144 3.67137 134.975 3.67137 133.796 3.67137C125.28 3.61158 116.764 3.65343 108.26 3.47407C97.3745 3.24688 86.5109 2.82238 75.6364 2.51148C66.569 2.24842 44.0195 0.640129 41.8338 1.80599C39.897 1.75218 37.971 1.69837 36.0341 1.64456C32.6041 0.687958 28.8927 1.50107 25.3545 1.20213C24.1642 0.986896 22.9849 1.08853 21.8163 1.24398C17.3799 0.729808 11.4179 0.795575 8.11774 0.957001C4.81755 1.11843 8.25841 5.44705 5.44513 7.151C3.22696 7.82062 5.46677 9.39902 3.23779 10.0686C2.31806 10.1464 0.911409 9.79959 1.00879 10.7622C1.10617 11.8682 1.25766 12.9803 0.662553 14.0625C-0.203078 15.6468 -0.148971 17.2372 0.413681 18.8395C-0.0407711 19.2939 0.359574 19.7243 0.543518 20.1608C-0.0624081 20.2863 0.727463 21.1174 0.727463 21.1174L0.749115 21.1174ZM26.772 6.56508C27.0316 6.57704 27.2805 6.59498 27.5402 6.61291C28.0271 8.04782 29.5528 8.93268 32.0306 9.29738C29.5528 8.93268 28.0379 8.04782 27.5402 6.61291C27.2913 6.589 27.0316 6.57704 26.7828 6.56508C25.9604 6.56508 25.1489 6.55313 24.3266 6.55312C24.3266 6.6727 24.3374 6.79825 24.3266 6.92381C24.3374 6.80423 24.3266 6.67868 24.3266 6.55312C25.1489 6.55313 25.9604 6.56508 26.7828 6.56508L26.772 6.56508ZM60.0769 9.73383C60.1093 9.686 60.131 9.63817 60.1526 9.59034C60.1742 9.54251 60.1959 9.50066 60.1959 9.45283C60.1959 9.49468 60.1742 9.54251 60.1526 9.59034C60.131 9.63817 60.0985 9.686 60.0769 9.73383ZM61.8189 10.1225C61.8189 9.4887 62.2085 8.8131 61.6241 8.2511C62.2085 8.81908 61.8189 9.4887 61.8189 10.1225ZM66.5582 9.85341C66.6231 9.70394 66.6231 9.56643 66.5799 9.43489C66.6231 9.56643 66.6231 9.70394 66.5582 9.85939C65.9415 9.89526 65.3355 9.93711 64.7188 9.97896C65.3247 9.93711 65.9415 9.89526 66.5474 9.85341L66.5582 9.85341ZM130.16 8.01793C130.149 8.17338 129.879 8.31687 129.716 8.46634C129.879 8.31687 130.149 8.1674 130.16 8.01793ZM117.241 10.254C117.435 10.2241 117.63 10.1942 117.814 10.1643C117.619 10.1942 117.435 10.2241 117.241 10.254ZM66.7422 10.7682C64.8161 11.1628 63.0308 11.7008 61.1264 12.1194C63.0416 11.7068 64.8161 11.1628 66.7422 10.7682ZM60.7044 12.209C60.4123 12.2688 60.1093 12.3286 59.8064 12.3764C60.1093 12.3226 60.4123 12.2688 60.7044 12.209ZM36.586 9.78166C35.9259 9.66806 35.2442 9.59034 34.5409 9.53055C35.2334 9.59034 35.9259 9.66806 36.586 9.78166ZM24.3157 6.94175C24.3049 7.04338 24.2724 7.14502 24.2075 7.22873C24.2724 7.13904 24.3049 7.04338 24.3157 6.94175ZM90.0491 21.3805C89.692 21.6854 89.573 22.0023 90.298 22.3789C89.573 22.0023 89.692 21.6794 90.0491 21.3745L90.0491 21.3805ZM90.9255 20.7647C90.6659 20.962 90.3304 21.1533 90.0924 21.3446C90.3304 21.1473 90.6659 20.956 90.9255 20.7647ZM101.313 21.3805C101.291 21.3446 101.248 21.3087 101.216 21.2669C101.248 21.3027 101.291 21.3446 101.313 21.3805C101.4 21.3685 101.529 21.3685 101.605 21.3566C101.529 21.3745 101.41 21.3685 101.313 21.3805ZM198.761 18.8216C198.912 18.9232 199.01 19.0428 199.064 19.1863C199.096 19.258 199.107 19.3417 199.118 19.4254C199.118 19.3357 199.085 19.258 199.064 19.1863C199.01 19.0368 198.901 18.9172 198.761 18.8216ZM185.701 18.714C185.603 18.5525 185.495 18.4688 185.419 18.4748C185.506 18.4688 185.603 18.5465 185.701 18.714ZM170.238 4.51438C170.173 4.49644 170.119 4.47253 170.065 4.43666C170.119 4.46655 170.184 4.49644 170.238 4.51438ZM156.356 4.20348C156.356 4.20348 156.356 4.19153 156.356 4.18555C156.356 4.18555 156.356 4.1975 156.356 4.20348ZM139.931 4.22142C139.79 4.30512 139.66 4.37687 139.52 4.43666C139.66 4.38285 139.801 4.30512 139.931 4.22142ZM84.0763 7.36624C84.0114 7.19884 83.6868 7.00154 83.254 6.80424C83.6868 7.00752 84.0114 7.19884 84.0763 7.37222L84.0763 7.36624ZM83.2972 6.62488C83.2972 6.62488 83.2972 6.6189 83.2972 6.61292L83.2972 6.62488ZM82.0204 5.79981C82.6588 5.9134 82.9942 6.15853 83.2107 6.45149C82.9942 6.15255 82.648 5.9134 82.0204 5.79981C81.9014 4.83125 80.722 4.43665 79.4127 4.04205C80.722 4.44263 81.9014 4.83125 82.0204 5.79981ZM54.2339 8.87289C53.2168 9.00442 52.5567 9.33923 52.3728 9.93711C53.2709 9.97298 54.1582 10.0089 55.0562 10.0447C56.1383 10.0686 57.2095 10.0926 58.2915 10.1105C57.2095 10.0866 56.1274 10.0627 55.0562 10.0447C54.1582 10.0089 53.2709 9.97298 52.3728 9.93711C51.518 9.967 50.6632 10.0029 49.8084 10.0328C50.6632 9.9969 51.518 9.967 52.3728 9.93113C52.5567 9.33325 53.2276 9.00442 54.2339 8.86691L54.2339 8.87289ZM9.44864 14.7919C7.63083 14.2657 5.9104 13.7695 4.20079 13.2673C5.9104 13.7635 7.63083 14.2598 9.44864 14.7919Z" fill="#E5C996"/>
</svg>
