<svg width="134" height="53" viewBox="0 0 134 53" fill="none" xmlns="http://www.w3.org/2000/svg">
<path d="M0.40973 46.2474C0.681946 47.4883 8.03217 49.4246 11.3226 48.5246C13.1809 49.9837 15.1279 49.2882 17.0335 49.52C24.5849 50.4336 32.1423 50.7609 39.7055 50.4746C41.4099 51.1291 43.1143 51.1973 44.8306 50.7609C46.5646 51.8927 48.2926 51.3882 50.0148 50.6109C50.6658 51.1973 51.3108 51.1564 51.95 50.5155C54.5243 50.7336 57.0928 51.4427 59.673 50.7064C60.3299 51.1154 60.9809 51.2791 61.6141 50.57C63.9991 52.0018 77.7467 50.4336 81.6171 50.3382C81.7888 50.5291 81.9249 50.4609 82.0373 50.12L82.0492 50.0927C82.2504 50.1609 82.4457 50.2291 82.6469 50.2973C83.7891 51.0609 84.9312 51.0064 86.0793 50.3382C86.7303 50.72 87.3754 50.6109 88.0145 50.2018C89.1212 50.9518 90.2161 50.6927 91.2991 49.9973C92.5596 51.0609 93.8675 49.9973 95.1458 50.4064C102.052 51.0745 108.964 51.77 115.871 52.3836C119.8 52.7245 123.73 53.3381 127.66 52.7654C130.21 52.3972 130.559 51.5654 130.435 46.2747C130.417 45.5792 130.518 44.8565 130.447 44.202C130.139 41.1475 130.53 39.3748 132.104 38.9794C133.566 38.5976 133.85 36.184 133.956 33.3886C134.152 28.0024 133.649 22.8343 133.305 17.5572C133.075 13.9437 132.518 12.1573 130.891 11.8028C130.364 11.6801 129.843 11.3392 129.322 11.0937C128.902 10.0574 128.423 10.2619 127.932 10.8074C125.618 10.6301 123.357 8.81651 121.008 9.68922C118.865 8.08016 116.676 7.84835 114.45 8.55743C113.805 8.10744 113.172 8.17562 112.545 8.69378C111.284 6.88019 109.929 7.58927 108.592 7.99835C107.355 7.54836 106.112 7.42564 104.869 7.9029C102.49 6.8802 100.105 6.47112 97.7201 7.86199C97.0869 7.46655 96.4478 7.0711 95.779 7.43927C95.3707 6.52566 94.9564 5.83022 94.4889 7.28928C94.2581 7.262 94.0332 7.24837 93.8024 7.2211C93.471 6.44384 93.1041 6.37566 92.6957 6.93474C92.4353 7.03019 92.1749 7.12564 91.9145 7.2211C91.5062 6.22567 91.0564 5.69386 90.4824 6.67565C88.8016 5.88476 87.1209 6.89383 85.4402 6.62111C83.5405 4.41207 81.5875 6.17112 79.6583 6.32112C78.7942 6.2393 77.9361 6.15748 77.0721 6.07567C76.9734 6.37566 76.9734 6.37566 77.0721 6.07567C76.3678 5.02569 75.7405 5.85749 75.1073 6.45748C74.4622 6.45748 73.8231 6.45748 73.178 6.45748C68.5205 6.32112 63.863 6.41657 59.2114 6.00749C53.2579 5.48932 47.3162 4.52116 41.3685 3.81208C36.4092 3.2121 24.076 -0.455992 22.8805 2.20303C21.8212 2.08031 20.7678 1.95758 19.7085 1.83486C17.8325 -0.346903 15.8026 1.5076 13.8674 0.825795C13.2164 0.334901 12.5713 0.566712 11.9322 0.921246C9.50576 -0.251449 6.24492 -0.101455 4.43992 0.26672C2.63491 0.634891 4.51685 10.5074 2.97815 14.3936C1.76496 15.9209 2.98999 19.5208 1.77088 21.048C1.26784 21.2253 0.498492 20.4344 0.55176 22.6298C0.605013 25.1525 0.687868 27.6888 0.362383 30.1569C-0.111067 33.7704 -0.0814653 37.3976 0.226274 41.0521C-0.0222921 42.0884 0.196671 43.0702 0.297273 44.0656C-0.0341332 44.352 0.397889 46.2474 0.397889 46.2474L0.40973 46.2474ZM14.6426 13.0573C14.7847 13.0846 14.9208 13.1255 15.0628 13.1664C15.3291 16.439 16.1636 18.4572 17.5188 19.289C16.1636 18.4572 15.335 16.439 15.0628 13.1664C14.9267 13.1118 14.7847 13.0846 14.6485 13.0573C14.1988 13.0573 13.7549 13.03 13.3051 13.03C13.3051 13.3028 13.3111 13.5891 13.3051 13.8755C13.3111 13.6027 13.3051 13.3164 13.3051 13.03C13.7549 13.03 14.1988 13.0573 14.6485 13.0573L14.6426 13.0573ZM32.8584 20.2844C32.8761 20.1753 32.8879 20.0662 32.8998 19.9571C32.9116 19.848 32.9235 19.7526 32.9235 19.6435C32.9235 19.739 32.9116 19.848 32.8998 19.9571C32.8879 20.0662 32.8702 20.1753 32.8584 20.2844ZM33.8112 21.1707C33.8112 19.7253 34.0242 18.1845 33.7046 16.9027C34.0242 18.1981 33.8112 19.7253 33.8112 21.1707ZM36.4033 20.5571C36.4388 20.2162 36.4388 19.9026 36.4151 19.6026C36.4388 19.9026 36.4388 20.2162 36.4033 20.5708C36.0659 20.6526 35.7345 20.748 35.3972 20.8435C35.7286 20.748 36.0659 20.6526 36.3974 20.5571L36.4033 20.5571ZM71.1895 16.3709C71.1836 16.7254 71.0357 17.0527 70.9469 17.3936C71.0357 17.0527 71.1836 16.7118 71.1895 16.3709ZM64.1234 21.4707C64.2299 21.4026 64.3364 21.3344 64.4371 21.2662C64.3305 21.3344 64.2299 21.4026 64.1234 21.4707ZM36.5039 22.6434C35.4505 23.5434 34.474 24.7706 33.4324 25.7252C34.4799 24.7843 35.4505 23.5434 36.5039 22.6434ZM33.2016 25.9297C33.0418 26.0661 32.8761 26.2024 32.7104 26.3115C32.8761 26.1888 33.0418 26.0661 33.2016 25.9297ZM20.0103 20.3935C19.6493 20.1344 19.2765 19.9571 18.8918 19.8208C19.2705 19.9571 19.6493 20.1344 20.0103 20.3935ZM13.2992 13.9164C13.2933 14.1482 13.2756 14.38 13.24 14.5709C13.2756 14.3664 13.2933 14.1482 13.2992 13.9164ZM49.2514 46.8474C49.0561 47.5428 48.991 48.2655 49.3875 49.1246C48.991 48.2655 49.0561 47.5292 49.2514 46.8337L49.2514 46.8474ZM49.7307 45.4429C49.5887 45.8929 49.4052 46.3292 49.275 46.7656C49.4052 46.3156 49.5887 45.8792 49.7307 45.4429ZM55.412 46.8474C55.4002 46.7656 55.3765 46.6837 55.3588 46.5883C55.3765 46.6701 55.4002 46.7656 55.412 46.8474C55.4594 46.8201 55.5304 46.8201 55.5718 46.7928C55.5304 46.8337 55.4653 46.8201 55.412 46.8474ZM108.71 41.0112C108.793 41.243 108.846 41.5157 108.876 41.843C108.893 42.0066 108.899 42.1975 108.905 42.3884C108.905 42.1839 108.887 42.0066 108.876 41.843C108.846 41.5021 108.787 41.2293 108.71 41.0112ZM101.567 40.7657C101.514 40.3975 101.454 40.2066 101.413 40.2203C101.46 40.2066 101.514 40.3839 101.567 40.7657ZM93.11 8.38015C93.0745 8.33925 93.0449 8.28471 93.0153 8.20289C93.0449 8.27107 93.0804 8.33925 93.11 8.38015ZM85.5171 7.67108C85.5171 7.67108 85.5171 7.64381 85.5171 7.63018C85.5171 7.63018 85.5171 7.65744 85.5171 7.67108ZM76.5335 7.71199C76.4566 7.9029 76.3856 8.06653 76.3087 8.20289C76.3856 8.08016 76.4625 7.9029 76.5335 7.71199ZM45.9846 14.8845C45.9491 14.5027 45.7715 14.0527 45.5348 13.6027C45.7715 14.0664 45.9491 14.5027 45.9846 14.8982L45.9846 14.8845ZM45.5585 13.1937C45.5585 13.1937 45.5585 13.18 45.5585 13.1664L45.5585 13.1937ZM44.8602 11.3119C45.2093 11.571 45.3928 12.1301 45.5111 12.7982C45.3928 12.1164 45.2034 11.571 44.8602 11.3119C44.7951 9.10286 44.15 8.20289 43.4339 7.30291C44.15 8.21652 44.7951 9.10286 44.8602 11.3119ZM29.6626 18.3208C29.1063 18.6208 28.7453 19.3844 28.6447 20.748C29.1359 20.8298 29.6212 20.9117 30.1124 20.9935C30.7042 21.048 31.2901 21.1026 31.8819 21.1435C31.2901 21.0889 30.6983 21.0344 30.1124 20.9935C29.6212 20.9117 29.1359 20.8298 28.6447 20.748C28.1772 20.8162 27.7097 20.898 27.2421 20.9662C27.7097 20.8844 28.1772 20.8162 28.6447 20.7344C28.7453 19.3708 29.1122 18.6208 29.6626 18.3072L29.6626 18.3208ZM5.16783 31.8205C4.1736 30.6205 3.23264 29.4887 2.29758 28.3433C3.23264 29.4751 4.1736 30.6069 5.16783 31.8205Z" fill="#E5C996"/>
<path d="M0.40973 46.2474C0.681946 47.4883 8.03217 49.4246 11.3226 48.5246C13.1809 49.9837 15.1279 49.2882 17.0335 49.52C24.5849 50.4336 32.1423 50.7609 39.7055 50.4746C41.4099 51.1291 43.1143 51.1973 44.8306 50.7609C46.5646 51.8927 48.2926 51.3882 50.0148 50.6109C50.6658 51.1973 51.3108 51.1564 51.95 50.5155C54.5243 50.7336 57.0928 51.4427 59.673 50.7064C60.3299 51.1154 60.9809 51.2791 61.6141 50.57C63.9991 52.0018 77.7467 50.4336 81.6171 50.3382C81.7888 50.5291 81.9249 50.4609 82.0373 50.12L82.0492 50.0927C82.2504 50.1609 82.4457 50.2291 82.6469 50.2973C83.7891 51.0609 84.9312 51.0064 86.0793 50.3382C86.7303 50.72 87.3754 50.6109 88.0145 50.2018C89.1212 50.9518 90.2161 50.6927 91.2991 49.9973C92.5596 51.0609 93.8675 49.9973 95.1458 50.4064C102.052 51.0745 108.964 51.77 115.871 52.3836C119.8 52.7245 123.73 53.3381 127.66 52.7654C130.21 52.3972 130.559 51.5654 130.435 46.2747C130.417 45.5792 130.518 44.8565 130.447 44.202C130.139 41.1475 130.53 39.3748 132.104 38.9794C133.566 38.5976 133.85 36.184 133.956 33.3886C134.152 28.0024 133.649 22.8343 133.305 17.5572C133.075 13.9437 132.518 12.1573 130.891 11.8028C130.364 11.6801 129.843 11.3392 129.322 11.0937C128.902 10.0574 128.423 10.2619 127.932 10.8074C125.618 10.6301 123.357 8.81651 121.008 9.68922C118.865 8.08016 116.676 7.84835 114.45 8.55743C113.805 8.10744 113.172 8.17562 112.545 8.69378C111.284 6.88019 109.929 7.58927 108.592 7.99835C107.355 7.54836 106.112 7.42564 104.869 7.9029C102.49 6.8802 100.105 6.47112 97.7201 7.86199C97.0869 7.46655 96.4478 7.0711 95.779 7.43927C95.3707 6.52566 94.9564 5.83022 94.4889 7.28928C94.2581 7.262 94.0332 7.24837 93.8024 7.2211C93.471 6.44384 93.1041 6.37566 92.6957 6.93474C92.4353 7.03019 92.1749 7.12564 91.9145 7.2211C91.5062 6.22567 91.0564 5.69386 90.4824 6.67565C88.8016 5.88476 87.1209 6.89383 85.4402 6.62111C83.5405 4.41207 81.5875 6.17112 79.6583 6.32112C78.7942 6.2393 77.9361 6.15748 77.0721 6.07567C76.9734 6.37566 76.9734 6.37566 77.0721 6.07567C76.3678 5.02569 75.7405 5.85749 75.1073 6.45748C74.4622 6.45748 73.8231 6.45748 73.178 6.45748C68.5205 6.32112 63.863 6.41657 59.2114 6.00749C53.2579 5.48932 47.3162 4.52116 41.3685 3.81208C36.4092 3.2121 24.076 -0.455992 22.8805 2.20303C21.8212 2.08031 20.7678 1.95758 19.7085 1.83486C17.8325 -0.346903 15.8026 1.5076 13.8674 0.825795C13.2164 0.334901 12.5713 0.566712 11.9322 0.921246C9.50576 -0.251449 6.24492 -0.101455 4.43992 0.26672C2.63491 0.634891 4.51685 10.5074 2.97815 14.3936C1.76496 15.9209 2.98999 19.5208 1.77088 21.048C1.26784 21.2253 0.498492 20.4344 0.55176 22.6298C0.605013 25.1525 0.687868 27.6888 0.362383 30.1569C-0.111067 33.7704 -0.0814653 37.3976 0.226274 41.0521C-0.0222921 42.0884 0.196671 43.0702 0.297273 44.0656C-0.0341332 44.352 0.397889 46.2474 0.397889 46.2474L0.40973 46.2474ZM14.6426 13.0573C14.7847 13.0846 14.9208 13.1255 15.0628 13.1664C15.3291 16.439 16.1636 18.4572 17.5188 19.289C16.1636 18.4572 15.335 16.439 15.0628 13.1664C14.9267 13.1118 14.7847 13.0846 14.6485 13.0573C14.1988 13.0573 13.7549 13.03 13.3051 13.03C13.3051 13.3028 13.3111 13.5891 13.3051 13.8755C13.3111 13.6027 13.3051 13.3164 13.3051 13.03C13.7549 13.03 14.1988 13.0573 14.6485 13.0573L14.6426 13.0573ZM32.8584 20.2844C32.8761 20.1753 32.8879 20.0662 32.8998 19.9571C32.9116 19.848 32.9235 19.7526 32.9235 19.6435C32.9235 19.739 32.9116 19.848 32.8998 19.9571C32.8879 20.0662 32.8702 20.1753 32.8584 20.2844ZM33.8112 21.1707C33.8112 19.7253 34.0242 18.1845 33.7046 16.9027C34.0242 18.1981 33.8112 19.7253 33.8112 21.1707ZM36.4033 20.5571C36.4388 20.2162 36.4388 19.9026 36.4151 19.6026C36.4388 19.9026 36.4388 20.2162 36.4033 20.5708C36.0659 20.6526 35.7345 20.748 35.3972 20.8435C35.7286 20.748 36.0659 20.6526 36.3974 20.5571L36.4033 20.5571ZM71.1895 16.3709C71.1836 16.7254 71.0357 17.0527 70.9469 17.3936C71.0357 17.0527 71.1836 16.7118 71.1895 16.3709ZM64.1234 21.4707C64.2299 21.4026 64.3364 21.3344 64.4371 21.2662C64.3305 21.3344 64.2299 21.4026 64.1234 21.4707ZM36.5039 22.6434C35.4505 23.5434 34.474 24.7706 33.4324 25.7252C34.4799 24.7843 35.4505 23.5434 36.5039 22.6434ZM33.2016 25.9297C33.0418 26.0661 32.8761 26.2024 32.7104 26.3115C32.8761 26.1888 33.0418 26.0661 33.2016 25.9297ZM20.0103 20.3935C19.6493 20.1344 19.2765 19.9571 18.8918 19.8208C19.2705 19.9571 19.6493 20.1344 20.0103 20.3935ZM13.2992 13.9164C13.2933 14.1482 13.2756 14.38 13.24 14.5709C13.2756 14.3664 13.2933 14.1482 13.2992 13.9164ZM49.2514 46.8474C49.0561 47.5428 48.991 48.2655 49.3875 49.1246C48.991 48.2655 49.0561 47.5292 49.2514 46.8337L49.2514 46.8474ZM49.7307 45.4429C49.5887 45.8929 49.4052 46.3292 49.275 46.7656C49.4052 46.3156 49.5887 45.8792 49.7307 45.4429ZM55.412 46.8474C55.4002 46.7656 55.3765 46.6837 55.3588 46.5883C55.3765 46.6701 55.4002 46.7656 55.412 46.8474C55.4594 46.8201 55.5304 46.8201 55.5718 46.7928C55.5304 46.8337 55.4653 46.8201 55.412 46.8474ZM108.71 41.0112C108.793 41.243 108.846 41.5157 108.876 41.843C108.893 42.0066 108.899 42.1975 108.905 42.3884C108.905 42.1839 108.887 42.0066 108.876 41.843C108.846 41.5021 108.787 41.2293 108.71 41.0112ZM101.567 40.7657C101.514 40.3975 101.454 40.2066 101.413 40.2203C101.46 40.2066 101.514 40.3839 101.567 40.7657ZM93.11 8.38015C93.0745 8.33925 93.0449 8.28471 93.0153 8.20289C93.0449 8.27107 93.0804 8.33925 93.11 8.38015ZM85.5171 7.67108C85.5171 7.67108 85.5171 7.64381 85.5171 7.63018C85.5171 7.63018 85.5171 7.65744 85.5171 7.67108ZM76.5335 7.71199C76.4566 7.9029 76.3856 8.06653 76.3087 8.20289C76.3856 8.08016 76.4625 7.9029 76.5335 7.71199ZM45.9846 14.8845C45.9491 14.5027 45.7715 14.0527 45.5348 13.6027C45.7715 14.0664 45.9491 14.5027 45.9846 14.8982L45.9846 14.8845ZM45.5585 13.1937C45.5585 13.1937 45.5585 13.18 45.5585 13.1664L45.5585 13.1937ZM44.8602 11.3119C45.2093 11.571 45.3928 12.1301 45.5111 12.7982C45.3928 12.1164 45.2034 11.571 44.8602 11.3119C44.7951 9.10286 44.15 8.20289 43.4339 7.30291C44.15 8.21652 44.7951 9.10286 44.8602 11.3119ZM29.6626 18.3208C29.1063 18.6208 28.7453 19.3844 28.6447 20.748C29.1359 20.8298 29.6212 20.9117 30.1124 20.9935C30.7042 21.048 31.2901 21.1026 31.8819 21.1435C31.2901 21.0889 30.6983 21.0344 30.1124 20.9935C29.6212 20.9117 29.1359 20.8298 28.6447 20.748C28.1772 20.8162 27.7097 20.898 27.2421 20.9662C27.7097 20.8844 28.1772 20.8162 28.6447 20.7344C28.7453 19.3708 29.1122 18.6208 29.6626 18.3072L29.6626 18.3208ZM5.16783 31.8205C4.1736 30.6205 3.23264 29.4887 2.29758 28.3433C3.23264 29.4751 4.1736 30.6069 5.16783 31.8205Z" fill="#E5C996"/>
<path d="M0.40973 46.2474C0.681946 47.4883 8.03217 49.4246 11.3226 48.5246C13.1809 49.9837 15.1279 49.2882 17.0335 49.52C24.5849 50.4336 32.1423 50.7609 39.7055 50.4746C41.4099 51.1291 43.1143 51.1973 44.8306 50.7609C46.5646 51.8927 48.2926 51.3882 50.0148 50.6109C50.6658 51.1973 51.3108 51.1564 51.95 50.5155C54.5243 50.7336 57.0928 51.4427 59.673 50.7064C60.3299 51.1154 60.9809 51.2791 61.6141 50.57C63.9991 52.0018 77.7467 50.4336 81.6171 50.3382C81.7888 50.5291 81.9249 50.4609 82.0373 50.12L82.0492 50.0927C82.2504 50.1609 82.4457 50.2291 82.6469 50.2973C83.7891 51.0609 84.9312 51.0064 86.0793 50.3382C86.7303 50.72 87.3754 50.6109 88.0145 50.2018C89.1212 50.9518 90.2161 50.6927 91.2991 49.9973C92.5596 51.0609 93.8675 49.9973 95.1458 50.4064C102.052 51.0745 108.964 51.77 115.871 52.3836C119.8 52.7245 123.73 53.3381 127.66 52.7654C130.21 52.3972 130.559 51.5654 130.435 46.2747C130.417 45.5792 130.518 44.8565 130.447 44.202C130.139 41.1475 130.53 39.3748 132.104 38.9794C133.566 38.5976 133.85 36.184 133.956 33.3886C134.152 28.0024 133.649 22.8343 133.305 17.5572C133.075 13.9437 132.518 12.1573 130.891 11.8028C130.364 11.6801 129.843 11.3392 129.322 11.0937C128.902 10.0574 128.423 10.2619 127.932 10.8074C125.618 10.6301 123.357 8.81651 121.008 9.68922C118.865 8.08016 116.676 7.84835 114.45 8.55743C113.805 8.10744 113.172 8.17562 112.545 8.69378C111.284 6.88019 109.929 7.58927 108.592 7.99835C107.355 7.54836 106.112 7.42564 104.869 7.9029C102.49 6.8802 100.105 6.47112 97.7201 7.86199C97.0869 7.46655 96.4478 7.0711 95.779 7.43927C95.3707 6.52566 94.9564 5.83022 94.4889 7.28928C94.2581 7.262 94.0332 7.24837 93.8024 7.2211C93.471 6.44384 93.1041 6.37566 92.6957 6.93474C92.4353 7.03019 92.1749 7.12564 91.9145 7.2211C91.5062 6.22567 91.0564 5.69386 90.4824 6.67565C88.8016 5.88476 87.1209 6.89383 85.4402 6.62111C83.5405 4.41207 81.5875 6.17112 79.6583 6.32112C78.7942 6.2393 77.9361 6.15748 77.0721 6.07567C76.9734 6.37566 76.9734 6.37566 77.0721 6.07567C76.3678 5.02569 75.7405 5.85749 75.1073 6.45748C74.4622 6.45748 73.8231 6.45748 73.178 6.45748C68.5205 6.32112 63.863 6.41657 59.2114 6.00749C53.2579 5.48932 47.3162 4.52116 41.3685 3.81208C36.4092 3.2121 24.076 -0.455992 22.8805 2.20303C21.8212 2.08031 20.7678 1.95758 19.7085 1.83486C17.8325 -0.346903 15.8026 1.5076 13.8674 0.825795C13.2164 0.334901 12.5713 0.566712 11.9322 0.921246C9.50576 -0.251449 6.24492 -0.101455 4.43992 0.26672C2.63491 0.634891 4.51685 10.5074 2.97815 14.3936C1.76496 15.9209 2.98999 19.5208 1.77088 21.048C1.26784 21.2253 0.498492 20.4344 0.55176 22.6298C0.605013 25.1525 0.687868 27.6888 0.362383 30.1569C-0.111067 33.7704 -0.0814653 37.3976 0.226274 41.0521C-0.0222921 42.0884 0.196671 43.0702 0.297273 44.0656C-0.0341332 44.352 0.397889 46.2474 0.397889 46.2474L0.40973 46.2474ZM14.6426 13.0573C14.7847 13.0846 14.9208 13.1255 15.0628 13.1664C15.3291 16.439 16.1636 18.4572 17.5188 19.289C16.1636 18.4572 15.335 16.439 15.0628 13.1664C14.9267 13.1118 14.7847 13.0846 14.6485 13.0573C14.1988 13.0573 13.7549 13.03 13.3051 13.03C13.3051 13.3028 13.3111 13.5891 13.3051 13.8755C13.3111 13.6027 13.3051 13.3164 13.3051 13.03C13.7549 13.03 14.1988 13.0573 14.6485 13.0573L14.6426 13.0573ZM32.8584 20.2844C32.8761 20.1753 32.8879 20.0662 32.8998 19.9571C32.9116 19.848 32.9235 19.7526 32.9235 19.6435C32.9235 19.739 32.9116 19.848 32.8998 19.9571C32.8879 20.0662 32.8702 20.1753 32.8584 20.2844ZM33.8112 21.1707C33.8112 19.7253 34.0242 18.1845 33.7046 16.9027C34.0242 18.1981 33.8112 19.7253 33.8112 21.1707ZM36.4033 20.5571C36.4388 20.2162 36.4388 19.9026 36.4151 19.6026C36.4388 19.9026 36.4388 20.2162 36.4033 20.5708C36.0659 20.6526 35.7345 20.748 35.3972 20.8435C35.7286 20.748 36.0659 20.6526 36.3974 20.5571L36.4033 20.5571ZM71.1895 16.3709C71.1836 16.7254 71.0357 17.0527 70.9469 17.3936C71.0357 17.0527 71.1836 16.7118 71.1895 16.3709ZM64.1234 21.4707C64.2299 21.4026 64.3364 21.3344 64.4371 21.2662C64.3305 21.3344 64.2299 21.4026 64.1234 21.4707ZM36.5039 22.6434C35.4505 23.5434 34.474 24.7706 33.4324 25.7252C34.4799 24.7843 35.4505 23.5434 36.5039 22.6434ZM33.2016 25.9297C33.0418 26.0661 32.8761 26.2024 32.7104 26.3115C32.8761 26.1888 33.0418 26.0661 33.2016 25.9297ZM20.0103 20.3935C19.6493 20.1344 19.2765 19.9571 18.8918 19.8208C19.2705 19.9571 19.6493 20.1344 20.0103 20.3935ZM13.2992 13.9164C13.2933 14.1482 13.2756 14.38 13.24 14.5709C13.2756 14.3664 13.2933 14.1482 13.2992 13.9164ZM49.2514 46.8474C49.0561 47.5428 48.991 48.2655 49.3875 49.1246C48.991 48.2655 49.0561 47.5292 49.2514 46.8337L49.2514 46.8474ZM49.7307 45.4429C49.5887 45.8929 49.4052 46.3292 49.275 46.7656C49.4052 46.3156 49.5887 45.8792 49.7307 45.4429ZM55.412 46.8474C55.4002 46.7656 55.3765 46.6837 55.3588 46.5883C55.3765 46.6701 55.4002 46.7656 55.412 46.8474C55.4594 46.8201 55.5304 46.8201 55.5718 46.7928C55.5304 46.8337 55.4653 46.8201 55.412 46.8474ZM108.71 41.0112C108.793 41.243 108.846 41.5157 108.876 41.843C108.893 42.0066 108.899 42.1975 108.905 42.3884C108.905 42.1839 108.887 42.0066 108.876 41.843C108.846 41.5021 108.787 41.2293 108.71 41.0112ZM101.567 40.7657C101.514 40.3975 101.454 40.2066 101.413 40.2203C101.46 40.2066 101.514 40.3839 101.567 40.7657ZM93.11 8.38015C93.0745 8.33925 93.0449 8.28471 93.0153 8.20289C93.0449 8.27107 93.0804 8.33925 93.11 8.38015ZM85.5171 7.67108C85.5171 7.67108 85.5171 7.64381 85.5171 7.63018C85.5171 7.63018 85.5171 7.65744 85.5171 7.67108ZM76.5335 7.71199C76.4566 7.9029 76.3856 8.06653 76.3087 8.20289C76.3856 8.08016 76.4625 7.9029 76.5335 7.71199ZM45.9846 14.8845C45.9491 14.5027 45.7715 14.0527 45.5348 13.6027C45.7715 14.0664 45.9491 14.5027 45.9846 14.8982L45.9846 14.8845ZM45.5585 13.1937C45.5585 13.1937 45.5585 13.18 45.5585 13.1664L45.5585 13.1937ZM44.8602 11.3119C45.2093 11.571 45.3928 12.1301 45.5111 12.7982C45.3928 12.1164 45.2034 11.571 44.8602 11.3119C44.7951 9.10286 44.15 8.20289 43.4339 7.30291C44.15 8.21652 44.7951 9.10286 44.8602 11.3119ZM29.6626 18.3208C29.1063 18.6208 28.7453 19.3844 28.6447 20.748C29.1359 20.8298 29.6212 20.9117 30.1124 20.9935C30.7042 21.048 31.2901 21.1026 31.8819 21.1435C31.2901 21.0889 30.6983 21.0344 30.1124 20.9935C29.6212 20.9117 29.1359 20.8298 28.6447 20.748C28.1772 20.8162 27.7097 20.898 27.2421 20.9662C27.7097 20.8844 28.1772 20.8162 28.6447 20.7344C28.7453 19.3708 29.1122 18.6208 29.6626 18.3072L29.6626 18.3208ZM5.16783 31.8205C4.1736 30.6205 3.23264 29.4887 2.29758 28.3433C3.23264 29.4751 4.1736 30.6069 5.16783 31.8205Z" fill="#E5C996"/>
</svg>
