<svg width="536" height="32" viewBox="0 0 536 32" fill="none" xmlns="http://www.w3.org/2000/svg">
<path d="M20.968 30.7176C21.0085 30.3794 20.8058 29.8321 21.1032 29.7327C24.2665 28.688 20.4543 25.6336 19.5756 25.2556C18.4535 24.778 17.6559 23.7731 17.5748 22.9673C17.3585 20.9078 8.34164 19.7238 8.04423 15.973C7.23312 15.7342 5.86775 15.4159 4.66459 14.9781C-0.45894 13.0778 -1.14839 10.3518 1.55533 7.12824C2.86663 5.56623 2.60977 3.6361 3.0694 1.82536C7.92257 1.44729 10.0585 3.21824 11.5726 2.99936C12.5594 2.86007 16.1689 3.71569 16.8719 3.50676C17.6694 3.26798 18.9402 3.37742 19.9541 3.49681C25.4156 4.12361 30.3904 2.69093 35.6491 2.43226C36.3791 2.39246 47.8023 2.91976 52.9258 3.01925C60.699 3.16849 136.241 2.10394 143.838 2.66109C150.624 3.15854 157.113 2.62129 163.724 2.67104C181.65 2.81032 253.636 3.13864 271.561 3.069C285.161 3.00931 298.747 2.482 312.333 2.07409C334.125 1.42739 491.103 0.68121 512.895 0.0444658C517.315 -0.0848728 521.763 0.104161 526.197 0.153906C533.497 0.233499 534.646 0.90009 535.606 4.7902C536.309 7.6456 536.214 10.4115 534.132 13.5554C528.509 13.8439 522.709 14.1324 516.45 14.4508C516.288 15.5751 516.126 16.6595 515.95 17.9628C519.154 18.5001 522.115 18.9876 525.467 19.5448C525.778 22.042 526.265 24.4994 526.319 26.9668C526.413 30.3197 524.129 31.6827 517.734 31.9215C512.868 32.1006 507.947 31.9215 503.067 31.8916C479.261 31.7424 320.282 31.4539 296.476 31.4539C277.064 31.4539 230.614 31.9016 211.188 31.9215C199.413 31.9314 160.615 31.4439 148.84 31.3245C139.107 31.225 61.767 31.4738 52.0471 31.3245C43.1519 31.1952 34.2567 30.7475 25.3615 30.4689C23.915 30.4291 20.9815 30.6977 20.9815 30.6977" fill="#E5C996"/>
</svg>
