<svg width="407" height="45" viewBox="0 0 407 45" fill="none" xmlns="http://www.w3.org/2000/svg">
<path d="M405.092 0.988824C404.194 0.114161 381.76 -0.313377 371.819 0.793061C366.092 -0.0272043 360.219 0.747162 354.418 0.834796C331.433 1.18573 308.463 1.96819 285.51 3.20218C280.296 2.95207 275.116 3.13267 269.929 3.68548C264.598 3.0888 259.379 3.69329 254.194 4.49732C252.183 4.15472 250.227 4.27207 248.323 4.82936C240.492 5.01752 232.651 4.84428 224.857 5.7344C222.839 5.52282 220.852 5.49072 218.97 6.09729C211.645 5.36835 169.985 8.38092 158.236 8.97488C157.704 8.85788 157.294 8.92638 156.972 9.19201L156.938 9.21365C156.323 9.1908 155.726 9.16715 155.111 9.1443C151.598 8.73796 148.133 8.93262 144.685 9.57882C142.686 9.38646 140.733 9.5539 138.815 9.9409C135.411 9.53977 132.101 9.87827 128.852 10.5357C124.963 9.92501 121.052 10.8833 117.147 10.7558C96.134 11.1998 75.1019 11.6245 54.0925 12.1085C42.139 12.3899 30.1699 12.471 18.269 13.4235C10.544 14.0392 9.53156 14.6975 10.2137 18.5671C10.3077 19.0755 10.0438 19.62 10.2971 20.0912C11.4076 22.2933 10.3236 23.6483 5.56561 24.1518C1.14836 24.6301 0.424683 26.4415 0.262178 28.5093C-0.0206936 32.4923 1.80464 36.2205 3.15099 40.0505C4.06005 42.6736 5.85237 43.9105 10.8153 43.9506C12.4219 43.9695 14.0231 44.1494 15.6188 44.2593C16.9546 44.9636 18.3986 44.7485 19.8589 44.2814C26.8964 44.0984 33.8664 45.1246 40.9513 44.1656C47.5501 45.0576 54.2133 44.9315 60.9302 44.1095C62.9151 44.3527 64.8342 44.2169 66.7095 43.7514C70.6421 44.913 74.717 44.2087 78.7553 43.7272C82.5375 43.8903 86.3188 43.8123 90.0656 43.2935C97.3495 43.7227 104.616 43.7004 111.779 42.356C113.725 42.5607 115.689 42.7647 117.698 42.4037C118.991 43.0196 120.289 43.4744 121.625 42.3393C122.327 42.3281 123.011 42.3077 123.714 42.2965C124.765 42.8226 125.883 42.823 127.091 42.357C127.876 42.2517 128.662 42.1463 129.447 42.041C130.744 42.7169 132.141 43.0467 133.828 42.2478C138.978 42.6013 144.024 41.6326 149.144 41.6054C155.04 42.971 160.87 41.4145 166.72 41.0432C169.349 40.9864 171.96 40.9304 174.588 40.8735C174.871 40.6398 174.871 40.6398 174.588 40.8735C176.787 41.5495 178.645 40.8536 180.533 40.3271C182.492 40.2398 184.433 40.1533 186.392 40.066C200.545 39.5358 214.684 38.8353 228.834 38.5062C246.944 38.0811 265.044 37.9881 283.148 37.704C298.243 37.4735 335.909 38.4987 339.387 36.3837C342.611 36.3304 345.817 36.278 349.041 36.2248C354.864 37.5735 360.922 35.9365 366.838 36.1754C368.844 36.4479 370.789 36.1903 372.71 35.8434C380.146 36.3764 390.041 35.8249 395.501 35.3102C400.961 34.7954 394.678 27.7981 399.127 24.7352C402.723 23.4491 398.795 20.9705 402.41 19.6837C403.927 19.4854 406.309 19.9622 406.021 18.3567C405.714 16.5109 405.316 14.659 406.163 12.802C407.392 10.0835 407.094 7.4231 405.948 4.78031C406.644 3.98541 405.922 3.29385 405.559 2.57626C406.549 2.32105 405.128 0.987223 405.128 0.987223L405.092 0.988824ZM363.779 27.2955C363.347 27.2947 362.931 27.2831 362.497 27.2722C361.5 24.9043 358.85 23.5348 354.686 23.1072C358.85 23.5348 361.482 24.9051 362.497 27.2722C362.914 27.2939 363.347 27.2947 363.762 27.2963C365.127 27.2354 366.477 27.1954 367.843 27.1345C367.827 26.9342 367.793 26.7246 367.794 26.5135C367.792 26.7146 367.826 26.9242 367.843 27.1345C366.477 27.1954 365.127 27.2354 363.762 27.2963L363.779 27.2955ZM308.043 24.4521C307.996 24.5347 307.966 24.6164 307.937 24.6981C307.907 24.7799 307.876 24.8516 307.883 24.9317C307.877 24.8616 307.907 24.7799 307.937 24.6981C307.966 24.6164 308.014 24.5339 308.043 24.4521ZM305.099 23.93C305.182 24.9918 304.624 26.1525 305.668 27.0508C304.623 26.1425 305.182 24.9918 305.099 23.93ZM297.262 24.7316C297.174 24.9868 297.192 25.2172 297.281 25.4344C297.192 25.2172 297.174 24.9868 297.261 24.7216C298.281 24.6158 299.282 24.5008 300.301 24.3851C299.3 24.5 298.281 24.6158 297.28 24.7308L297.262 24.7316ZM191.86 32.5148C191.858 32.2536 192.288 31.9932 192.538 31.7307C192.288 31.9932 191.858 32.2636 191.86 32.5148ZM213.026 27.8123C212.706 27.8768 212.387 27.9413 212.085 28.005C212.405 27.9405 212.706 27.8768 213.026 27.8123ZM296.836 23.2127C299.984 22.409 302.879 21.3754 305.987 20.5332C302.86 21.3661 299.984 22.409 296.836 23.2127ZM306.676 20.3517C307.153 20.2299 307.649 20.1073 308.146 20.0048C307.649 20.1174 307.153 20.2299 306.676 20.3517ZM347.056 22.6331C348.167 22.7745 349.31 22.8543 350.486 22.9024C349.328 22.8535 348.167 22.7745 347.056 22.6331ZM367.81 26.4826C367.814 26.3116 367.855 26.1389 367.952 25.9938C367.856 26.1489 367.814 26.3116 367.81 26.4826ZM256.729 7.15857C257.282 6.62129 257.438 6.0816 256.185 5.50422C257.438 6.0816 257.283 6.63131 256.73 7.16859L256.729 7.15857ZM255.354 8.25516C255.76 7.90539 256.292 7.56002 256.662 7.22187C256.293 7.57004 255.761 7.9154 255.354 8.25516ZM238.02 7.99239C238.06 8.05089 238.137 8.10778 238.197 8.17549C238.138 8.1178 238.06 8.05089 238.02 7.99239C237.878 8.01883 237.662 8.02844 237.538 8.05408C237.661 8.01842 237.86 8.01963 238.02 7.99239ZM76.4944 19.4931C76.2295 19.334 76.052 19.1409 75.9433 18.9045C75.8799 18.7867 75.851 18.6473 75.822 18.5078C75.8338 18.6581 75.8979 18.7859 75.9433 18.9045C76.0528 19.1509 76.2482 19.3432 76.4944 19.4931ZM98.2015 18.7066C98.3845 18.9698 98.5752 19.1021 98.7002 19.0864C98.5572 19.1029 98.3853 18.9799 98.2015 18.7066ZM125.75 41.3514C125.86 41.3766 125.953 41.4127 126.047 41.4688C125.954 41.4227 125.842 41.3774 125.75 41.3514ZM148.849 40.8446C148.849 40.8446 148.851 40.8646 148.852 40.8746C148.852 40.8746 148.85 40.8546 148.849 40.8446ZM176.13 39.5986C176.352 39.448 176.558 39.3182 176.784 39.2076C176.558 39.3082 176.334 39.4488 176.13 39.5986ZM268.491 30.1953C268.621 30.4709 269.186 30.7774 269.931 31.076C269.185 30.7674 268.621 30.4709 268.49 30.1853L268.491 30.1953ZM269.883 31.3797C269.883 31.3797 269.883 31.3897 269.884 31.3997L269.883 31.3797ZM272.112 32.6674C271.036 32.5244 270.447 32.1385 270.049 31.6637C270.448 32.1485 271.054 32.5236 272.112 32.6674C272.437 34.2813 274.448 34.8551 276.674 35.4193C274.447 34.8451 272.437 34.2813 272.112 32.6674ZM317.862 25.462C319.534 25.1663 320.586 24.5565 320.813 23.5413C319.317 23.5477 317.838 23.5532 316.342 23.5596C314.542 23.5997 312.759 23.6389 310.959 23.6889C312.76 23.6489 314.56 23.6089 316.342 23.5596C317.838 23.5532 319.317 23.5477 320.813 23.5413C322.229 23.4279 323.644 23.3045 325.06 23.1912C323.645 23.3146 322.229 23.4279 320.814 23.5513C320.587 24.5666 319.516 25.1671 317.863 25.472L317.862 25.462ZM391.473 12.2303C394.562 12.9772 397.484 13.6813 400.39 14.3961C397.485 13.6913 394.562 12.9872 391.473 12.2303Z" fill="#E5C996"/>
<path d="M405.092 0.988824C404.194 0.114161 381.76 -0.313377 371.819 0.793061C366.092 -0.0272043 360.219 0.747162 354.418 0.834796C331.433 1.18573 308.463 1.96819 285.51 3.20218C280.296 2.95207 275.116 3.13267 269.929 3.68548C264.598 3.0888 259.379 3.69329 254.194 4.49732C252.183 4.15472 250.227 4.27207 248.323 4.82936C240.492 5.01752 232.651 4.84428 224.857 5.7344C222.839 5.52282 220.852 5.49072 218.97 6.09729C211.645 5.36835 169.985 8.38092 158.236 8.97488C157.704 8.85788 157.294 8.92638 156.972 9.19201L156.938 9.21365C156.323 9.1908 155.726 9.16715 155.111 9.1443C151.598 8.73796 148.133 8.93262 144.685 9.57882C142.686 9.38646 140.733 9.5539 138.815 9.9409C135.411 9.53977 132.101 9.87827 128.852 10.5357C124.963 9.92501 121.052 10.8833 117.147 10.7558C96.134 11.1998 75.1019 11.6245 54.0925 12.1085C42.139 12.3899 30.1699 12.471 18.269 13.4235C10.544 14.0392 9.53156 14.6975 10.2137 18.5671C10.3077 19.0755 10.0438 19.62 10.2971 20.0912C11.4076 22.2933 10.3236 23.6483 5.56561 24.1518C1.14836 24.6301 0.424683 26.4415 0.262178 28.5093C-0.0206936 32.4923 1.80464 36.2205 3.15099 40.0505C4.06005 42.6736 5.85237 43.9105 10.8153 43.9506C12.4219 43.9695 14.0231 44.1494 15.6188 44.2593C16.9546 44.9636 18.3986 44.7485 19.8589 44.2814C26.8964 44.0984 33.8664 45.1246 40.9513 44.1656C47.5501 45.0576 54.2133 44.9315 60.9302 44.1095C62.9151 44.3527 64.8342 44.2169 66.7095 43.7514C70.6421 44.913 74.717 44.2087 78.7553 43.7272C82.5375 43.8903 86.3188 43.8123 90.0656 43.2935C97.3495 43.7227 104.616 43.7004 111.779 42.356C113.725 42.5607 115.689 42.7647 117.698 42.4037C118.991 43.0196 120.289 43.4744 121.625 42.3393C122.327 42.3281 123.011 42.3077 123.714 42.2965C124.765 42.8226 125.883 42.823 127.091 42.357C127.876 42.2517 128.662 42.1463 129.447 42.041C130.744 42.7169 132.141 43.0467 133.828 42.2478C138.978 42.6013 144.024 41.6326 149.144 41.6054C155.04 42.971 160.87 41.4145 166.72 41.0432C169.349 40.9864 171.96 40.9304 174.588 40.8735C174.871 40.6398 174.871 40.6398 174.588 40.8735C176.787 41.5495 178.645 40.8536 180.533 40.3271C182.492 40.2398 184.433 40.1533 186.392 40.066C200.545 39.5358 214.684 38.8353 228.834 38.5062C246.944 38.0811 265.044 37.9881 283.148 37.704C298.243 37.4735 335.909 38.4987 339.387 36.3837C342.611 36.3304 345.817 36.278 349.041 36.2248C354.864 37.5735 360.922 35.9365 366.838 36.1754C368.844 36.4479 370.789 36.1903 372.71 35.8434C380.146 36.3764 390.041 35.8249 395.501 35.3102C400.961 34.7954 394.678 27.7981 399.127 24.7352C402.723 23.4491 398.795 20.9705 402.41 19.6837C403.927 19.4854 406.309 19.9622 406.021 18.3567C405.714 16.5109 405.316 14.659 406.163 12.802C407.392 10.0835 407.094 7.4231 405.948 4.78031C406.644 3.98541 405.922 3.29385 405.559 2.57626C406.549 2.32105 405.128 0.987223 405.128 0.987223L405.092 0.988824ZM363.779 27.2955C363.347 27.2947 362.931 27.2831 362.497 27.2722C361.5 24.9043 358.85 23.5348 354.686 23.1072C358.85 23.5348 361.482 24.9051 362.497 27.2722C362.914 27.2939 363.347 27.2947 363.762 27.2963C365.127 27.2354 366.477 27.1954 367.843 27.1345C367.827 26.9342 367.793 26.7246 367.794 26.5135C367.792 26.7146 367.826 26.9242 367.843 27.1345C366.477 27.1954 365.127 27.2354 363.762 27.2963L363.779 27.2955ZM308.043 24.4521C307.996 24.5347 307.966 24.6164 307.937 24.6981C307.907 24.7799 307.876 24.8516 307.883 24.9317C307.877 24.8616 307.907 24.7799 307.937 24.6981C307.966 24.6164 308.014 24.5339 308.043 24.4521ZM305.099 23.93C305.182 24.9918 304.624 26.1525 305.668 27.0508C304.623 26.1425 305.182 24.9918 305.099 23.93ZM297.262 24.7316C297.174 24.9868 297.192 25.2172 297.281 25.4344C297.192 25.2172 297.174 24.9868 297.261 24.7216C298.281 24.6158 299.282 24.5008 300.301 24.3851C299.3 24.5 298.281 24.6158 297.28 24.7308L297.262 24.7316ZM191.86 32.5148C191.858 32.2536 192.288 31.9932 192.538 31.7307C192.288 31.9932 191.858 32.2636 191.86 32.5148ZM213.026 27.8123C212.706 27.8768 212.387 27.9413 212.085 28.005C212.405 27.9405 212.706 27.8768 213.026 27.8123ZM296.836 23.2127C299.984 22.409 302.879 21.3754 305.987 20.5332C302.86 21.3661 299.984 22.409 296.836 23.2127ZM306.676 20.3517C307.153 20.2299 307.649 20.1073 308.146 20.0048C307.649 20.1174 307.153 20.2299 306.676 20.3517ZM347.056 22.6331C348.167 22.7745 349.31 22.8543 350.486 22.9024C349.328 22.8535 348.167 22.7745 347.056 22.6331ZM367.81 26.4826C367.814 26.3116 367.855 26.1389 367.952 25.9938C367.856 26.1489 367.814 26.3116 367.81 26.4826ZM256.729 7.15857C257.282 6.62129 257.438 6.0816 256.185 5.50422C257.438 6.0816 257.283 6.63131 256.73 7.16859L256.729 7.15857ZM255.354 8.25516C255.76 7.90539 256.292 7.56002 256.662 7.22187C256.293 7.57004 255.761 7.9154 255.354 8.25516ZM238.02 7.99239C238.06 8.05089 238.137 8.10778 238.197 8.17549C238.138 8.1178 238.06 8.05089 238.02 7.99239C237.878 8.01883 237.662 8.02844 237.538 8.05408C237.661 8.01842 237.86 8.01963 238.02 7.99239ZM76.4944 19.4931C76.2295 19.334 76.052 19.1409 75.9433 18.9045C75.8799 18.7867 75.851 18.6473 75.822 18.5078C75.8338 18.6581 75.8979 18.7859 75.9433 18.9045C76.0528 19.1509 76.2482 19.3432 76.4944 19.4931ZM98.2015 18.7066C98.3845 18.9698 98.5752 19.1021 98.7002 19.0864C98.5572 19.1029 98.3853 18.9799 98.2015 18.7066ZM125.75 41.3514C125.86 41.3766 125.953 41.4127 126.047 41.4688C125.954 41.4227 125.842 41.3774 125.75 41.3514ZM148.849 40.8446C148.849 40.8446 148.851 40.8646 148.852 40.8746C148.852 40.8746 148.85 40.8546 148.849 40.8446ZM176.13 39.5986C176.352 39.448 176.558 39.3182 176.784 39.2076C176.558 39.3082 176.334 39.4488 176.13 39.5986ZM268.491 30.1953C268.621 30.4709 269.186 30.7774 269.931 31.076C269.185 30.7674 268.621 30.4709 268.49 30.1853L268.491 30.1953ZM269.883 31.3797C269.883 31.3797 269.883 31.3897 269.884 31.3997L269.883 31.3797ZM272.112 32.6674C271.036 32.5244 270.447 32.1385 270.049 31.6637C270.448 32.1485 271.054 32.5236 272.112 32.6674C272.437 34.2813 274.448 34.8551 276.674 35.4193C274.447 34.8451 272.437 34.2813 272.112 32.6674ZM317.862 25.462C319.534 25.1663 320.586 24.5565 320.813 23.5413C319.317 23.5477 317.838 23.5532 316.342 23.5596C314.542 23.5997 312.759 23.6389 310.959 23.6889C312.76 23.6489 314.56 23.6089 316.342 23.5596C317.838 23.5532 319.317 23.5477 320.813 23.5413C322.229 23.4279 323.644 23.3045 325.06 23.1912C323.645 23.3146 322.229 23.4279 320.814 23.5513C320.587 24.5666 319.516 25.1671 317.863 25.472L317.862 25.462ZM391.473 12.2303C394.562 12.9772 397.484 13.6813 400.39 14.3961C397.485 13.6913 394.562 12.9872 391.473 12.2303Z" fill="#E5C996"/>
<path d="M405.092 0.988824C404.194 0.114161 381.76 -0.313377 371.819 0.793061C366.092 -0.0272043 360.219 0.747162 354.418 0.834796C331.433 1.18573 308.463 1.96819 285.51 3.20218C280.296 2.95207 275.116 3.13267 269.929 3.68548C264.598 3.0888 259.379 3.69329 254.194 4.49732C252.183 4.15472 250.227 4.27207 248.323 4.82936C240.492 5.01752 232.651 4.84428 224.857 5.7344C222.839 5.52282 220.852 5.49072 218.97 6.09729C211.645 5.36835 169.985 8.38092 158.236 8.97488C157.704 8.85788 157.294 8.92638 156.972 9.19201L156.938 9.21365C156.323 9.1908 155.726 9.16715 155.111 9.1443C151.598 8.73796 148.133 8.93262 144.685 9.57882C142.686 9.38646 140.733 9.5539 138.815 9.9409C135.411 9.53977 132.101 9.87827 128.852 10.5357C124.963 9.92501 121.052 10.8833 117.147 10.7558C96.134 11.1998 75.1019 11.6245 54.0925 12.1085C42.139 12.3899 30.1699 12.471 18.269 13.4235C10.544 14.0392 9.53156 14.6975 10.2137 18.5671C10.3077 19.0755 10.0438 19.62 10.2971 20.0912C11.4076 22.2933 10.3236 23.6483 5.56561 24.1518C1.14836 24.6301 0.424683 26.4415 0.262178 28.5093C-0.0206936 32.4923 1.80464 36.2205 3.15099 40.0505C4.06005 42.6736 5.85237 43.9105 10.8153 43.9506C12.4219 43.9695 14.0231 44.1494 15.6188 44.2593C16.9546 44.9636 18.3986 44.7485 19.8589 44.2814C26.8964 44.0984 33.8664 45.1246 40.9513 44.1656C47.5501 45.0576 54.2133 44.9315 60.9302 44.1095C62.9151 44.3527 64.8342 44.2169 66.7095 43.7514C70.6421 44.913 74.717 44.2087 78.7553 43.7272C82.5375 43.8903 86.3188 43.8123 90.0656 43.2935C97.3495 43.7227 104.616 43.7004 111.779 42.356C113.725 42.5607 115.689 42.7647 117.698 42.4037C118.991 43.0196 120.289 43.4744 121.625 42.3393C122.327 42.3281 123.011 42.3077 123.714 42.2965C124.765 42.8226 125.883 42.823 127.091 42.357C127.876 42.2517 128.662 42.1463 129.447 42.041C130.744 42.7169 132.141 43.0467 133.828 42.2478C138.978 42.6013 144.024 41.6326 149.144 41.6054C155.04 42.971 160.87 41.4145 166.72 41.0432C169.349 40.9864 171.96 40.9304 174.588 40.8735C174.871 40.6398 174.871 40.6398 174.588 40.8735C176.787 41.5495 178.645 40.8536 180.533 40.3271C182.492 40.2398 184.433 40.1533 186.392 40.066C200.545 39.5358 214.684 38.8353 228.834 38.5062C246.944 38.0811 265.044 37.9881 283.148 37.704C298.243 37.4735 335.909 38.4987 339.387 36.3837C342.611 36.3304 345.817 36.278 349.041 36.2248C354.864 37.5735 360.922 35.9365 366.838 36.1754C368.844 36.4479 370.789 36.1903 372.71 35.8434C380.146 36.3764 390.041 35.8249 395.501 35.3102C400.961 34.7954 394.678 27.7981 399.127 24.7352C402.723 23.4491 398.795 20.9705 402.41 19.6837C403.927 19.4854 406.309 19.9622 406.021 18.3567C405.714 16.5109 405.316 14.659 406.163 12.802C407.392 10.0835 407.094 7.4231 405.948 4.78031C406.644 3.98541 405.922 3.29385 405.559 2.57626C406.549 2.32105 405.128 0.987223 405.128 0.987223L405.092 0.988824ZM363.779 27.2955C363.347 27.2947 362.931 27.2831 362.497 27.2722C361.5 24.9043 358.85 23.5348 354.686 23.1072C358.85 23.5348 361.482 24.9051 362.497 27.2722C362.914 27.2939 363.347 27.2947 363.762 27.2963C365.127 27.2354 366.477 27.1954 367.843 27.1345C367.827 26.9342 367.793 26.7246 367.794 26.5135C367.792 26.7146 367.826 26.9242 367.843 27.1345C366.477 27.1954 365.127 27.2354 363.762 27.2963L363.779 27.2955ZM308.043 24.4521C307.996 24.5347 307.966 24.6164 307.937 24.6981C307.907 24.7799 307.876 24.8516 307.883 24.9317C307.877 24.8616 307.907 24.7799 307.937 24.6981C307.966 24.6164 308.014 24.5339 308.043 24.4521ZM305.099 23.93C305.182 24.9918 304.624 26.1525 305.668 27.0508C304.623 26.1425 305.182 24.9918 305.099 23.93ZM297.262 24.7316C297.174 24.9868 297.192 25.2172 297.281 25.4344C297.192 25.2172 297.174 24.9868 297.261 24.7216C298.281 24.6158 299.282 24.5008 300.301 24.3851C299.3 24.5 298.281 24.6158 297.28 24.7308L297.262 24.7316ZM191.86 32.5148C191.858 32.2536 192.288 31.9932 192.538 31.7307C192.288 31.9932 191.858 32.2636 191.86 32.5148ZM213.026 27.8123C212.706 27.8768 212.387 27.9413 212.085 28.005C212.405 27.9405 212.706 27.8768 213.026 27.8123ZM296.836 23.2127C299.984 22.409 302.879 21.3754 305.987 20.5332C302.86 21.3661 299.984 22.409 296.836 23.2127ZM306.676 20.3517C307.153 20.2299 307.649 20.1073 308.146 20.0048C307.649 20.1174 307.153 20.2299 306.676 20.3517ZM347.056 22.6331C348.167 22.7745 349.31 22.8543 350.486 22.9024C349.328 22.8535 348.167 22.7745 347.056 22.6331ZM367.81 26.4826C367.814 26.3116 367.855 26.1389 367.952 25.9938C367.856 26.1489 367.814 26.3116 367.81 26.4826ZM256.729 7.15857C257.282 6.62129 257.438 6.0816 256.185 5.50422C257.438 6.0816 257.283 6.63131 256.73 7.16859L256.729 7.15857ZM255.354 8.25516C255.76 7.90539 256.292 7.56002 256.662 7.22187C256.293 7.57004 255.761 7.9154 255.354 8.25516ZM238.02 7.99239C238.06 8.05089 238.137 8.10778 238.197 8.17549C238.138 8.1178 238.06 8.05089 238.02 7.99239C237.878 8.01883 237.662 8.02844 237.538 8.05408C237.661 8.01842 237.86 8.01963 238.02 7.99239ZM76.4944 19.4931C76.2295 19.334 76.052 19.1409 75.9433 18.9045C75.8799 18.7867 75.851 18.6473 75.822 18.5078C75.8338 18.6581 75.8979 18.7859 75.9433 18.9045C76.0528 19.1509 76.2482 19.3432 76.4944 19.4931ZM98.2015 18.7066C98.3845 18.9698 98.5752 19.1021 98.7002 19.0864C98.5572 19.1029 98.3853 18.9799 98.2015 18.7066ZM125.75 41.3514C125.86 41.3766 125.953 41.4127 126.047 41.4688C125.954 41.4227 125.842 41.3774 125.75 41.3514ZM148.849 40.8446C148.849 40.8446 148.851 40.8646 148.852 40.8746C148.852 40.8746 148.85 40.8546 148.849 40.8446ZM176.13 39.5986C176.352 39.448 176.558 39.3182 176.784 39.2076C176.558 39.3082 176.334 39.4488 176.13 39.5986ZM268.491 30.1953C268.621 30.4709 269.186 30.7774 269.931 31.076C269.185 30.7674 268.621 30.4709 268.49 30.1853L268.491 30.1953ZM269.883 31.3797C269.883 31.3797 269.883 31.3897 269.884 31.3997L269.883 31.3797ZM272.112 32.6674C271.036 32.5244 270.447 32.1385 270.049 31.6637C270.448 32.1485 271.054 32.5236 272.112 32.6674C272.437 34.2813 274.448 34.8551 276.674 35.4193C274.447 34.8451 272.437 34.2813 272.112 32.6674ZM317.862 25.462C319.534 25.1663 320.586 24.5565 320.813 23.5413C319.317 23.5477 317.838 23.5532 316.342 23.5596C314.542 23.5997 312.759 23.6389 310.959 23.6889C312.76 23.6489 314.56 23.6089 316.342 23.5596C317.838 23.5532 319.317 23.5477 320.813 23.5413C322.229 23.4279 323.644 23.3045 325.06 23.1912C323.645 23.3146 322.229 23.4279 320.814 23.5513C320.587 24.5666 319.516 25.1671 317.863 25.472L317.862 25.462ZM391.473 12.2303C394.562 12.9772 397.484 13.6813 400.39 14.3961C397.485 13.6913 394.562 12.9872 391.473 12.2303Z" fill="#E5C996"/>
</svg>
