<svg width="348" height="40" viewBox="0 0 348 40" fill="none" xmlns="http://www.w3.org/2000/svg">
<path d="M1.90515 34.9764C2.60907 35.8895 21.6144 37.3143 30.1225 36.6521C34.9274 37.7257 39.9618 37.214 44.8892 37.3846C64.4148 38.0568 83.9557 38.2977 103.512 38.087C107.919 38.5686 112.326 38.6188 116.764 38.2977C121.247 39.1305 125.716 38.7592 130.169 38.1873C131.852 38.6188 133.52 38.5887 135.172 38.1171C141.829 38.2776 148.47 38.7994 155.142 38.2575C156.84 38.5586 158.524 38.679 160.161 38.1572C166.328 39.2108 201.875 38.0569 211.882 37.9866C212.326 38.1271 212.678 38.0769 212.969 37.8261L213 37.806C213.52 37.8562 214.025 37.9063 214.545 37.9565C217.498 38.5184 220.452 38.4783 223.42 37.9866C225.104 38.2676 226.772 38.1873 228.424 37.8863C231.286 38.4382 234.117 38.2475 236.917 37.7358C240.176 38.5184 243.558 37.7358 246.863 38.0368C264.721 38.5285 282.594 39.0402 300.452 39.4917C310.612 39.7426 320.773 40.1941 330.934 39.7727C337.529 39.5018 338.432 38.8897 338.111 34.9965C338.065 34.4847 338.325 33.9529 338.141 33.4713C337.345 31.2237 338.355 29.9193 342.426 29.6283C346.205 29.3473 346.94 27.5713 347.215 25.5143C347.72 21.5509 346.42 17.748 345.532 13.8648C344.935 11.2058 343.497 9.89129 339.289 9.63041C337.927 9.5401 336.58 9.28925 335.234 9.10863C334.147 8.34605 332.908 8.49656 331.638 8.89792C325.655 8.76748 319.809 7.43295 313.734 8.07513C308.195 6.89111 302.533 6.72053 296.779 7.2423C295.111 6.91118 293.474 6.96134 291.852 7.34264C288.593 6.00811 285.088 6.52988 281.63 6.8309C278.432 6.49978 275.218 6.40947 272.005 6.76066C265.853 6.00811 259.687 5.70709 253.52 6.73056C251.883 6.43957 250.23 6.14859 248.501 6.4195C247.445 5.74722 246.374 5.23548 245.165 6.30913C244.568 6.28906 243.987 6.27903 243.39 6.25896C242.533 5.68702 241.584 5.63685 240.528 6.04824C239.855 6.11848 239.182 6.18872 238.508 6.25896C237.452 5.52647 236.29 5.13514 234.805 5.85759C230.459 5.27562 226.114 6.01814 221.768 5.81746C216.856 4.19194 211.806 5.48633 206.817 5.59671C204.583 5.53651 202.364 5.4763 200.13 5.41609C199.875 5.63684 199.875 5.63684 200.13 5.41609C198.309 4.64347 196.687 5.25555 195.05 5.69705C193.382 5.69705 191.729 5.69705 190.061 5.69705C178.019 5.5967 165.976 5.66694 153.948 5.36592C138.554 4.98462 123.191 4.2722 107.812 3.75043C94.9887 3.30893 63.0988 0.609769 60.0078 2.56641C57.2687 2.47611 54.5449 2.3858 51.8058 2.29549C46.955 0.69004 41.7063 2.05468 36.7025 1.55297C35.0192 1.19175 33.3513 1.36232 31.6986 1.62321C25.4247 0.760278 16.9932 0.870656 12.326 1.14158C7.65882 1.41249 12.5249 8.67714 8.54636 11.5368C5.4094 12.6607 8.57697 15.3096 5.42468 16.4335C4.12399 16.5639 2.13468 15.9819 2.2724 17.5974C2.41013 19.4537 2.62436 21.32 1.78275 23.1362C0.558564 25.7952 0.635072 28.4643 1.43079 31.1534C0.788087 31.916 1.35428 32.6385 1.61441 33.3709C0.757508 33.5817 1.87457 34.9764 1.87457 34.9764L1.90515 34.9764ZM38.7071 10.5535C39.0743 10.5736 39.4262 10.6037 39.7935 10.6338C40.4821 13.042 42.6397 14.527 46.1439 15.1391C42.6397 14.527 40.4974 13.042 39.7935 10.6338C39.4415 10.5936 39.0743 10.5736 38.7224 10.5535C37.5594 10.5535 36.4117 10.5334 35.2488 10.5334C35.2488 10.7341 35.264 10.9448 35.2488 11.1556C35.264 10.9549 35.2488 10.7442 35.2488 10.5334C36.4117 10.5334 37.5594 10.5535 38.7224 10.5535L38.7071 10.5535ZM85.8073 15.8716C85.8532 15.7913 85.8838 15.711 85.9144 15.6307C85.945 15.5505 85.9756 15.4802 85.9756 15.4C85.9756 15.4702 85.945 15.5505 85.9144 15.6307C85.8838 15.711 85.838 15.7913 85.8073 15.8716ZM88.271 16.5238C88.271 15.4602 88.8219 14.3263 87.9955 13.3831C88.8219 14.3364 88.271 15.4602 88.271 16.5238ZM94.9733 16.0722C95.0652 15.8214 95.0652 15.5906 95.004 15.3699C95.0652 15.5906 95.0652 15.8214 94.9733 16.0823C94.1011 16.1425 93.2442 16.2127 92.372 16.283C93.2289 16.2127 94.1011 16.1425 94.9581 16.0722L94.9733 16.0722ZM184.92 12.9918C184.905 13.2527 184.522 13.4935 184.293 13.7444C184.522 13.4935 184.905 13.2426 184.92 12.9918ZM166.649 16.7445C166.924 16.6944 167.2 16.6442 167.46 16.594C167.185 16.6442 166.924 16.6944 166.649 16.7445ZM95.2335 17.6075C92.5097 18.2697 89.9849 19.1728 87.2917 19.8751C90.0002 19.1828 92.5097 18.2697 95.2335 17.6075ZM86.6949 20.0257C86.2817 20.126 85.8532 20.2263 85.4248 20.3066C85.8532 20.2163 86.2817 20.126 86.6949 20.0257ZM52.5862 15.9518C51.6527 15.7612 50.6887 15.6307 49.694 15.5304C50.6734 15.6307 51.6527 15.7612 52.5862 15.9518ZM35.2334 11.1857C35.2181 11.3562 35.1722 11.5268 35.0804 11.6673C35.1722 11.5168 35.2181 11.3562 35.2334 11.1857ZM128.195 35.4179C127.69 35.9296 127.521 36.4614 128.546 37.0936C127.521 36.4614 127.69 35.9196 128.195 35.4079L128.195 35.4179ZM129.434 34.3844C129.067 34.7155 128.592 35.0366 128.256 35.3577C128.592 35.0266 129.067 34.7055 129.434 34.3844ZM144.124 35.4179C144.094 35.3577 144.032 35.2975 143.986 35.2272C144.032 35.2875 144.094 35.3577 144.124 35.4179C144.247 35.3978 144.43 35.3978 144.537 35.3778C144.43 35.4079 144.262 35.3978 144.124 35.4179ZM281.936 31.1233C282.15 31.2939 282.288 31.4946 282.365 31.7354C282.41 31.8558 282.426 31.9963 282.441 32.1368C282.441 31.9863 282.395 31.8558 282.365 31.7354C282.288 31.4846 282.135 31.2839 281.936 31.1233ZM263.466 30.9427C263.329 30.6718 263.176 30.5313 263.068 30.5414C263.191 30.5313 263.329 30.6618 263.466 30.9427ZM241.599 7.11185C241.508 7.08175 241.431 7.04162 241.355 6.98141C241.431 7.03158 241.523 7.08175 241.599 7.11185ZM221.967 6.59008C221.967 6.59008 221.967 6.57001 221.967 6.55998C221.967 6.55998 221.967 6.58004 221.967 6.59008ZM198.738 6.62018C198.539 6.76066 198.355 6.88107 198.156 6.98141C198.355 6.8911 198.554 6.76066 198.738 6.62018ZM119.748 11.8981C119.656 11.6171 119.197 11.286 118.585 10.9549C119.197 11.296 119.656 11.6171 119.748 11.9081L119.748 11.8981ZM118.646 10.6539C118.646 10.6539 118.646 10.6438 118.646 10.6338L118.646 10.6539ZM116.84 9.26916C117.743 9.45981 118.217 9.8712 118.524 10.3629C118.217 9.86117 117.728 9.45981 116.84 9.26916C116.672 7.64364 115.004 6.9814 113.152 6.31915C115.004 6.99143 116.672 7.64364 116.84 9.26916ZM77.5441 14.4267C76.1057 14.6474 75.1723 15.2093 74.9121 16.2127C76.1822 16.2729 77.437 16.3331 78.7071 16.3933C80.2373 16.4335 81.7522 16.4736 83.2824 16.5037C81.7522 16.4636 80.222 16.4234 78.7071 16.3933C77.437 16.3331 76.1822 16.2729 74.9121 16.2127C73.7032 16.2629 72.4944 16.3231 71.2855 16.3733C72.4944 16.3131 73.7032 16.2629 74.9121 16.2027C75.1723 15.1993 76.121 14.6474 77.5441 14.4166L77.5441 14.4267ZM14.2082 24.3604C11.6374 23.4774 9.20435 22.6445 6.78659 21.8017C9.20435 22.6345 11.6374 23.4673 14.2082 24.3604Z" fill="#E5C996"/>
<path d="M1.90515 34.9764C2.60907 35.8895 21.6144 37.3143 30.1225 36.6521C34.9274 37.7257 39.9618 37.214 44.8892 37.3846C64.4148 38.0568 83.9557 38.2977 103.512 38.087C107.919 38.5686 112.326 38.6188 116.764 38.2977C121.247 39.1305 125.716 38.7592 130.169 38.1873C131.852 38.6188 133.52 38.5887 135.172 38.1171C141.829 38.2776 148.47 38.7994 155.142 38.2575C156.84 38.5586 158.524 38.679 160.161 38.1572C166.328 39.2108 201.875 38.0569 211.882 37.9866C212.326 38.1271 212.678 38.0769 212.969 37.8261L213 37.806C213.52 37.8562 214.025 37.9063 214.545 37.9565C217.498 38.5184 220.452 38.4783 223.42 37.9866C225.104 38.2676 226.772 38.1873 228.424 37.8863C231.286 38.4382 234.117 38.2475 236.917 37.7358C240.176 38.5184 243.558 37.7358 246.863 38.0368C264.721 38.5285 282.594 39.0402 300.452 39.4917C310.612 39.7426 320.773 40.1941 330.934 39.7727C337.529 39.5018 338.432 38.8897 338.111 34.9965C338.065 34.4847 338.325 33.9529 338.141 33.4713C337.345 31.2237 338.355 29.9193 342.426 29.6283C346.205 29.3473 346.94 27.5713 347.215 25.5143C347.72 21.5509 346.42 17.748 345.532 13.8648C344.935 11.2058 343.497 9.89129 339.289 9.63041C337.927 9.5401 336.58 9.28925 335.234 9.10863C334.147 8.34605 332.908 8.49656 331.638 8.89792C325.655 8.76748 319.809 7.43295 313.734 8.07513C308.195 6.89111 302.533 6.72053 296.779 7.2423C295.111 6.91118 293.474 6.96134 291.852 7.34264C288.593 6.00811 285.088 6.52988 281.63 6.8309C278.432 6.49978 275.218 6.40947 272.005 6.76066C265.853 6.00811 259.687 5.70709 253.52 6.73056C251.883 6.43957 250.23 6.14859 248.501 6.4195C247.445 5.74722 246.374 5.23548 245.165 6.30913C244.568 6.28906 243.987 6.27903 243.39 6.25896C242.533 5.68702 241.584 5.63685 240.528 6.04824C239.855 6.11848 239.182 6.18872 238.508 6.25896C237.452 5.52647 236.29 5.13514 234.805 5.85759C230.459 5.27562 226.114 6.01814 221.768 5.81746C216.856 4.19194 211.806 5.48633 206.817 5.59671C204.583 5.53651 202.364 5.4763 200.13 5.41609C199.875 5.63684 199.875 5.63684 200.13 5.41609C198.309 4.64347 196.687 5.25555 195.05 5.69705C193.382 5.69705 191.729 5.69705 190.061 5.69705C178.019 5.5967 165.976 5.66694 153.948 5.36592C138.554 4.98462 123.191 4.2722 107.812 3.75043C94.9887 3.30893 63.0988 0.609769 60.0078 2.56641C57.2687 2.47611 54.5449 2.3858 51.8058 2.29549C46.955 0.69004 41.7063 2.05468 36.7025 1.55297C35.0192 1.19175 33.3513 1.36232 31.6986 1.62321C25.4247 0.760278 16.9932 0.870656 12.326 1.14158C7.65882 1.41249 12.5249 8.67714 8.54636 11.5368C5.4094 12.6607 8.57697 15.3096 5.42468 16.4335C4.12399 16.5639 2.13468 15.9819 2.2724 17.5974C2.41013 19.4537 2.62436 21.32 1.78275 23.1362C0.558564 25.7952 0.635072 28.4643 1.43079 31.1534C0.788087 31.916 1.35428 32.6385 1.61441 33.3709C0.757508 33.5817 1.87457 34.9764 1.87457 34.9764L1.90515 34.9764ZM38.7071 10.5535C39.0743 10.5736 39.4262 10.6037 39.7935 10.6338C40.4821 13.042 42.6397 14.527 46.1439 15.1391C42.6397 14.527 40.4974 13.042 39.7935 10.6338C39.4415 10.5936 39.0743 10.5736 38.7224 10.5535C37.5594 10.5535 36.4117 10.5334 35.2488 10.5334C35.2488 10.7341 35.264 10.9448 35.2488 11.1556C35.264 10.9549 35.2488 10.7442 35.2488 10.5334C36.4117 10.5334 37.5594 10.5535 38.7224 10.5535L38.7071 10.5535ZM85.8073 15.8716C85.8532 15.7913 85.8838 15.711 85.9144 15.6307C85.945 15.5505 85.9756 15.4802 85.9756 15.4C85.9756 15.4702 85.945 15.5505 85.9144 15.6307C85.8838 15.711 85.838 15.7913 85.8073 15.8716ZM88.271 16.5238C88.271 15.4602 88.8219 14.3263 87.9955 13.3831C88.8219 14.3364 88.271 15.4602 88.271 16.5238ZM94.9733 16.0722C95.0652 15.8214 95.0652 15.5906 95.004 15.3699C95.0652 15.5906 95.0652 15.8214 94.9733 16.0823C94.1011 16.1425 93.2442 16.2127 92.372 16.283C93.2289 16.2127 94.1011 16.1425 94.9581 16.0722L94.9733 16.0722ZM184.92 12.9918C184.905 13.2527 184.522 13.4935 184.293 13.7444C184.522 13.4935 184.905 13.2426 184.92 12.9918ZM166.649 16.7445C166.924 16.6944 167.2 16.6442 167.46 16.594C167.185 16.6442 166.924 16.6944 166.649 16.7445ZM95.2335 17.6075C92.5097 18.2697 89.9849 19.1728 87.2917 19.8751C90.0002 19.1828 92.5097 18.2697 95.2335 17.6075ZM86.6949 20.0257C86.2817 20.126 85.8532 20.2263 85.4248 20.3066C85.8532 20.2163 86.2817 20.126 86.6949 20.0257ZM52.5862 15.9518C51.6527 15.7612 50.6887 15.6307 49.694 15.5304C50.6734 15.6307 51.6527 15.7612 52.5862 15.9518ZM35.2334 11.1857C35.2181 11.3562 35.1722 11.5268 35.0804 11.6673C35.1722 11.5168 35.2181 11.3562 35.2334 11.1857ZM128.195 35.4179C127.69 35.9296 127.521 36.4614 128.546 37.0936C127.521 36.4614 127.69 35.9196 128.195 35.4079L128.195 35.4179ZM129.434 34.3844C129.067 34.7155 128.592 35.0366 128.256 35.3577C128.592 35.0266 129.067 34.7055 129.434 34.3844ZM144.124 35.4179C144.094 35.3577 144.032 35.2975 143.986 35.2272C144.032 35.2875 144.094 35.3577 144.124 35.4179C144.247 35.3978 144.43 35.3978 144.537 35.3778C144.43 35.4079 144.262 35.3978 144.124 35.4179ZM281.936 31.1233C282.15 31.2939 282.288 31.4946 282.365 31.7354C282.41 31.8558 282.426 31.9963 282.441 32.1368C282.441 31.9863 282.395 31.8558 282.365 31.7354C282.288 31.4846 282.135 31.2839 281.936 31.1233ZM263.466 30.9427C263.329 30.6718 263.176 30.5313 263.068 30.5414C263.191 30.5313 263.329 30.6618 263.466 30.9427ZM241.599 7.11185C241.508 7.08175 241.431 7.04162 241.355 6.98141C241.431 7.03158 241.523 7.08175 241.599 7.11185ZM221.967 6.59008C221.967 6.59008 221.967 6.57001 221.967 6.55998C221.967 6.55998 221.967 6.58004 221.967 6.59008ZM198.738 6.62018C198.539 6.76066 198.355 6.88107 198.156 6.98141C198.355 6.8911 198.554 6.76066 198.738 6.62018ZM119.748 11.8981C119.656 11.6171 119.197 11.286 118.585 10.9549C119.197 11.296 119.656 11.6171 119.748 11.9081L119.748 11.8981ZM118.646 10.6539C118.646 10.6539 118.646 10.6438 118.646 10.6338L118.646 10.6539ZM116.84 9.26916C117.743 9.45981 118.217 9.8712 118.524 10.3629C118.217 9.86117 117.728 9.45981 116.84 9.26916C116.672 7.64364 115.004 6.9814 113.152 6.31915C115.004 6.99143 116.672 7.64364 116.84 9.26916ZM77.5441 14.4267C76.1057 14.6474 75.1723 15.2093 74.9121 16.2127C76.1822 16.2729 77.437 16.3331 78.7071 16.3933C80.2373 16.4335 81.7522 16.4736 83.2824 16.5037C81.7522 16.4636 80.222 16.4234 78.7071 16.3933C77.437 16.3331 76.1822 16.2729 74.9121 16.2127C73.7032 16.2629 72.4944 16.3231 71.2855 16.3733C72.4944 16.3131 73.7032 16.2629 74.9121 16.2027C75.1723 15.1993 76.121 14.6474 77.5441 14.4166L77.5441 14.4267ZM14.2082 24.3604C11.6374 23.4774 9.20435 22.6445 6.78659 21.8017C9.20435 22.6345 11.6374 23.4673 14.2082 24.3604Z" fill="#E5C996"/>
<path d="M1.90515 34.9764C2.60907 35.8895 21.6144 37.3143 30.1225 36.6521C34.9274 37.7257 39.9618 37.214 44.8892 37.3846C64.4148 38.0568 83.9557 38.2977 103.512 38.087C107.919 38.5686 112.326 38.6188 116.764 38.2977C121.247 39.1305 125.716 38.7592 130.169 38.1873C131.852 38.6188 133.52 38.5887 135.172 38.1171C141.829 38.2776 148.47 38.7994 155.142 38.2575C156.84 38.5586 158.524 38.679 160.161 38.1572C166.328 39.2108 201.875 38.0569 211.882 37.9866C212.326 38.1271 212.678 38.0769 212.969 37.8261L213 37.806C213.52 37.8562 214.025 37.9063 214.545 37.9565C217.498 38.5184 220.452 38.4783 223.42 37.9866C225.104 38.2676 226.772 38.1873 228.424 37.8863C231.286 38.4382 234.117 38.2475 236.917 37.7358C240.176 38.5184 243.558 37.7358 246.863 38.0368C264.721 38.5285 282.594 39.0402 300.452 39.4917C310.612 39.7426 320.773 40.1941 330.934 39.7727C337.529 39.5018 338.432 38.8897 338.111 34.9965C338.065 34.4847 338.325 33.9529 338.141 33.4713C337.345 31.2237 338.355 29.9193 342.426 29.6283C346.205 29.3473 346.94 27.5713 347.215 25.5143C347.72 21.5509 346.42 17.748 345.532 13.8648C344.935 11.2058 343.497 9.89129 339.289 9.63041C337.927 9.5401 336.58 9.28925 335.234 9.10863C334.147 8.34605 332.908 8.49656 331.638 8.89792C325.655 8.76748 319.809 7.43295 313.734 8.07513C308.195 6.89111 302.533 6.72053 296.779 7.2423C295.111 6.91118 293.474 6.96134 291.852 7.34264C288.593 6.00811 285.088 6.52988 281.63 6.8309C278.432 6.49978 275.218 6.40947 272.005 6.76066C265.853 6.00811 259.687 5.70709 253.52 6.73056C251.883 6.43957 250.23 6.14859 248.501 6.4195C247.445 5.74722 246.374 5.23548 245.165 6.30913C244.568 6.28906 243.987 6.27903 243.39 6.25896C242.533 5.68702 241.584 5.63685 240.528 6.04824C239.855 6.11848 239.182 6.18872 238.508 6.25896C237.452 5.52647 236.29 5.13514 234.805 5.85759C230.459 5.27562 226.114 6.01814 221.768 5.81746C216.856 4.19194 211.806 5.48633 206.817 5.59671C204.583 5.53651 202.364 5.4763 200.13 5.41609C199.875 5.63684 199.875 5.63684 200.13 5.41609C198.309 4.64347 196.687 5.25555 195.05 5.69705C193.382 5.69705 191.729 5.69705 190.061 5.69705C178.019 5.5967 165.976 5.66694 153.948 5.36592C138.554 4.98462 123.191 4.2722 107.812 3.75043C94.9887 3.30893 63.0988 0.609769 60.0078 2.56641C57.2687 2.47611 54.5449 2.3858 51.8058 2.29549C46.955 0.69004 41.7063 2.05468 36.7025 1.55297C35.0192 1.19175 33.3513 1.36232 31.6986 1.62321C25.4247 0.760278 16.9932 0.870656 12.326 1.14158C7.65882 1.41249 12.5249 8.67714 8.54636 11.5368C5.4094 12.6607 8.57697 15.3096 5.42468 16.4335C4.12399 16.5639 2.13468 15.9819 2.2724 17.5974C2.41013 19.4537 2.62436 21.32 1.78275 23.1362C0.558564 25.7952 0.635072 28.4643 1.43079 31.1534C0.788087 31.916 1.35428 32.6385 1.61441 33.3709C0.757508 33.5817 1.87457 34.9764 1.87457 34.9764L1.90515 34.9764ZM38.7071 10.5535C39.0743 10.5736 39.4262 10.6037 39.7935 10.6338C40.4821 13.042 42.6397 14.527 46.1439 15.1391C42.6397 14.527 40.4974 13.042 39.7935 10.6338C39.4415 10.5936 39.0743 10.5736 38.7224 10.5535C37.5594 10.5535 36.4117 10.5334 35.2488 10.5334C35.2488 10.7341 35.264 10.9448 35.2488 11.1556C35.264 10.9549 35.2488 10.7442 35.2488 10.5334C36.4117 10.5334 37.5594 10.5535 38.7224 10.5535L38.7071 10.5535ZM85.8073 15.8716C85.8532 15.7913 85.8838 15.711 85.9144 15.6307C85.945 15.5505 85.9756 15.4802 85.9756 15.4C85.9756 15.4702 85.945 15.5505 85.9144 15.6307C85.8838 15.711 85.838 15.7913 85.8073 15.8716ZM88.271 16.5238C88.271 15.4602 88.8219 14.3263 87.9955 13.3831C88.8219 14.3364 88.271 15.4602 88.271 16.5238ZM94.9733 16.0722C95.0652 15.8214 95.0652 15.5906 95.004 15.3699C95.0652 15.5906 95.0652 15.8214 94.9733 16.0823C94.1011 16.1425 93.2442 16.2127 92.372 16.283C93.2289 16.2127 94.1011 16.1425 94.9581 16.0722L94.9733 16.0722ZM184.92 12.9918C184.905 13.2527 184.522 13.4935 184.293 13.7444C184.522 13.4935 184.905 13.2426 184.92 12.9918ZM166.649 16.7445C166.924 16.6944 167.2 16.6442 167.46 16.594C167.185 16.6442 166.924 16.6944 166.649 16.7445ZM95.2335 17.6075C92.5097 18.2697 89.9849 19.1728 87.2917 19.8751C90.0002 19.1828 92.5097 18.2697 95.2335 17.6075ZM86.6949 20.0257C86.2817 20.126 85.8532 20.2263 85.4248 20.3066C85.8532 20.2163 86.2817 20.126 86.6949 20.0257ZM52.5862 15.9518C51.6527 15.7612 50.6887 15.6307 49.694 15.5304C50.6734 15.6307 51.6527 15.7612 52.5862 15.9518ZM35.2334 11.1857C35.2181 11.3562 35.1722 11.5268 35.0804 11.6673C35.1722 11.5168 35.2181 11.3562 35.2334 11.1857ZM128.195 35.4179C127.69 35.9296 127.521 36.4614 128.546 37.0936C127.521 36.4614 127.69 35.9196 128.195 35.4079L128.195 35.4179ZM129.434 34.3844C129.067 34.7155 128.592 35.0366 128.256 35.3577C128.592 35.0266 129.067 34.7055 129.434 34.3844ZM144.124 35.4179C144.094 35.3577 144.032 35.2975 143.986 35.2272C144.032 35.2875 144.094 35.3577 144.124 35.4179C144.247 35.3978 144.43 35.3978 144.537 35.3778C144.43 35.4079 144.262 35.3978 144.124 35.4179ZM281.936 31.1233C282.15 31.2939 282.288 31.4946 282.365 31.7354C282.41 31.8558 282.426 31.9963 282.441 32.1368C282.441 31.9863 282.395 31.8558 282.365 31.7354C282.288 31.4846 282.135 31.2839 281.936 31.1233ZM263.466 30.9427C263.329 30.6718 263.176 30.5313 263.068 30.5414C263.191 30.5313 263.329 30.6618 263.466 30.9427ZM241.599 7.11185C241.508 7.08175 241.431 7.04162 241.355 6.98141C241.431 7.03158 241.523 7.08175 241.599 7.11185ZM221.967 6.59008C221.967 6.59008 221.967 6.57001 221.967 6.55998C221.967 6.55998 221.967 6.58004 221.967 6.59008ZM198.738 6.62018C198.539 6.76066 198.355 6.88107 198.156 6.98141C198.355 6.8911 198.554 6.76066 198.738 6.62018ZM119.748 11.8981C119.656 11.6171 119.197 11.286 118.585 10.9549C119.197 11.296 119.656 11.6171 119.748 11.9081L119.748 11.8981ZM118.646 10.6539C118.646 10.6539 118.646 10.6438 118.646 10.6338L118.646 10.6539ZM116.84 9.26916C117.743 9.45981 118.217 9.8712 118.524 10.3629C118.217 9.86117 117.728 9.45981 116.84 9.26916C116.672 7.64364 115.004 6.9814 113.152 6.31915C115.004 6.99143 116.672 7.64364 116.84 9.26916ZM77.5441 14.4267C76.1057 14.6474 75.1723 15.2093 74.9121 16.2127C76.1822 16.2729 77.437 16.3331 78.7071 16.3933C80.2373 16.4335 81.7522 16.4736 83.2824 16.5037C81.7522 16.4636 80.222 16.4234 78.7071 16.3933C77.437 16.3331 76.1822 16.2729 74.9121 16.2127C73.7032 16.2629 72.4944 16.3231 71.2855 16.3733C72.4944 16.3131 73.7032 16.2629 74.9121 16.2027C75.1723 15.1993 76.121 14.6474 77.5441 14.4166L77.5441 14.4267ZM14.2082 24.3604C11.6374 23.4774 9.20435 22.6445 6.78659 21.8017C9.20435 22.6345 11.6374 23.4673 14.2082 24.3604Z" fill="#E5C996"/>
</svg>
