<svg width="302" height="51" viewBox="0 0 302 51" fill="none" xmlns="http://www.w3.org/2000/svg">
<path d="M290.388 20.3597C292.636 21.5143 294.751 22.6086 296.861 23.7029C294.746 22.6086 292.63 21.5243 290.388 20.3597ZM252.345 42.2456C252.345 41.8641 252.303 41.4725 252.218 41.081C252.308 41.4725 252.345 41.8641 252.345 42.2456ZM235.174 33.3507C236.423 33.0595 237.241 32.3267 237.47 31.0115C236.364 30.9312 235.264 30.8509 234.164 30.7706C232.835 30.7204 231.501 30.6702 230.172 30.62C229.827 31.3027 229.88 32.4471 229.126 32.7282C229.885 32.4471 229.827 31.3027 230.172 30.62C231.501 30.6702 232.835 30.7204 234.164 30.7706C235.264 30.8509 236.369 30.9312 237.47 31.0115C238.527 30.9412 239.579 30.871 240.637 30.8007L237.47 31.0216C237.236 32.3367 236.423 33.0595 235.174 33.3507ZM220.84 36.1617C221.084 35.981 221.324 35.8003 221.563 35.6095C221.324 35.8003 221.084 35.981 220.845 36.1617H220.84ZM206.74 35.8906C207.229 36.0212 207.925 36.0914 208.308 36.2621C207.925 36.0914 207.234 36.0312 206.74 35.8906ZM200.921 40.0971C200.134 39.8462 199.72 39.3141 199.448 38.6615C199.72 39.3141 200.134 39.8462 200.921 40.0871C201.064 42.2155 202.52 43.0788 204.136 43.9523C202.52 43.0788 201.064 42.2255 200.921 40.0871M199.353 38.2901C199.353 38.2901 199.353 38.3101 199.353 38.3202V38.2901ZM198.391 36.6536C198.471 37.0251 198.874 37.4468 199.401 37.8985C198.874 37.4568 198.471 37.0351 198.391 36.6536ZM129.534 43.5607C129.699 43.38 129.874 43.2194 130.044 43.0889C129.869 43.2093 129.699 43.37 129.534 43.5607ZM109.28 43.6009C109.28 43.6009 109.28 43.631 109.28 43.641C109.28 43.631 109.28 43.621 109.28 43.6009ZM73.1031 11.756C73.2307 12.1174 73.3529 12.2881 73.4539 12.278C73.3529 12.2981 73.2254 12.1174 73.1031 11.756ZM73.0394 11.6958C72.3644 11.6154 71.6522 11.5653 71.2218 11.1938C71.6469 11.5653 72.3644 11.6154 73.0394 11.6958ZM61.4269 13.041C59.014 12.5692 57.6534 12.3082 57.0104 11.5351C56.8297 11.3143 56.7021 11.0532 56.633 10.732C56.5958 10.5714 56.5746 10.4007 56.5639 10.1999C56.5586 10.0995 56.5533 9.99911 56.5533 9.89872C56.5533 9.99911 56.5533 10.0995 56.5639 10.1999C56.5746 10.3906 56.6011 10.5714 56.633 10.732C56.7074 11.0532 56.8297 11.3143 57.0104 11.5351C57.6481 12.3082 59.0087 12.5792 61.4269 13.041ZM177.138 5.91309C177.026 5.93317 176.877 5.93317 176.781 5.97332C176.877 5.94321 177.026 5.94321 177.138 5.91309ZM189.941 7.2684C190.259 6.83671 190.669 6.4251 190.966 5.9934C190.669 6.4251 190.259 6.84675 189.941 7.2684ZM191.025 5.91309C191.461 5.25049 191.609 4.54773 190.716 3.71447C190.631 3.70443 190.541 3.69439 190.456 3.67431C190.541 3.68435 190.631 3.69439 190.716 3.71447C191.604 4.54773 191.461 5.25049 191.025 5.91309ZM227.202 26.0521C227.568 25.9216 227.935 25.791 228.312 25.6806C227.94 25.791 227.568 25.9216 227.202 26.0521ZM219.75 29.2044C222.126 28.341 224.326 27.1464 226.681 26.2428C224.326 27.1564 222.126 28.341 219.75 29.2044ZM157.505 30.3288C157.266 30.3991 157.032 30.4694 156.793 30.5296C157.027 30.4694 157.266 30.3991 157.505 30.3288ZM141.577 35.2381C141.593 34.8967 141.928 34.5755 142.125 34.2542C141.928 34.5855 141.593 34.9068 141.577 35.2381ZM219.99 31.2123C220.744 31.132 221.499 31.0416 222.248 30.9513C221.494 31.0416 220.744 31.132 219.99 31.2223M225.825 30.63C225.825 32.0255 225.341 33.5013 226.064 34.7361C225.341 33.4912 225.83 32.0154 225.825 30.62M227.967 31.4733C227.93 31.5838 227.898 31.6842 227.871 31.7845C227.845 31.8849 227.823 31.9853 227.813 32.0857C227.823 31.9954 227.839 31.895 227.871 31.7845C227.898 31.6842 227.93 31.5737 227.967 31.4733C228.052 31.2123 228.142 30.9412 228.137 30.7204C228.137 30.9412 228.052 31.2123 227.967 31.4733ZM269.023 38.4306C268.704 38.4105 268.396 38.3704 268.077 38.3202C267.471 35.1779 265.6 33.2302 262.544 32.4371C265.595 33.2302 267.471 35.1779 268.077 38.3202C268.39 38.3704 268.704 38.4005 269.017 38.4206C270.027 38.4306 271.037 38.4406 272.047 38.4507C272.036 38.1796 272.031 37.9086 272.047 37.6475C272.031 37.9086 272.036 38.1897 272.047 38.4507C271.037 38.4406 270.027 38.4306 269.017 38.4206M301.097 6.48533C300.485 5.30069 283.92 3.42332 276.5 4.28671C272.307 2.8812 267.917 3.55384 263.623 3.33297C246.605 2.45954 229.567 2.13829 212.523 2.41939C208.685 1.79695 204.838 1.72667 200.974 2.14832C197.062 1.05403 193.172 1.54596 189.287 2.28888C187.82 1.71663 186.369 1.76683 184.929 2.37923C179.131 2.1684 173.332 1.48573 167.523 2.19852C166.046 1.79695 164.579 1.64636 163.144 2.32903C157.766 0.953639 126.786 2.45954 118.055 2.5499C117.672 2.35915 117.353 2.42943 117.109 2.76073L117.077 2.79084C116.63 2.72057 116.178 2.66033 115.732 2.59006C113.16 1.85718 110.582 1.90738 108.004 2.5499C106.532 2.17844 105.081 2.27884 103.636 2.68041C101.143 1.95758 98.6773 2.20856 96.2272 2.8812C93.3839 1.85718 90.4396 2.8812 87.559 2.48966C71.9871 1.84714 56.4151 1.18454 40.8432 0.582183C31.9943 0.260923 23.1454 -0.3314 14.2805 0.230805C8.52477 0.592222 7.74883 1.38533 8.0305 6.47529C8.06771 7.13789 7.84981 7.83061 7.99862 8.46309C8.68952 11.3946 7.81792 13.1013 4.26241 13.4928C0.977957 13.8542 0.329569 16.1733 0.101038 18.8639C-0.340078 24.0442 0.797258 29.0237 1.56788 34.0936C2.09403 37.5672 3.33766 39.284 7.00478 39.6353C8.19526 39.7458 9.36448 40.0871 10.5443 40.318C11.4957 41.3219 12.5692 41.1111 13.68 40.5991C18.899 40.7698 23.9851 42.5066 29.2838 41.6733C34.1095 43.2194 39.0468 43.4503 44.0639 42.7676C45.5148 43.1993 46.9444 43.1391 48.3581 42.6271C51.1961 44.3739 54.2468 43.6912 57.2761 43.2897C60.0663 43.7314 62.8618 43.8418 65.6626 43.38C71.0304 44.3639 76.3982 44.7655 81.7714 43.4202C83.2063 43.8017 84.636 44.1832 86.1506 43.8318C87.0701 44.7153 88.0001 45.3779 89.0524 43.9824C89.568 44.0025 90.0888 44.0225 90.6043 44.0426C91.3537 44.7855 92.1828 44.8558 93.0969 44.3137C92.964 43.9623 92.8205 43.6712 92.6717 43.4302C92.8205 43.6611 92.964 43.9623 93.0969 44.3137C93.6815 44.2233 94.2714 44.133 94.856 44.0426C95.7808 44.9964 96.7906 45.5184 98.082 44.5647C101.866 45.3277 105.661 44.3538 109.445 44.6149C113.734 46.7332 118.124 45.0466 122.471 44.906C124.411 44.9863 126.356 45.0666 128.301 45.1469C128.521 44.8592 128.521 44.8592 128.301 45.1469C129.885 46.1509 131.299 45.3578 132.728 44.7755C134.174 44.7755 135.625 44.7755 137.07 44.7855C147.561 44.906 158.069 44.8257 168.549 45.2172C181.963 45.7192 195.361 46.6428 208.77 47.3355C219.947 47.9078 247.748 51.4416 250.443 48.8916C252.824 49.0021 255.21 49.1225 257.591 49.243C261.821 51.3412 266.392 49.5542 270.75 50.2068C272.217 50.6786 273.668 50.4578 275.113 50.1064C280.587 51.2308 287.932 51.0903 292.003 50.7288C296.074 50.3775 291.833 40.8702 295.293 37.1355C298.035 35.6597 295.261 32.1962 298.014 30.7304C299.146 30.5597 300.889 31.3227 300.756 29.2145C300.634 26.7849 300.454 24.3454 301.182 21.9761C302.255 18.5025 302.186 15.0088 301.49 11.495C302.048 10.5011 301.559 9.54734 301.33 8.5936C302.08 8.32254 301.102 6.49537 301.102 6.49537" fill="#E5C996"/>
</svg>
