<?xml version="1.0" encoding="UTF-8"?>
<svg id="svg2" xmlns="http://www.w3.org/2000/svg" xmlns:xlink="http://www.w3.org/1999/xlink" viewBox="0 0 792.57 136.22">
  <defs>
    <style>
      .cls-1 {
        fill: none;
      }

      .cls-1, .cls-2 {
        stroke-width: 0px;
      }

      .cls-2 {
        fill: #fff;
      }

      .cls-3 {
        clip-path: url(#clippath);
      }
    </style>
    <clipPath id="clippath">
      <rect class="cls-1" y="0" width="792.57" height="136.22"/>
    </clipPath>
  </defs>
  <g id="g8">
    <g id="g10">
      <path id="path12" class="cls-2" d="m42.75,0L0,135.73h31.85l6.32-20.72h49.08l6.32,20.72h31.85L82.89,0h-40.13Zm20.06,39.49l15.5,45.42h-30.98l15.49-45.42Z"/>
    </g>
    <g id="g14">
      <g class="cls-3">
        <g id="g16">
          <g id="g22">
            <path id="path24" class="cls-2" d="m198.82,54.86c-2.98,2.69-6.44,4.04-10.36,4.04h-13.74v-28.35h13.74c3.92,0,7.38,1.31,10.36,3.93,2.98,2.62,4.48,5.96,4.48,10.04s-1.5,7.67-4.48,10.36M191.3,0h-47.11v135.72h30.54v-46.29h16.57c12.08,0,22.36-3.96,30.87-11.89,8.5-7.93,12.76-18.94,12.76-33.04,0-11.93-4.07-22.33-12.22-31.2C214.56,4.44,204.09,0,191.3,0"/>
          </g>
          <g id="g26">
            <path id="path28" class="cls-2" d="m247.09,30.54h34.85v105.19h30.54V30.54h34.85V0h-100.24v30.54Z"/>
          </g>
          <g id="g30">
            <path id="path32" class="cls-2" d="m365.87,135.73h85.51v-30.54h-54.97v-22.05h38.17v-30.54h-38.17v-22.06h54.97V0h-85.51v135.73Z"/>
          </g>
          <g id="g34">
            <path id="path36" class="cls-2" d="m553.24,79.77c0,6.84-2.29,12.65-6.87,17.45-4.58,4.79-10.14,7.19-16.68,7.19s-12.33-2.4-16.92-7.19c-4.58-4.81-6.87-10.62-6.87-17.45V0h-30.54v80.85c0,16.29,5.26,29.55,15.81,39.81,10.55,10.25,23.31,15.38,38.29,15.38s27.77-5.13,38.39-15.38c10.61-10.25,15.92-23.52,15.92-39.81V0h-30.54v79.77Z"/>
          </g>
          <g id="g38">
            <path id="path40" class="cls-2" d="m776.76,15.64c-10.55-10.26-23.31-15.38-38.29-15.38s-27.78,5.12-38.39,15.38c-.17.17-.32.35-.49.52-.25-.25-.46-.52-.72-.77C688.33,5.13,675.57,0,660.59,0s-27.77,5.13-38.39,15.38c-10.62,10.25-15.93,23.52-15.92,39.8v80.78h30.54V56.28c0-6.84,2.29-12.65,6.87-17.45,4.58-4.8,10.14-7.2,16.68-7.2s12.32,2.4,16.91,7.2c4.58,4.8,6.87,10.61,6.87,17.45v79.69h.01v.25h30.54V56.53c0-6.84,2.29-12.65,6.87-17.45,4.58-4.8,10.14-7.2,16.68-7.2s12.32,2.4,16.91,7.2c4.58,4.8,6.87,10.62,6.87,17.45v79.69h30.54V55.44c0-16.29-5.26-29.55-15.81-39.8"/>
          </g>
        </g>
      </g>
    </g>
  </g>
</svg>