<?xml version="1.0" encoding="UTF-8"?>
<svg id="Layer_2" data-name="Layer 2" xmlns="http://www.w3.org/2000/svg" viewBox="0 0 37.38 28.35">
  <defs>
    <style>
      .cls-1 {
        fill: #002d2e;
        stroke-width: 0px;
      }
    </style>
  </defs>
  <g id="Layer_1-2" data-name="Layer 1">
    <path class="cls-1" d="M30.7,21.23c-.38-.76,1.02-1.62,1.53-1.46-.52-.16-1.91.7-1.53,1.46M28.84,16.1c-.06,0-.11.01-.17.02.17,0,.35-.04.49-.12-.09.05-.2.09-.32.11M24.41,13.58c.46.13.92.26,1.39.39-.07.39-.09.82-.13,1.22.05-.4.06-.83.13-1.22-.46-.13-.92-.26-1.39-.39M25.56,15.78c-.04.12-.08.24-.14.35.11-.22.18-.47.22-.73-.02.13-.05.26-.08.38M24.4,13.55c-.05.33-.09.75-.25.96.16-.21.2-.63.25-.96h0M28.53,14.98c.24-.27.46-.31.64-.21-.17-.1-.4-.05-.64.21ZM28.52,14.87v.1s0-.1,0-.1c-.12-.71-.41-1.11-.77-1.39.36.28.65.69.77,1.39M27.64,17.62c-.25-.09-.7-.77-1.05-.77.5.06.92.92,1.38.89-.09,0-.2-.03-.33-.12M28.52,16.15l-.03-.04.03.04ZM32.31,20.63c0,.17.02.28.06.41-.01-.05-.02-.09-.02-.09-.03-.09-.03-.2-.03-.32M37.12,12.81c-2.22-3.56-5.32-6.52-8.67-7.44-3.44-2.37-8.87-6.97-12.45-4.8-5.1,7.8,12.09,10.4,7.14,12.99-7.22.13-14.72.6-21.61,2.61-6.14,6.98,7.94,4.86,10.76,3.76,2.01.64,4.29-.21,6.46-.15.54-1.07.76-1.65,1.38-1.88-.62.23-.84.81-1.38,1.88,1.71.43,7.11-2.34,4.87,2.67-2.77,7.76,2.02,7.32,4.9,1.92,1.51-1.61,10.46-8.76,8.59-11.55"/>
  </g>
</svg>