<?xml version="1.0" encoding="UTF-8"?><svg id="Layer_2" xmlns="http://www.w3.org/2000/svg" viewBox="0 0 183.79 175.76"><defs><style>.cls-1{fill:#022d2f;stroke-width:0px;}</style></defs><g id="Layer_1-2"><path class="cls-1" d="M171.76,136.05c.38.27.8.48,1.23.68-.43-.2-.85-.41-1.23-.68M164.29,135.99c2.38-1.43,5.57-1.52,7.07-4.15-.37-.37-.73-.73-1.1-1.1-.69.55-1.5.92-2.26.98.76-.07,1.57-.43,2.26-.98.37.37.74.73,1.1,1.1-1.5,2.63-4.68,2.72-7.07,4.15M157.5,122.12c.5.38.99.75,1.49,1.13.77-.86,1.72-1.09,2.73-1.13-1.01.04-1.96.28-2.73,1.13-.5-.38-.99-.76-1.49-1.13M167.53,122.93c-1.12-.6-2.33-.99-3.74-.8-.09.35-.17.9-.27,1.16.09-.26.18-.81.27-1.16,1.41-.19,2.62.21,3.74.8M142.66,159.39c-.61-.06-1.16.11-1.69.33.52-.23,1.07-.39,1.69-.33M143.74,159.37c0-.33,0-.66,0-.99,0,.33,0,.66,0,.99M71.57,117.84c.34-.07.59-.26.43-.82h0c.17.55-.09.74-.43.82M29.55,82.41c-1.49-1.63-1.24-4.78-4.16-4.01.7,0,1.39.02,2.09.03.96,1.49,1.29,4.53,3.73,4.82-.73-.12-1.25-.42-1.66-.84M11.69,45.4c-.12.1-.25.2-.37.3,1.86-1.14,3.02-2.83,3.95-4.73-.91,1.71-1.83,3.4-3.58,4.43M26.44,58.16c1.02-.59,1.93-1.47,3-1.93-1.08.46-1.98,1.34-3,1.93ZM71.1,116.78c-.26-.44-.02-1.29-.23-1.78.21.49-.04,1.34.23,1.78M78.04,114.45h0l.33.39s-.34-.39-.33-.39M77.79,108.83c-.02.37,0,.72.04,1.06-.04-.34-.06-.69-.04-1.06M180.62,125.31c-17.91-5.45-22.59-23.53-31.46-36.83-9.58,7.73,4.1,25.23,8.33,33.63-3.92,1.98-50.8-2.49-67.71-10.42-.07.51-.02,1.13-.15,1.61.12-.49.07-1.1.15-1.61-7.96-3.71-15.64-7.6-23.06-12.37-.4,1.15-1.13,2.06-1.89,2.96.77-.9,1.5-1.81,1.89-2.96-12.62-8.11-30.09-31.51-29.22-31.47C26.99,48.37,20.39,26.64,19.96,4.81,12.14-8.79-5.01,9.37,1.41,23.18c4.32-1.47,3.22,9.08,6.05,7.4-2.82,1.68-1.73-8.87-6.05-7.4,3.95,35.84,23.9,73.44,55.43,91.5-.3,0-.6,0-.9,0,18.91,13.35,43.63,19.85,67.65,21.6,12.31,2.51,26.5-1.05,37.89,2.02.54-.67,1.15-1.22,1.8-1.68-20.33,5.22-44.19,64.97-16.18,26.04,6.85-11.01,31.29-24.5,31.39-25.72,5.34-.2,7.65-9.76,2.14-11.63"/></g></svg>