<?xml version="1.0" encoding="UTF-8"?>
<svg id="Layer_2" data-name="Layer 2" xmlns="http://www.w3.org/2000/svg" viewBox="0 0 40 30">
  <defs>
    <style>
      .cls-1 {
        fill: #012d2e;
        stroke-width: 0px;
      }
    </style>
  </defs>
  <g id="Layer_1-2" data-name="Layer 1">
    <g>
      <path class="cls-1" d="m38.23,1.01c-1.29-.19-7.32-.72-9.05-.57-1.33-.43-8.16-.26-9.88-.16-.31-.09-5.98-.25-6.35-.26C12.31-.02,11.67.01,11.03.01,10.61.01,1.57.36,1.14.48.25.73.11,2.18.23,3.1c.21,1.66,7.81,1.52,8.15,1.52.71,0,1.43,0,2.14.04,1.36.07,6.3.13,7.42.15,2.31.03,4.61,0,6.92,0,1.45,0,2.9.02,4.35,0,1.97-.02,3.95-.07,5.93-.11,1.4-.03,2.74-.41,4.08-.81.41-.12.64-.45.75-.86.13-.49.04-.91-.35-1.26-.4-.36-.83-.68-1.36-.76h0Z"/>
      <path class="cls-1" d="m1.86,16.56c1.29.19,7.32.72,9.05.57,1.33.43,8.16.26,9.88.16.31.09,5.98.25,6.35.26.64.03,1.28,0,1.92,0,.42,0,9.46-.35,9.89-.47.89-.25,1.03-1.7.91-2.62-.21-1.66-7.81-1.52-8.15-1.52-.71,0-1.43,0-2.14-.04-1.36-.07-6.3-.13-7.42-.15-2.31-.03-4.61,0-6.92,0-1.45,0-2.9-.02-4.35,0-1.97.02-3.95.07-5.93.11-1.4.03-2.74-.15-4.08.25-.41.12-.64,1.01-.75,1.42-.13.49-.04.91.35,1.26.4.36.83.68,1.36.76h0Z"/>
      <path class="cls-1" d="m38.04,26.2c-1.29-.19-7.32-.72-9.05-.57-1.33-.43-8.16-.26-9.88-.16-.31-.09-5.98-.25-6.35-.26-.64-.03-1.28,0-1.92,0-.42,0-9.46.35-9.89.47-.89.25-1.03,1.7-.91,2.62.21,1.66,7.81,1.52,8.15,1.52.71,0,1.43,0,2.14.04,1.36.07,6.3.13,7.42.15,2.31.03,4.61,0,6.92,0,1.45,0,2.9.02,4.35,0,1.97-.02,3.95-.07,5.93-.11,1.4-.03,2.74.15,4.08-.25.41-.12.79-2.34.4-2.68-.4-.36-.83-.68-1.36-.76h0Z"/>
    </g>
  </g>
</svg>