<?xml version="1.0" encoding="UTF-8"?>
<svg id="Layer_1" data-name="Layer 1" xmlns="http://www.w3.org/2000/svg" viewBox="0 0 851.96 64.23">
  <defs>
    <style>
      .cls-1 {
        fill: #e5c996;
        stroke-width: 0px;
      }
    </style>
  </defs>
  <path class="cls-1" d="m2.6,55.6c1.73,1.49,48.46,3.85,69.38,2.78,11.81,1.76,24.19.93,36.31,1.22,48.01,1.13,96.06,1.56,144.15,1.24,10.84.79,21.67.88,32.58.37,11.02,1.37,22.01.77,32.96-.16,4.14.71,8.24.66,12.3-.11,16.37.27,32.7,1.14,49.1.26,4.18.49,8.32.69,12.34-.16,15.16,1.73,102.57-.1,127.18-.2,1.09.23,1.96.15,2.67-.26l.08-.03c1.28.08,2.52.17,3.8.25,7.26.92,14.52.86,21.82.06,4.14.46,8.24.33,12.3-.16,7.04.91,14,.6,20.88-.23,8.01,1.28,16.33.01,24.46.51,43.91.83,87.86,1.7,131.77,2.46,24.98.43,49.97,1.18,74.95.51,16.22-.43,18.44-1.43,17.65-7.8-.11-.84.53-1.71.08-2.49-1.95-3.68.53-5.81,10.54-6.27,9.29-.45,11.1-3.35,11.78-6.72,1.25-6.48-1.95-12.7-4.13-19.04-1.46-4.35-5-6.5-15.35-6.93-3.35-.15-6.66-.56-9.97-.86-2.67-1.25-5.72-1-8.84-.35-14.71-.22-29.08-2.41-44.02-1.37-13.62-1.94-27.54-2.23-41.69-1.39-4.1-.54-8.13-.46-12.12.16-8.01-2.19-16.63-1.34-25.13-.85-7.86-.55-15.77-.7-23.67-.13-15.12-1.24-30.29-1.74-45.45-.08-4.03-.48-8.09-.96-12.34-.52-2.6-1.1-5.23-1.94-8.2-.19-1.47-.03-2.9-.05-4.36-.08-2.11-.94-4.44-1.02-7.04-.35-1.66.11-3.31.23-4.97.34-2.6-1.2-5.45-1.84-9.1-.66-10.69-.96-21.37.25-32.06-.09-12.08-2.66-24.49-.56-36.76-.38-5.49-.1-10.95-.2-16.44-.31q-.63.36,0,0c-4.48-1.27-8.47-.27-12.49.45-4.1,0-8.17,0-12.27,0-29.61-.18-59.22-.09-88.8-.6-37.85-.65-75.63-1.84-113.44-2.71-31.53-.74-109.94-5.21-117.54-2.01-6.74-.15-13.43-.3-20.17-.46-11.93-2.63-24.83-.41-37.14-1.24-4.14-.59-8.24-.32-12.3.11C60.47-.29,39.73-.13,28.26.31c-11.48.44.48,12.32-9.3,16.99-7.71,1.83.07,6.17-7.68,8-3.2.21-8.09-.74-7.75,1.9.34,3.03.86,6.09-1.21,9.05-3.01,4.34-2.83,8.71-.87,13.1-1.58,1.25-.19,2.43.45,3.62-2.11.34.64,2.62.64,2.62h.08ZM93.11,15.74c.9.03,1.77.08,2.67.13,1.69,3.94,6.99,6.37,15.61,7.37-8.62-1.01-13.88-3.44-15.61-7.37-.87-.07-1.77-.1-2.63-.13-2.86,0-5.68-.04-8.54-.04,0,.33.04.67,0,1.02.04-.33,0-.67,0-1.02,2.86,0,5.68.04,8.54.04h-.04Zm115.81,8.77c.11-.13.19-.26.26-.39.07-.13.15-.25.15-.38,0,.11-.08.25-.15.38-.08.13-.19.26-.26.39Zm6.06,1.07c0-1.74,1.36-3.59-.67-5.13,2.03,1.56.68,3.4.67,5.13Zm16.48-.73c.23-.41.23-.79.08-1.15.15.36.15.74-.08,1.16-2.15.1-4.25.21-6.4.32,2.11-.11,4.25-.23,6.36-.34h.04Zm221.17-4.89c-.04.43-.98.82-1.54,1.23.56-.41,1.51-.82,1.54-1.23Zm-44.93,6.1c.68-.08,1.36-.16,1.99-.24-.68.08-1.32.16-1.99.24Zm-175.6,1.3c-6.7,1.08-12.91,2.55-19.53,3.69,6.66-1.13,12.83-2.62,19.53-3.69Zm-21,3.94c-1.02.16-2.07.33-3.12.46,1.05-.15,2.11-.29,3.12-.46Zm-83.86-6.71c-2.29-.31-4.67-.53-7.11-.69,2.41.17,4.82.38,7.11.69Zm-42.66-7.82c-.04.28-.15.56-.38.79.23-.25.34-.51.38-.79Zm228.55,39.76c-1.24.84-1.66,1.7.86,2.74-2.52-1.03-2.11-1.92-.86-2.76v.02Zm3.05-1.69c-.9.54-2.07,1.06-2.9,1.59.83-.54,2-1.06,2.9-1.59Zm36.12,1.71c-.07-.1-.22-.2-.34-.31.11.1.26.21.34.31.3-.03.75-.03,1.02-.06-.26.05-.68.03-1.02.06Zm338.87-6.8c.53.28.86.61,1.05,1,.11.2.15.43.19.66,0-.25-.11-.46-.19-.66-.19-.41-.56-.74-1.05-1Zm-45.41-.32c-.34-.44-.71-.67-.98-.66.3-.02.64.2.98.66Zm-53.74-38.99c-.23-.05-.41-.12-.6-.21.19.08.41.16.6.21Zm-48.28-.88v-.05.05Zm-57.12.01c-.49.23-.94.43-1.43.59.49-.15.98-.36,1.43-.59Zm-194.23,8.5c-.23-.46-1.35-1-2.86-1.54,1.51.56,2.63,1.08,2.86,1.56v-.02Zm-2.71-2.04v-.03.03Zm-4.44-2.27c2.22.31,3.39.99,4.14,1.79-.75-.82-1.96-1.48-4.14-1.79-.41-2.66-4.51-3.74-9.06-4.83,4.55,1.1,8.65,2.17,9.06,4.83Zm-96.63,8.37c-3.54.36-5.83,1.28-6.47,2.92,3.12.1,6.21.2,9.33.3,3.76.07,7.49.14,11.25.19-3.76-.07-7.53-.14-11.25-.19-3.12-.1-6.21-.2-9.33-.3-2.97.08-5.94.18-8.92.26,2.97-.1,5.95-.18,8.92-.27.64-1.64,2.97-2.54,6.47-2.92v.02ZM32.86,38.26c-6.32-1.45-12.3-2.81-18.25-4.19,5.94,1.37,11.93,2.73,18.25,4.19Z"/>
  <path class="cls-1" d="m2.6,55.6c1.73,1.49,48.46,3.85,69.38,2.78,11.81,1.76,24.19.93,36.31,1.22,48.01,1.13,96.06,1.56,144.15,1.24,10.84.79,21.67.88,32.58.37,11.02,1.37,22.01.77,32.96-.16,4.14.71,8.24.66,12.3-.11,16.37.27,32.7,1.14,49.1.26,4.18.49,8.32.69,12.34-.16,15.16,1.73,102.57-.1,127.18-.2,1.09.23,1.96.15,2.67-.26l.08-.03c1.28.08,2.52.17,3.8.25,7.26.92,14.52.86,21.82.06,4.14.46,8.24.33,12.3-.16,7.04.91,14,.6,20.88-.23,8.01,1.28,16.33.01,24.46.51,43.91.83,87.86,1.7,131.77,2.46,24.98.43,49.97,1.18,74.95.51,16.22-.43,18.44-1.43,17.65-7.8-.11-.84.53-1.71.08-2.49-1.95-3.68.53-5.81,10.54-6.27,9.29-.45,11.1-3.35,11.78-6.72,1.25-6.48-1.95-12.7-4.13-19.04-1.46-4.35-5-6.5-15.35-6.93-3.35-.15-6.66-.56-9.97-.86-2.67-1.25-5.72-1-8.84-.35-14.71-.22-29.08-2.41-44.02-1.37-13.62-1.94-27.54-2.23-41.69-1.39-4.1-.54-8.13-.46-12.12.16-8.01-2.19-16.63-1.34-25.13-.85-7.86-.55-15.77-.7-23.67-.13-15.12-1.24-30.29-1.74-45.45-.08-4.03-.48-8.09-.96-12.34-.52-2.6-1.1-5.23-1.94-8.2-.19-1.47-.03-2.9-.05-4.36-.08-2.11-.94-4.44-1.02-7.04-.35-1.66.11-3.31.23-4.97.34-2.6-1.2-5.45-1.84-9.1-.66-10.69-.96-21.37.25-32.06-.09-12.08-2.66-24.49-.56-36.76-.38-5.49-.1-10.95-.2-16.44-.31q-.63.36,0,0c-4.48-1.27-8.47-.27-12.49.45-4.1,0-8.17,0-12.27,0-29.61-.18-59.22-.09-88.8-.6-37.85-.65-75.63-1.84-113.44-2.71-31.53-.74-109.94-5.21-117.54-2.01-6.74-.15-13.43-.3-20.17-.46-11.93-2.63-24.83-.41-37.14-1.24-4.14-.59-8.24-.32-12.3.11C60.47-.29,39.73-.13,28.26.31c-11.48.44.48,12.32-9.3,16.99-7.71,1.83.07,6.17-7.68,8-3.2.21-8.09-.74-7.75,1.9.34,3.03.86,6.09-1.21,9.05-3.01,4.34-2.83,8.71-.87,13.1-1.58,1.25-.19,2.43.45,3.62-2.11.34.64,2.62.64,2.62h.08ZM93.11,15.74c.9.03,1.77.08,2.67.13,1.69,3.94,6.99,6.37,15.61,7.37-8.62-1.01-13.88-3.44-15.61-7.37-.87-.07-1.77-.1-2.63-.13-2.86,0-5.68-.04-8.54-.04,0,.33.04.67,0,1.02.04-.33,0-.67,0-1.02,2.86,0,5.68.04,8.54.04h-.04Zm115.81,8.77c.11-.13.19-.26.26-.39.07-.13.15-.25.15-.38,0,.11-.08.25-.15.38-.08.13-.19.26-.26.39Zm6.06,1.07c0-1.74,1.36-3.59-.67-5.13,2.03,1.56.68,3.4.67,5.13Zm16.48-.73c.23-.41.23-.79.08-1.15.15.36.15.74-.08,1.16-2.15.1-4.25.21-6.4.32,2.11-.11,4.25-.23,6.36-.34h.04Zm221.17-4.89c-.04.43-.98.82-1.54,1.23.56-.41,1.51-.82,1.54-1.23Zm-44.93,6.1c.68-.08,1.36-.16,1.99-.24-.68.08-1.32.16-1.99.24Zm-175.6,1.3c-6.7,1.08-12.91,2.55-19.53,3.69,6.66-1.13,12.83-2.62,19.53-3.69Zm-21,3.94c-1.02.16-2.07.33-3.12.46,1.05-.15,2.11-.29,3.12-.46Zm-83.86-6.71c-2.29-.31-4.67-.53-7.11-.69,2.41.17,4.82.38,7.11.69Zm-42.66-7.82c-.04.28-.15.56-.38.79.23-.25.34-.51.38-.79Zm228.55,39.76c-1.24.84-1.66,1.7.86,2.74-2.52-1.03-2.11-1.92-.86-2.76v.02Zm3.05-1.69c-.9.54-2.07,1.06-2.9,1.59.83-.54,2-1.06,2.9-1.59Zm36.12,1.71c-.07-.1-.22-.2-.34-.31.11.1.26.21.34.31.3-.03.75-.03,1.02-.06-.26.05-.68.03-1.02.06Zm338.87-6.8c.53.28.86.61,1.05,1,.11.2.15.43.19.66,0-.25-.11-.46-.19-.66-.19-.41-.56-.74-1.05-1Zm-45.41-.32c-.34-.44-.71-.67-.98-.66.3-.02.64.2.98.66Zm-53.74-38.99c-.23-.05-.41-.12-.6-.21.19.08.41.16.6.21Zm-48.28-.88v-.05.05Zm-57.12.01c-.49.23-.94.43-1.43.59.49-.15.98-.36,1.43-.59Zm-194.23,8.5c-.23-.46-1.35-1-2.86-1.54,1.51.56,2.63,1.08,2.86,1.56v-.02Zm-2.71-2.04v-.03.03Zm-4.44-2.27c2.22.31,3.39.99,4.14,1.79-.75-.82-1.96-1.48-4.14-1.79-.41-2.66-4.51-3.74-9.06-4.83,4.55,1.1,8.65,2.17,9.06,4.83Zm-96.63,8.37c-3.54.36-5.83,1.28-6.47,2.92,3.12.1,6.21.2,9.33.3,3.76.07,7.49.14,11.25.19-3.76-.07-7.53-.14-11.25-.19-3.12-.1-6.21-.2-9.33-.3-2.97.08-5.94.18-8.92.26,2.97-.1,5.95-.18,8.92-.27.64-1.64,2.97-2.54,6.47-2.92v.02ZM32.86,38.26c-6.32-1.45-12.3-2.81-18.25-4.19,5.94,1.37,11.93,2.73,18.25,4.19Z"/>
  <path class="cls-1" d="m2.6,55.6c1.73,1.49,48.46,3.85,69.38,2.78,11.81,1.76,24.19.93,36.31,1.22,48.01,1.13,96.06,1.56,144.15,1.24,10.84.79,21.67.88,32.58.37,11.02,1.37,22.01.77,32.96-.16,4.14.71,8.24.66,12.3-.11,16.37.27,32.7,1.14,49.1.26,4.18.49,8.32.69,12.34-.16,15.16,1.73,102.57-.1,127.18-.2,1.09.23,1.96.15,2.67-.26l.08-.03c1.28.08,2.52.17,3.8.25,7.26.92,14.52.86,21.82.06,4.14.46,8.24.33,12.3-.16,7.04.91,14,.6,20.88-.23,8.01,1.28,16.33.01,24.46.51,43.91.83,87.86,1.7,131.77,2.46,24.98.43,49.97,1.18,74.95.51,16.22-.43,18.44-1.43,17.65-7.8-.11-.84.53-1.71.08-2.49-1.95-3.68.53-5.81,10.54-6.27,9.29-.45,11.1-3.35,11.78-6.72,1.25-6.48-1.95-12.7-4.13-19.04-1.46-4.35-5-6.5-15.35-6.93-3.35-.15-6.66-.56-9.97-.86-2.67-1.25-5.72-1-8.84-.35-14.71-.22-29.08-2.41-44.02-1.37-13.62-1.94-27.54-2.23-41.69-1.39-4.1-.54-8.13-.46-12.12.16-8.01-2.19-16.63-1.34-25.13-.85-7.86-.55-15.77-.7-23.67-.13-15.12-1.24-30.29-1.74-45.45-.08-4.03-.48-8.09-.96-12.34-.52-2.6-1.1-5.23-1.94-8.2-.19-1.47-.03-2.9-.05-4.36-.08-2.11-.94-4.44-1.02-7.04-.35-1.66.11-3.31.23-4.97.34-2.6-1.2-5.45-1.84-9.1-.66-10.69-.96-21.37.25-32.06-.09-12.08-2.66-24.49-.56-36.76-.38-5.49-.1-10.95-.2-16.44-.31q-.63.36,0,0c-4.48-1.27-8.47-.27-12.49.45-4.1,0-8.17,0-12.27,0-29.61-.18-59.22-.09-88.8-.6-37.85-.65-75.63-1.84-113.44-2.71-31.53-.74-109.94-5.21-117.54-2.01-6.74-.15-13.43-.3-20.17-.46-11.93-2.63-24.83-.41-37.14-1.24-4.14-.59-8.24-.32-12.3.11C60.47-.29,39.73-.13,28.26.31c-11.48.44.48,12.32-9.3,16.99-7.71,1.83.07,6.17-7.68,8-3.2.21-8.09-.74-7.75,1.9.34,3.03.86,6.09-1.21,9.05-3.01,4.34-2.83,8.71-.87,13.1-1.58,1.25-.19,2.43.45,3.62-2.11.34.64,2.62.64,2.62h.08ZM93.11,15.74c.9.03,1.77.08,2.67.13,1.69,3.94,6.99,6.37,15.61,7.37-8.62-1.01-13.88-3.44-15.61-7.37-.87-.07-1.77-.1-2.63-.13-2.86,0-5.68-.04-8.54-.04,0,.33.04.67,0,1.02.04-.33,0-.67,0-1.02,2.86,0,5.68.04,8.54.04h-.04Zm115.81,8.77c.11-.13.19-.26.26-.39.07-.13.15-.25.15-.38,0,.11-.08.25-.15.38-.08.13-.19.26-.26.39Zm6.06,1.07c0-1.74,1.36-3.59-.67-5.13,2.03,1.56.68,3.4.67,5.13Zm16.48-.73c.23-.41.23-.79.08-1.15.15.36.15.74-.08,1.16-2.15.1-4.25.21-6.4.32,2.11-.11,4.25-.23,6.36-.34h.04Zm221.17-4.89c-.04.43-.98.82-1.54,1.23.56-.41,1.51-.82,1.54-1.23Zm-44.93,6.1c.68-.08,1.36-.16,1.99-.24-.68.08-1.32.16-1.99.24Zm-175.6,1.3c-6.7,1.08-12.91,2.55-19.53,3.69,6.66-1.13,12.83-2.62,19.53-3.69Zm-21,3.94c-1.02.16-2.07.33-3.12.46,1.05-.15,2.11-.29,3.12-.46Zm-83.86-6.71c-2.29-.31-4.67-.53-7.11-.69,2.41.17,4.82.38,7.11.69Zm-42.66-7.82c-.04.28-.15.56-.38.79.23-.25.34-.51.38-.79Zm228.55,39.76c-1.24.84-1.66,1.7.86,2.74-2.52-1.03-2.11-1.92-.86-2.76v.02Zm3.05-1.69c-.9.54-2.07,1.06-2.9,1.59.83-.54,2-1.06,2.9-1.59Zm36.12,1.71c-.07-.1-.22-.2-.34-.31.11.1.26.21.34.31.3-.03.75-.03,1.02-.06-.26.05-.68.03-1.02.06Zm338.87-6.8c.53.28.86.61,1.05,1,.11.2.15.43.19.66,0-.25-.11-.46-.19-.66-.19-.41-.56-.74-1.05-1Zm-45.41-.32c-.34-.44-.71-.67-.98-.66.3-.02.64.2.98.66Zm-53.74-38.99c-.23-.05-.41-.12-.6-.21.19.08.41.16.6.21Zm-48.28-.88v-.05.05Zm-57.12.01c-.49.23-.94.43-1.43.59.49-.15.98-.36,1.43-.59Zm-194.23,8.5c-.23-.46-1.35-1-2.86-1.54,1.51.56,2.63,1.08,2.86,1.56v-.02Zm-2.71-2.04v-.03.03Zm-4.44-2.27c2.22.31,3.39.99,4.14,1.79-.75-.82-1.96-1.48-4.14-1.79-.41-2.66-4.51-3.74-9.06-4.83,4.55,1.1,8.65,2.17,9.06,4.83Zm-96.63,8.37c-3.54.36-5.83,1.28-6.47,2.92,3.12.1,6.21.2,9.33.3,3.76.07,7.49.14,11.25.19-3.76-.07-7.53-.14-11.25-.19-3.12-.1-6.21-.2-9.33-.3-2.97.08-5.94.18-8.92.26,2.97-.1,5.95-.18,8.92-.27.64-1.64,2.97-2.54,6.47-2.92v.02ZM32.86,38.26c-6.32-1.45-12.3-2.81-18.25-4.19,5.94,1.37,11.93,2.73,18.25,4.19Z"/>
</svg>