<?xml version="1.0" encoding="UTF-8"?>
<svg id="Layer_2" data-name="Layer 2" xmlns="http://www.w3.org/2000/svg" viewBox="0 0 129.77 267.88">
  <defs>
    <style>
      .cls-1 {
        fill: #012d2e;
        stroke-width: 0px;
      }
    </style>
  </defs>
  <g id="Layer_1-2" data-name="Layer 1">
    <path class="cls-1" d="m121.25,144.69c-4.69,4.03-10.23,6.35-16.04,8.17-9.96,3.13-20.21,4.27-30.57,4.28-4.33,0-8.72,0-13.03-.85-1.13-.22-2.26-.4-3.42-.18-.94-.16-1.88-.32-2.81-.47-2.48-1.65-5.43-2.06-8.14-3.11-2.79-1.32-5.27-3.27-8.33-4.05.25-1.71-1.54-1.79-2.27-2.71-.63-.79-1.52-1.31-1-2.5,5.65-3.48,11.35-6.88,17.34-9.79,6.11-2.97,12.51-5.11,19.01-7.04,7.34-2.18,14.88-2.94,22.43-3.06,6.39-.1,12.85.29,18.99,2.59,2.07.78,3.92,1.84,5.68,3.16,3.44,2.58,4.52,6.21,4.73,10.23.11,2.18-.91,3.9-2.55,5.32m-73.84,13.67c.18.08.36.16.55.24-.18-.08-.36-.16-.55-.24Zm-1.82-3.38c.1.06.19.2.28.32-.09-.12-.18-.27-.28-.32Zm-29.17,64.66c-.23,0-.42-.06-.57-.14.15.09.34.13.57.14Zm-14.1-44.04c.34,0,.52.24.61.55l-.03.03c-.28-.08-.55-.16-.83-.23.08-.12.16-.35.25-.35Zm2.6-2.69c.17-.22.33-.45.49-.68-.16.23-.33.46-.49.68Zm6.09-8.4c-.06-.13-.1-.31-.17-.42.07.11.11.29.17.41h0Zm-.8,4.68c0,.14-.15.34-.22.5.07-.17.22-.37.22-.5Zm-7.61,14.24c.08,0,.2,0,.23.05.06.07.07.18.09.28-.11-.11-.22-.22-.33-.32m58.32,67.81s.1.07.15.1c-.05-.03-.1-.06-.15-.1ZM11.8,86.31c.18-.09.36-.18.54-.26-.18.09-.36.18-.54.26Zm3.74,21.44s.04-.1.06-.14c-.01.04-.04.1-.06.14-.02.05-.03.09-.02.11-.02-.02,0-.06.02-.11ZM46.35,29.11c-.12-.17-.23-.36-.33-.55.1.2.21.38.33.55Zm2.84,1.99c-.86-.31-1.61-.72-2.22-1.28.6.56,1.36.97,2.22,1.28Zm0-2.05c0-.14.05-.24.1-.29-.06.05-.09.15-.1.29Zm80.17,114.71c-.6-3.02-1.72-5.96-2.8-8.87-1.34-3.61-2.79-7.29-5.2-10.25-3.9-4.79-9.2-7.36-15.37-8.16-15.57-2.01-30.76-.64-45.67,4.46-11.37,3.89-22,9.11-31.82,15.99-1.1-.23-1.62-.91-2.12-1.95-1.39-2.87-3.05-5.61-4.61-8.4.46-.78.02-1.33-.49-1.86,0-.2-.09-.35-.26-.45-1.74-5.46-2.97-11.06-3.6-16.72-1.26-11.44.26-22.58,4.61-33.28,1.37-3.37,2.81-6.71,4.22-10.07.16-.19.18-.4.06-.61,1.53-.99,2.07-2.65,2.83-4.16.16-.11.25-.26.27-.45,1.71-1.71,2.66-3.95,4.03-5.89,7.83-11.07,17.31-20.62,27.3-29.72.73-.66,1.81-1.11,1.8-2.36-.09-.1-.18-.21-.27-.31.28-1,.5-1.76.59-2.34.04-.22.05-.42.05-.59,0,.18-.02.37-.05.59-.09.59-.31,1.34-.59,2.34.09.1.18.2.27.31.33-.09.73-.09.98-.28,8.63-7.01,18.69-11.33,28.92-15.29,1.26-.49,1.55-1.19.91-2.37-1.65-3.07-4.12-3.84-7.48-2.31-4.89,2.22-9.88,4.23-14.63,6.72-4.3,2.25-9.16,3.71-12.33,7.78-.95.89-1.91,1.77-2.86,2.66-1.9,1.28-3.93,2.42-4.79,4.75-.21.08-.42.16-.63.24-.96.1-1.51.67-1.78,1.56-.38.37-.76.73-1.15,1.1-.93.42-1.71.98-2.03,2.01-6.42,4.46-11.58,10.11-15.82,16.64-1.27,2.13-3.42,3.61-4.37,5.97-.64.34-1.09.83-1.26,1.55-2.94,3.86-5.03,8.26-7.68,12.31-.87.79-1.15,1.83-1.23,2.94-.53.87-1.03,1.76-1.16,2.8-.56.59-.84,1.28-.8,2.1-.62,1.08-1.1,2.2-1.21,3.45-.8,1-.98,2.17-.97,3.4-.12.59-.24,1.18-.37,1.77-.49.52-.68,1.07-.22,1.7-.57,1.21-.38,2.53-.53,3.8-.66.79-.57,1.67-.36,2.58-.18,2.48-.36,4.96-.54,7.45-.25,1.21-.25,2.39.44,3.48.47,6.9,1.94,13.61,4.53,19.99,1.67,4.11,3.55,8.15,6.04,11.93,1.75,2.66,4.04,5,5.17,8.07-2.33,1.63-4.79,3.11-6.95,4.94-2.69,2.27-5.27,4.72-6.61,8.12-.55.18-.75.66-.94,1.14-2.03,2.04-3.5,4.45-4.83,6.99-3.9,7.44-5.73,15.42-5.92,23.74-.12,5.33-.36,10.74,1.61,15.89.13.42.26.84.4,1.26,2.36,1.47,1.71,3.87,1.84,6.02,1.97,4.5,5.07,8.23,8.03,12.07.62,1.78,2.15,2.89,3.28,4.24,2.97,3.52,6.17,6.88,10.38,9.01h0c.24.77.82,1.06,1.56,1.11.16.17.36.27.59.29,1.39,1.28,2.93,2.31,4.83,2.67.28.49.75.67,1.27.78,1.12,1.48,2.9,1.78,4.47,2.29,6.36,2.08,12.64,4.46,19.41,5.04,1.31.11,3.1-.44,3.86.7,1,1.51-1.35,2.41-1.4,3.89,0,.11,0,.23.01.34-.12.21-.24.42-.36.63-1.44.59-1.62,2.12-2.39,3.22-1.8,2.58-2.53,5.14-.17,7.93,1.14,1.35.86,3.45,2.34,4.83,1.64,1.53,1.62,1.75,3.02-.03,3.15-4.01,5.9-8.3,8.15-12.89l.03-.03c.78-.2,1.11-.78,1.24-1.51,2.62-3.43,5.66-6.49,8.69-9.53,1.09-1.09,1.35-2.08.78-3.33-.72-1.57-1.2-3.12-1.26-4.91-.06-2.15-3.12-5.8-4.73-5.71-2.49.14-4.42-1.06-6.29-2.28-4.96-3.24-10.09-6.27-14.32-10.51-.89-.9-1.84-1.21-3.09-.53-1.35.74-1.09,1.87-.94,3,.1.71.54,1.25.98,1.79.94,1.15,1.64,2.5,2.52,3.66,2.33,3.06,4.85,6,8.05,8.25-.22.45-.6.66-1.08.73-4.12.56-8.31.65-12.35.02-6.81-1.05-13.45-2.96-19.85-5.63-1.25-.52-2.3-1.57-3.78-1.54-.76,1.02-1.18,1.6-1.62,1.82.44-.22.86-.79,1.62-1.82l-.15-.12c-.36-.65-.89-.99-1.65-.96-2.26-1.65-4.53-3.3-6.79-4.95-.19-.73-.59-1.27-1.37-1.44-.37-.38-.75-.76-1.12-1.15-1.29-2.88-3.04-5.5-3.76-8.69-1.89-8.44-1.45-16.86-.23-25.31,1-6.88,3.19-13.32,6.82-19.28,1.13-1.85,2.5-3.57,3.16-5.68.33-.3.67-.6,1-.9,1.11-1.4,2.64-2.49,3.23-4.28-.48-.22-.8-.37-1.05-.42-.15-.03-.26-.02-.36.02.1-.05.22-.05.36-.02.24.05.57.2,1.05.42,1.24-1.12,2.46-2.26,3.72-3.35,1.08-.94,2.06-2.11,3.71-2.03.24.61.66.98,1.33,1.02.22.24.43.48.65.72.82,1.47,1.83,2.77,3.38,3.54.14.9.93,1.28,1.48,1.84,2.94,2.98,6.52,5.05,10.23,6.89,5.57,2.77,11.31,4.98,17.56,5.74,8.7,1.05,17.38.85,26.09.12,3.45-.29,6.82-.74,10.19-1.52,7.42-1.7,14.53-4.17,20.76-8.62,5.54-3.97,6.92-7.3,5.7-13.49"/>
  </g>
</svg>