<?xml version="1.0" encoding="UTF-8"?><svg id="Layer_2" xmlns="http://www.w3.org/2000/svg" viewBox="0 0 921.44 512.95"><defs><style>.cls-1{fill:#eedcb6;}.cls-1,.cls-2,.cls-3,.cls-4,.cls-5,.cls-6,.cls-7,.cls-8,.cls-9,.cls-10,.cls-11,.cls-12,.cls-13,.cls-14,.cls-15,.cls-16,.cls-17,.cls-18,.cls-19,.cls-20,.cls-21,.cls-22,.cls-23,.cls-24,.cls-25,.cls-26,.cls-27,.cls-28,.cls-29,.cls-30,.cls-31,.cls-32,.cls-33,.cls-34,.cls-35,.cls-36,.cls-37,.cls-38,.cls-39,.cls-40,.cls-41,.cls-42,.cls-43,.cls-44,.cls-45,.cls-46,.cls-47,.cls-48{stroke-width:0px;}.cls-2{fill:#eedcb7;}.cls-3{fill:#eedab3;}.cls-4{fill:#eeddb9;}.cls-5{fill:#eedbb2;}.cls-6{fill:#eed5a1;}.cls-7{fill:#eedab0;}.cls-8{fill:#eed9b0;}.cls-9{fill:#eedebc;}.cls-10{fill:#eed9ad;}.cls-11{fill:#eed8ac;}.cls-12{fill:#eedab2;}.cls-13{fill:#eee2c8;}.cls-14{fill:#eedcb8;}.cls-15{fill:#eed7a6;}.cls-16{fill:#eedfbf;}.cls-17{fill:#eed8ad;}.cls-18{fill:#eee0c3;}.cls-19{fill:#eee0c2;}.cls-20{fill:#eed8a9;}.cls-21{fill:#eedebd;}.cls-22{fill:#022d2f;}.cls-23{fill:#eed6a6;}.cls-24{fill:#eed8a8;}.cls-25{fill:#eed8aa;}.cls-26{fill:#eed9af;}.cls-27{fill:#eed5a3;}.cls-28{fill:#eed9ae;}.cls-29{fill:#eed6a5;}.cls-30{fill:#eedbb5;}.cls-31{fill:#eed5a2;}.cls-32{fill:#eedcb9;}.cls-33{fill:#eedebe;}.cls-34{fill:#eed7a8;}.cls-35{fill:#eed7a9;}.cls-36{fill:#eedbb4;}.cls-37{fill:#eeddba;}.cls-38{fill:#eee0c1;}.cls-39{fill:#eed6a4;}.cls-40{fill:#eedcb5;}.cls-41{fill:#eedab1;}.cls-42{fill:#eed8ab;}.cls-43{fill:#eee0c4;}.cls-44{fill:#eed9ac;}.cls-45{fill:#edb;}.cls-46{fill:#eed7a7;}.cls-47{fill:#eed6a3;}.cls-48{fill:#eedbb3;}</style></defs><g id="Layer_1-2"><path class="cls-39" d="M883.85,305.06c4.36-.86,6.84.47,6.07,5.36-.85,5.45-5.36,10.72-.68,16.4-2.84,3.51-3.2,9.5-9.53,9.53-5.52-2.57-11.61.44-17.16-1.78.64.84,1.73,1.1,2.43,1.87.85,10.53,7.54,19.17,9.51,29.37.52,2.71,2.33,4.95,4.41,6.93,3.38,3.23,5.51,7.1,4.85,12.03-8.45,3.67-12.96-1.13-16.64-7.72-4.04-4.98-10.17-8.54-10.88-15.8-.33-2.24-.68-4.48-1.93-6.45-1.26-1.88-2.9-3.47-4.04-5.44-2.36-2.98-2.55-6.14-1.38-9.74,1.65-5.11-.43-8.5-5.57-10.01,2.27-5.61,8.58-3.79,12.31-6.73,7.06-3.09,14.9-3.93,21.81-7.5,0-.68.07-1.36.22-2.03,5.55-.15,3.39-6.08,6.22-8.28Z"/><path class="cls-41" d="M389.88,281.78c-11.88.03-17.31-9.61-23.64-16.92-6.5-7.5-10.85-16.59-13.09-26.7-2.34-10.54.42-20.16,3.1-29.98,2.09,9.5,10.21,4.53,15.47,6.43-.54,16.91,4.75,32.18,13.04,46.59.18,1.23-2.15,1.79-1.09,3.04.48.56,1.88-.23,2.91-.18,4.57,1.42,7.77,4.05,8.24,9.14-.54,1.69-1.62,3.91-3.01,3.87-5.57-.17-1.06,3.29-1.93,4.71Z"/><path class="cls-39" d="M165.04,277.6c-.96-2.07-3.06-2.88-4.85-3.48-8.72-2.92-14.36-8.47-16.21-17.62-.65-2.97.41-7.68-5.49-5.17-1.89.8-3.79,2.56-5.87,1.74-2.53-1-6.29-.81-7.31-3.32-1.12-2.73,2.38-3.73,4.26-5.07,2.28-1.63,2.47-5.18,5.6-5.96.34.01.72-.06,1.03.05,2.23.8,4.37,1.86,6.67,2.49-2.2-.96-4.8-1.34-5.83-4.01.75-3.77,3.99-4.18,6.84-5.12,3.03-.56,4.95.98,6.38,3.41.92.47,1.82,1.01,2.78,1.39,10.61,4.13,11.72,5.74,11.96,17.49,1.31,5.57,2.8-.38,4.19.07l.12.04c4.04-2.49,5.51.53,6.65,3.38,1.25,3.13,2.1,6.44,2.44,9.82-.1.97-.51,1.79-1.26,2.43-1.9,1.33-5.24,1.73-3.48,5.44,1.26,2.64,2.09,5.35,1.96,8.3-.07,1.5-.43,2.93-1.11,4.27-4.52,4.59-7.3,4.97-7.88-2.73-.19-2.55.21-5.5-1.59-7.83Z"/><path class="cls-23" d="M259.63,65.48c-.72,1.38-1.44,2.76-2.16,4.14-2.77,1.1-5.57,2-8.61,1.7-3.04-.67-5.6-3.08-9.01-2.46-2.97,0-5.12-1.26-6.24-4.09-.28-1.21-.31-2.47-.63-3.66-2.84-2.35-4.81.78-7.19,1.13-1.43.32-2.79.17-4.04-.64-.2-4.96-.78-9.69-6.87-10.94-5.74-2.48-9.28,2.74-13.95,4-4.65.63-9.4,1.8-13.13-2.44.49-.77.6-2.62.19-2.58-2.3.25-4.1-.21-4.54-2.88.55-.9,1.31-1.56,2.25-2.02,1.92-.73,3.94-.87,5.96-.91,6,1.7,9.28-2.86,13.25-5.8,2.76,0,5.51,0,8.27.01,2.69,1.8,6.11,1.35,8.89,2.88,2.52,1.15,4.99,2.39,7.43,3.7,1.84,1.02,3.33,2.52,5.07,3.65,1.3.85,3.04,2.92,4.28.75.81-1.42-1.62-2.78-2.41-4.29-2.08-8.86-.44-11.43,7.83-12.15,2.99-.26,6.14,1.08,8.97-.88,2.6-1.51,5.31-2.61,8.41-2.11,3.18,1.98,3.19,4.33.14,6.14-3.21,1.9-3.42,4.61-3.16,7.72-.53,2.28-2.05,4.03-3.19,5.98-1.23,2.25-2.82,4.31-3.52,6.79,1.6,4.94,5.39-.94,7.77,1.61,1.3,1.39,4.02,1.69,4.22,4.06.23,2.86-3.34,1.76-4.28,3.58Z"/><path class="cls-11" d="M303.73,330.13c.56,4.33-.62,8.22-2.77,11.96-4.25,7.41-5.91,15.47-5.76,23.97.04,2.41.1,4.98-.63,7.23-5.74,17.69.7,15.82-22.5,26.14-6.6-1.24-1.02-5.06-1.6-7.58-4.98,1.63-6.99-.98-7.72-5.41.37-1.38.91-2.88,2.19-3.42,13.87-5.83,17.52-17.39,18.52-31.1.74-10.07,2.75-20.09,10.12-27.94.85-.6,1.81-.92,2.86-.97,3.73,1.03,4.6,5.01,7.29,7.12Z"/><path class="cls-23" d="M165.04,277.6c1.02,3.79,7.56,6.02,3.25,11.66-.28.37,3.22-1.12,5.06-1.18,2.02,2.2,1.69,5.27-.1,6.45-8.07,5.31-3.58,11.5-1.78,17.56-1.98,17.22,6.87,28.71,19.67,38.57,6.28,4.83,9.73,11.68,8.64,20.09-2.9,4.08-5.29,2.54-7.51-.69-4.71-8.3-13.67-12.42-19.3-20.02-7.57-10.23-12.58-21.9-15.66-33.6-2.4-9.1,1.05-19.67,4.94-29.01,1.32-3.17,3.36-6.13,2.8-9.83Z"/><path class="cls-7" d="M545.52,319.57c4.75,8.85,5.04,18.14,2.91,27.74-.59,2.66-.66,5.44-.97,8.16.5,1.75-.15,2.37-1.89,1.91-7.65,1.16-9.42,7.98-12.67,13.31-1.04,1.7-1.47,3.77-2.18,5.67-2.04,1.68-3.67.97-5.1-.88-1-2.57,1.87-5.1,1.71-5.81-.79-3.53-2.25-6.6,2.55-8.25-2.95-1.32-7.05-.71-8.25-4.96,8.38-11.66,10.93-24.6,8.47-38.64.06-3.56-.04-7.1-.86-10.59-.17-1.58.05-3.08.92-4.43,5.62-.45,11.48-1.72,15.31,4.27.04.68-.02,1.36-.16,2.03-3.38,3.55-3.62,7.04.21,10.45Z"/><path class="cls-5" d="M593.79,27.47c17.21-11.64,36.74-12.97,56.62-12.71,1.82.02,3.45.36,4.41,2.14-3.83,4.14-3.84,10.44-8.13,14.34-15.54,1.24-30.23,6.15-45.08,10.38-3.68-.42-7.04-1.63-9.94-3.99-5.3-4.62-.45-7.15,2.11-10.15Z"/><path class="cls-27" d="M402.31,124.26c-3.42-2.23-6.05-4.63-1.79-8.49,2.15-2.97,5.4-4.73,7.97-7.23,2.33-1.43,4.95-2.13,7.54-2.86,1.24-.32,2.51-.53,3.77-.77,1.9-.68,4.08-.57,5.72-2,.79-1.11,1.59-2.21,2.37-3.32q7.07-10.03-.16-19.61c-1.7-2.43-2.77-5.21-.5-7.55,2.38-2.46,4.45.22,6.22,1.5,3.23,2.31,6.74,3.42,10.63,3.55,4.62.7,8.76,2.57,12.63,5.11,2.6,1.9,4.12,5.92,8.51,4.33,3.05-.68,5.53-2.29,7.65-4.54,1.17-.96,2.48-1.43,4.01-1.3,2.69.91,4.37,2.51,3.89,5.61-8.66,11.02-20.46,14.87-33.89,14.07-5.41-.32-9.37.97-12.52,5.35-3.59,4.98-8.64,7.82-14.55,9.23-7.79-.87-10.23,8.78-17.51,8.93Z"/><path class="cls-15" d="M421.41,107.32c-1.41,0-2.81,0-4.22,0-2.62-.96-5.6-1.53-5.74-5.22-.23-2.98.77-6.13-1.15-8.9-.32-.72-.66-1.43-.98-2.02-.86-.12.1.4-.1.45.22.54.43,1.07.68,1.65-.04,5.43,3.92,11.1-1.1,16.14-.27,5.36-4.64,5.38-8.28,6.35-1.65-4.07-3.81-7.17-9.08-6.33-4.22.67-7.48-1.42-9.22-5.17-2.12-4.59,1.9-6.85,4.39-9.46,3.73-3.91,7.28-8.99,13.78-4.33.64.75.84,1.69,1.1,2.6-.08-.99-.46-1.85-1.15-2.57-.63-5.7-.16-10.95,5.11-14.67,1.6-1.13,3.13-1.96,4.29-.1,4.57,7.32,13.08,12.64,11.78,22.96,1.49,2.89.94,5.76-.13,8.62Z"/><path class="cls-34" d="M228.03,500.42c-6.2.26-10.28-2.6-13.58-7.87-8.03-12.8-13.26-26.41-16.12-41.34-1.71-8.9.4-17.79-1.9-26.46-.65-3.2-1.67-6.4-.16-9.64,1.3-3.28,3.28-5.1,6.97-3.29,2.8,6.04-.11,13.31,4.16,19.03,5.15,10.28,4.19,21.77,6.41,32.64,1.77,8.67,4.33,16.85,10.77,23.3,2.36,4.24,6.49,8.04,3.45,13.64Z"/><path class="cls-29" d="M715.76,256.55c-6.03-5.16-5.63-13.84-10.79-19.57-3.14-3.49-6.4-6.87-6.74-12.39-.2-3.25-3.31-6.03-7.54-5.64-5.9-4.6-5.61-6.4,1.66-10.5,7.45.2,9.83,6.85,13.91,11.21,6.4,6.83,10.57,15.26,15.73,22.98,4.24,5.39,1.32,12.38,4.05,18.12,5.66,6.21,7.27,14.86,12.74,21.19,2.03,3.47.78,6.1-2.11,8.33-1.39-.04-2.78-.08-4.17-.11-4.24-1.78-5.81-6.04-8.58-9.19-3.5-7.88-5.28-16.33-8.16-24.42Z"/><path class="cls-47" d="M837.63,40.04c12.94-2.86,22.18,6.09,32.9,10.32,1.82.72,2.73,2.1,2.61,4.03-.3,5.03-2.27,9.4-6.1,12.6-1.41,1.18-3.29.08-4.24-1.69-8.99.19-16.45-1.8-17.88-12.5-.03-.21-.14.4-.24.6-2.48,4.76-6.7,3.76-10.77,3.3-3.64-1-5.53-4.3-8.37-6.35-2.71-2.55-8.2-2.87-7.03-8.59,6.1-3.66,12.54-3.48,19.12-1.71Z"/><path class="cls-25" d="M820.76,166.18c-3.78,1.75-7.17,3.56-9.43,7.64-2.13,3.82-5.31,7.5-10.7,7.16-2.08-.13-5.23-.1-4.72-2.64,1.52-7.63-5.07-7.45-8.79-10.06,2.57-2.56,2.16-4.97-.55-7.04-2.89-2.22-5.27-4.64-4.93-8.66.38-4.56-3.73-7.23-4.74-11.22-.57-3.62-.92-7.18,2.72-9.6.96-.29,1.94-.29,2.92-.05,4.08,4.7,13.57,5.22,11.44,14.75,4.21,9.33,11.23,9.54,19.41,6.01,3.42.91,5.56,3.67,8.14,5.74,3.58,2.88,2.86,5.64-.76,7.98Z"/><path class="cls-29" d="M30.45,50.62c1.23-.67,2.83-1.04,3.63-2.05,7.05-8.84,17.24-10.63,27.37-13.18,5.05-1.27,9.35-1.01,14.2.23,4.83,1.23,9.59,2.84,15.11.6,4.38-1.78,9.6-.64,14.13,1.97,3.58,2.06,7.12,4.61,11.67,3.93,5.39.63,5.92,3.06,1.58,5.81-3.24,2.05-7.35,1.22-11.11,1.09-6.77-1.96-13.5-3.16-20.56-.85-4.11,1.35-8.33.54-12.1-1.81-8.08-5.04-14.93-3.89-21.41,3.28-5.47,6.06-12.6,8.58-20.89,6.57-2.14-1.4-3.43-3.05-1.61-5.59Z"/><path class="cls-39" d="M255.15,124.32c-3.07-.36-.34-6.19-4.36-5.04-3.26.93-6.71-3.63-8.33-.84-1.85,3.19,3.98,4.44,4.57,7.72.3,4.58-3.02,3.83-5.54,3.43-3.07-.49-5.88-2.11-8.96-2.72-4.25-.96-8.23-2.48-11.48-5.53-1.56-1.62-2.6-3.49-2.68-5.8.55-3.97,2.84-7,5.39-9.89,5.22-4.09,11.19-3.2,17.12-2.6,3.88,1.46,8.93-.71,11.78,4.35,1.6,2.84,4.37.78,6.33-.21,5.04-2.54,7.4.11,9.15,4.29,2.9,1.49,1.78,4.1,1.78,6.4-.54,1.39-1.22,2.65-2.76,3.16-4.91-2.25-7.58,3.72-12,3.28Z"/><path class="cls-14" d="M444.71,79.84c-4.95.74-9.33-.5-13.26-3.59-1.22-.96-1.22-3.55-3.08-3.03-.61.17-.47,3.06-.63,4.72-.06.67,0,1.35,0,2.03-3.74-1.71-5.27-4.33-3.23-8.26.94-1.82,1.71-3.94,3.17-5.24,9.89-8.88,18.8-19.09,31.63-24.11,4.38,1.56,3.13,6.42,5.43,9.21.77,1.22,1.39,2.49,1.49,3.96-.6,2.66-2.82,3.79-4.8,5.15-4.97,3.17-9.03,7.55-14,10.68-3.46,2.18-4.31,4.86-2.71,8.49Z"/><path class="cls-36" d="M513.9,50.53c3.3.48,5.69-1.3,8.49-2.75,8.48-4.41,17.25-8.34,27.23-7.74.37,7.19,7.81,9.05,10.78,14.3-18.2,3.74-34.22,14.09-52.6,17.27-2.41.42-4.82.37-7.14-.52-1-.43-1.7-1.17-2.1-2.18.73-4.27,4.81-4.82,7.68-6.21,5.33-2.57,7.75-6.44,7.67-12.16Z"/><path class="cls-7" d="M690.5,27.23c13.4,8.48,26.06,1.19,38.91-1.84,3.51-.83,7.37-3.69,9.4,2.06-.76,5.19-1.24,10.43-2.75,15.51-7.87,4.1-16.34,5.92-25.08,6.04-6,.08-11.94-.78-14.83-7.35-.15-1.99.93-3.2,2.61-3.99.91-.43,1.85-.91,2.84-.18-.7-1.14-1.82-.25-2.67-.53-4.71-1.57-9.08-3.49-8.44-9.72Z"/><path class="cls-34" d="M385.64,27.4c-3.14,3.47-10.13,3.17-9.71,10.31.09,1.48-2.63,1.73-4.2,2.41-8.85,3.83-17.53,7.96-25.74,13.11-4.03,2.52-8.08,5.57-13.14,5.61-3.62.03-5.12,3.32-7.96,4.44-3.74,2.22-6.51,1.67-7.93-2.76-.11-5.45,3.35-8.76,7.84-9.91,18.58-4.74,33.06-16.12,47.25-28.08,1.34-1.13,2.78-2.12,4.45-2.73,1.57-.41,3.12-.33,4.64.27,2.37,1.9,5.29,3.49,4.5,7.34Z"/><path class="cls-11" d="M623.11,210.61c-5.56-.92-11.53.98-16.74-2.43-6.97-4.52-15.96-1.89-22.91-6.45-5.79-2.45-10.34-9.15-18-5.2-2.66,1.69-5.32,3.38-8.71,2.41-5.61-3.21-8.41-7.7-4.73-13.76,3.47-5.72,8.87-7.56,15.38-5.37,5.68,1.91,10.43,5.58,15.65,8.34,9.1,4.82,19.38,5.44,29.04,8.25,3.24,5.06,9.88,7.5,11,14.21Z"/><path class="cls-48" d="M450.88,382.66c-3.29-7.37-9.79-14.15-4.2-23.13,2.36-7.62.43-15.75,3.23-23.47,1.53-4.21,3.05-7.43,7.39-8.84,1.96-.61,3.62-2.49,5.99-1.42,4.93,12.98,5.54,25.93-.2,38.84-2.52,2.98-3.74,6.06-3.53,10.35.26,5.13-1.94,9.5-8.69,7.66Z"/><path class="cls-15" d="M308.01,6.57c4.86-.09,9.73-.17,14.59-.26,1.17,2.34.18,4.28-1.11,6.17-9.1,6.49-20.17,5.9-30.37,8.42-4.59-.1-8.07-4.42-12.96-3.4-7.66,3.37-10.57-1.7-13.12-7.4-.98-2.93.9-4.4,2.92-5.8,1.41.06,2.82.11,4.23.17,4.21,1.37,8.4,1.81,12.54-.29,6.65-5.05,14.36-4.23,21.96-3.95,1.46.06,2.88.62,2.58,2.36-.3,1.69-2.06,1.57-3.36,1.89-.44.7-1.96,1.13-1.22,2.05.8.99,2.2.81,3.32.03Z"/><path class="cls-29" d="M381.34,165.95c.85-1.92,2.54-1.94,4.26-1.91,1.93-1.26,3.96-2.31,6.18-3,1.87-.24,3.72.11,5.57.21,2.48.08,4.77-.83,7.13-1.43,7.03-.84,13.15-4.47,19.79-6.42,7.79-2.29,15.61-3.54,21.23,4.64-1.61,6.88-7.31,6.29-12.39,6.83-14.53,3.89-29.34,6.86-43.26,12.77-2.32,2.57-4.81,4.83-8.11,6.2-8.11,3.36-9.64,2.26-9.34-7.05.44-5.7,6.71-6.6,8.94-10.83Z"/><path class="cls-28" d="M265.86,10.62c1.58-.67,3.14-1.42,4.76-1.95.57-.19,1.44-.03,1.96.31,1.44.94.17,1.71-.36,2.43-1.08,1.49-4.79,1.72-3.22,4.26,1.37,2.23,4.35,1.46,6.68.55.96-.38,1.86-.91,2.79-1.38,3.84,2.59,6.62,7.23,12.26,6.31,2.86.21,5.75-.57,8.6.22.94.29,1.78.77,2.53,1.39.49.84.73,1.75.75,2.71-1.23,3.66-.03,7.07,1.18,10.48.15,3.82,1.6,7.26,3.22,10.65.68,3.12-.45,5.81-1.91,8.44-3.69,4-4.64,9.01-5.59,14.15-.7,3.77-2.21,7.26-6.5,2.47-3.78-4.98-2.22-9.89.21-14.78,5.5-5.47,1.49-12.97,4.08-19.06-1.4-2.75-3.45-4.85-6.23-6.21-5.05-3.5-11.38-1.87-16.73-4.18-.67-.71-1.9-1.41-1.92-2.14-.15-6.1-2.1-7.51-6.97-3.12-.88.79-2.51.76-3.79,1.11-.47-.94-.47-2.06-.95-2.96-1.39-2.65-6.92-3.33-5.17-6.84,1.76-3.51,6.47-3.14,10.31-2.85Z"/><path class="cls-15" d="M820.78,290.22c9.82-3.36,10.42-3.64,16.01,4.53,5.6,8.2,13.35,8.63,21.8,8.06,1.77,1.15,3.68,2.45,2.77,4.86-1.27,3.41-4.27,2.74-6.99,2.41-2.31-.25-4.56-1.03-6.94-.98-.11,0-.47-.1-.99.04-.16.04.26,0,.42.14,1.91.27,3.32,1.17,4.27,2.78-1.8,6.46-.41,15.61-11.78,14.05-1.85-.94-1.86-2.66-1.84-4.38,1.38-2.86.65-4.93-2.31-6.16-2.96.13-5.62-.84-8.18-2.2,5.84-3.35-.35-3.69-1.4-5-4.29-5.39-7.17-11.05-4.85-18.16Z"/><path class="cls-31" d="M74.69,210.59c-.85,1.99-2.51,1.97-4.27,1.74-1.45-6.35-2.32-12.74-4.47-19.04-3.86-11.3-.06-16.82,12.11-20.65,4.59-.05,6.83,2.64,7.44,6.8.73,5.07,3.08,9.72,3.63,14.82.81,10.4-3.92,15.92-14.43,16.34Z"/><path class="cls-41" d="M875.59,407.99c-5.75,10.76-10.01,22.44-19.15,31.11-5.16-1.91-9.21-5.03-11.22-10.36,3.68-9.99,9.38-18.84,15.51-27.47.92-.41,1.89-.59,2.9-.54,4.88.94,10.21,1.15,11.96,7.26Z"/><path class="cls-7" d="M198.54,166c-4.75,2.01-7.51,6.98-12.57,8.53-4.37-3.02-11.23-2.26-13.33-8.76,1.19-6.13,7.09-7.96,10.85-11.7,4.4-4.37,8.77-8.54,8.85-15.32,3.37-2.86,6.91-2.65,10.57-.64,1.22,1.21,1.87,2.71,2.27,4.34.03,5.16,5.09,9.75,1.82,15.31-.25,1.14-.96,1.84-2.08,2.13-3.72.38-5.78,2.49-6.38,6.12Z"/><path class="cls-41" d="M576.93,254.47c5.22,4.63,1.15,9.78-.77,13.17-4.75,8.37-10.44,16.37-18.18,22.52-6.64-.03-8.51-3.85-6.24-9.28,1.45-3.47,1.13-6.6.81-9.97,1.85-6.35,5.98-11.43,9.44-16.89,5.03-1.5,9.95.72,14.95.45Z"/><path class="cls-34" d="M873.35,471.07c-4.95,2.74-9.67-1.12-14.65-.6-2.23.23-3.14-3.3-1.25-4.68,9.17-6.72,17.21-15.02,27.38-20.3,3.59-1.86,7.33,0,10.3,2.46,1.66,1.37,1.26,3.01-.6,4.17-3.76,10.01-12.21,14.77-21.18,18.95Z"/><path class="cls-39" d="M783.01,88.51c.52,6.46,6.81,4.92,9.71,5.31,7.34.99,10.2,4.83,11.32,11.25,1.08,3.57,2.43,6.94,6.21,8.55h0c1.96,4.82-1.71,6.88-4.59,9.34-5.12-2.28-9.96-4.96-13.59-9.39-2.21-9.98-9.67-14.29-18.41-17.59-7.02-2.65-11.39-6.9-5.73-14.76,2.02-1.13,4.17-1.2,6.38-.75,3.92,1.57,9.05,1.85,8.69,8.04Z"/><path class="cls-42" d="M812.38,86.24c-2.1-7.75-9.93-5.42-14.75-8.39-2.38-2.03-5.54-.15-7.95-1.5-3.18-1.78-7.33-3.43-3.46-8.28,6.42-1.48,12.72-2.93,18.55-6.45,7.09-4.27,14.05-2.53,20.33,2.48,2.66,3.16,3.9,6.44.79,10.04-4.19,2.12-7.64,4.73-6.71,10.24-1.89,2.03-4.31,2.08-6.81,1.86Z"/><path class="cls-7" d="M194.44,243.8c11.63,1.34,22.89,3.6,31.27,12.84-1.38,5.06,4.71,10.37-.5,15.32-10.66-1.41-19.69-6.97-29.13-11.49-1.49-5.46-5.68-10.66-1.64-16.66Z"/><path class="cls-29" d="M61.97,84.21c-4.14-2.4-8.27-2.23-12.91-1.11-4.78,1.15-10.05,4.83-14.88-.48-.27-.29-2.36,1.07-3.6,1.66-3.11.99-6.26.77-8.03-2.04-1.98-3.14,1.49-4.46,3.08-6.34,17.11-12.53,28.35-11.06,49.18,1.61-1.68,7.19-6.39,8.6-12.82,6.69Z"/><path class="cls-1" d="M553.83,271.3c1.6,3.35,6.2,5.63-.02,10.27-5.22,3.89,1.65,6.13,4.17,8.6-4.17,5.64-8.34,11.28-12.51,16.92-4.93-1.34-10.23-1.41-14.71-4.28-.95-1.1-1.72-2.5-1.07-3.77,5.77-11.21,11.94-22.11,24.13-27.74Z"/><path class="cls-20" d="M791.35,418.44c-2,.78-3.64,2.58-6.07,2.18-.95.78-1.94.82-2.96.13-3.39-3.09-1.91-5.8.62-8.46,19.9-11.28,29.64-9.92,46.35,6.44,1.9,2.4,3.04,5.31,5,7.69.48.9.8,1.85,1.02,2.84.27,2.01.09,3.94-1.01,5.7-3.41,3.39-5.65-.96-8.52-1.3-3.12-1.29-.61-5.21-3.18-6.76-3.21.38-5.91-1.39-8.86-2.09-2.33-.55-3.16-1.23-2.71-4.09,1.08-6.96.26-7.6-6.38-5.59-2.32.7-4.54,1.33-6.95,1.31-2.37-.13-4.79-.44-6.35,2Z"/><path class="cls-46" d="M389.88,281.78c-1.35-1.87-5.22-3.69.11-5.56,1.48-.52,2.68-1.86,4-2.82,8.8-.57,17.56-1.54,26.32-2.55,4.96-.57,10.46-.96,13.93,4.19-.21,2.44-.28,4.79,3.43,3.37,5.03,2.27,11.79,1.89,13.64,8.97-4.16,5.76-9.23,6.62-15.15,2.79-1.3-2.2-3.31-2.43-5.29-1.42-3.28,1.68-4.21-.53-5.26-2.78-.57-3.71-3.71-4.76-6.45-6.22-9.68,1.9-19.33,4.09-29.28,2.03Z"/><path class="cls-11" d="M194.44,243.8c-.05,4.31.59,8.36,3.43,11.92,1.02,1.28-.14,2.48-1.55,3.06-5.41,4.94-10.55,10.35-18.65,10.51-.97-3.19-3.77-5.53-3.25-9.58.3-2.35-1.31-5.51-5.11-5.17,4.59-3.77,7.72-9.23,13.85-11.25,3.95-1.3,7.65-2.7,11.28.52Z"/><path class="cls-47" d="M265.86,10.62c-.55.4-1.42.69-1.6,1.22-1.64,4.72-7.22-1.55-7.47,1.95-.3,4.23,5.38,1.85,7.2,3.67,2.37,2.36-2.43,3.43-2.33,5.82-1.81,2.17-4.02,4.03-6.9,2.69-3.17-1.48-5.26.39-7.66,1.57-5.43,3.71-9.84-6.54-15.41-1.11-1.04-.22-1.88-.73-2.53-1.58-.98-2.14-.59-4.06.88-5.82,3.16-1.56,5.37-3.35,2.7-7.24-.84-1.22-.12-2.66,1.35-3.4,8.77,5.79,16.36,2.5,23.69-3.04.47-.36,1.24-.43,1.77-.92,2.81-.04,5.62-.08,8.42-.12-.72,2.1-2.51,3.84-2.11,6.31Z"/><path class="cls-23" d="M402.31,124.26c3.07-1.59,2.08-7.98,7.77-6.58.53.13,1.81-.52,1.79-.73-.69-8.08,4.62-2.87,7.33-3.34,2,13.61-2.91,22.01-15.44,26.36-3.26,1.13-6.8,1.48-9.71,3.57-4.31,3.37-4.96,11.36-12.84,10.19-3.58-3.95-1.93-7.27,1.1-10.63,5.13-5.7,10.96-10.52,18.48-12.31,5.89-1.4,2.68-3.98,1.52-6.52Z"/><path class="cls-42" d="M144.02,214.49c3.05-.34,5.78.58,8.34,2.14,1.69,2.73,1.45,5.45,0,8.18-.66.16-1.33.27-2.02.3-.44-.38-.83-.68-1.18-.89.34.21.73.5,1.19.86-.06,2.08-.12,4.15-.17,6.23-1.87,1.3-4.78-.45-6.22,2.13-.85,3.29-5.41.91-6.3,4.14-.73.72-1.55.89-2.48.44-.56-.75-.92-1.58-1.11-2.49-.34-2.03-.14-4.3-2.5-5.41-.86-.16-1.7-.32-2.56-.42-2.77-.18-5.55.05-8.3-.35-1.95-.36-3.71-1.06-4.79-2.86-1.09-2.63-.06-5.6-1.31-8.21-1.57-4.96-4.79-9.55-3.44-15.17.43-.92,1.16-1.48,2.13-1.74,5.84,2.38,7.36,8,9.67,13,1.69,3.66,3.37,7.09,8.32,4.27h-.02c4.7.02,6.69-8.33,12.75-4.14Z"/><path class="cls-42" d="M26.25,77.94c-.79,1.68-6.28,4.06.75,4.58,1.23.09,2.38,1.15,3.57,1.76-1.67,4.05-5.59,5.31-9.11,5.93-4.21.74-7.76,2.6-11.52,4.24-2.99,1.31-6.51,4.34-9.21.45-2.08-3,.76-5.72,2.89-7.82,2.59-2.56,4.48-5.23,3.52-9.09,2.14-7.05,7.67-9.87,14.23-11.4,2.37,3.46,4.48,7.04,4.88,11.35Z"/><path class="cls-41" d="M263.75,386.84c.13.32.25.65.39.97,1.75,4.12,6.65,1.98,8.78,4.2,1.64,1.71-5.43,4.21-.84,7.43-4.44,5.9-7.01,12.49-8.59,19.74-1.06,4.85-1.47,10.38-6.05,13.86-2.37-2.14-2.56-5.06-1.41-7.48,3.25-6.81-1.76-8.35-6.14-10.46-1.07-8.83,3.18-16.28,6.42-23.9,1.21-2.84,3.54-5.31,7.42-4.35Z"/><path class="cls-29" d="M228.03,500.42c.21-4.76-4.41-7.92-4.2-12.69,1.3-1.92,3.49-2.83,5.02-4.5,2.15-2.03,4.39-3.82,7.64-2.5,3.02,2.31,2.11,6.37,4.07,9.15,5.89,4.75,6.37,12.47,10.02,18.46.74,1.22-.55,2.6-1.64,3.45-1.81,1.41-3.97,1.59-5.73.24-2.44-1.87-4.56-4.15-6.84-6.24-2.48-2.26-4.3-5.54-8.34-5.38Z"/><path class="cls-48" d="M593.93,210.2c8.29,4.29,10.33,9.37,5.45,15.95-3.85,5.2-8.21,10.19-14.11,13.38-5.45-2.37-7.27-7.38-9.03-12.43,1.92-8.36,8.78-12.48,14.87-17.25.99-.3,1.92-.17,2.81.35Z"/><path class="cls-42" d="M381.47,21.15c-1.41,0-2.82,0-4.23,0-2.67-5.12.2-7.89,4.22-10.15.71-.32,1.69-.24,2.19-1.13-1.15-.29-2.12.46-3.23.57-2.88.63-5.75.75-8.65.56-3.81-.29-7.48-1.95-11.4-1.2-.97,0-1.92-.18-2.84-.47-6.17-3.46-12.74-2.6-19.32-1.77-1,.09-1.97-.03-2.93-.32-1.81-1.17-3.03-2.6-2.13-4.94,7.63-2.42,15.02-3.18,23.08-.59,5.03,1.62,10.96.57,16.48.51,10.15-.1,19.75,3.57,29.78,4.2,1.16,1.21,3.46,1.84,2.17,4.29v-.03c-3.98,2.11-8.48,2.58-12.65,4.07-1.17.29-1.93,1.04-2.34,2.16-2.22,2.4-4.93,3.86-8.2,4.23Z"/><path class="cls-11" d="M545.58,357.39c1.08-.2,1.7-.84,1.89-1.91,8.95-1.47,13.75-8.39,18.94-14.67,1.52-1.84,2.98-3.18,4.94-1.48,2.02,1.76-.39,2.63-1.28,3.92-1.87,2.7-2.64,5.59.49,8.11,1.43,4.49,1.27,8.73-1.98,12.48l.02-.03c-2.71,3.12.28,7.39-2.12,10.58-.15,1.19-.9,1.81-2.01,2.08-3.78,1.39-5.45-1.37-7.33-3.71-1.46-2.86-.12-5.7-.05-8.56.08-3.5-1.89-.68-3-.43-1.84,1.42-3.54,3.15-5.71,3.83-4.1,1.29-4.56-.68-3.05-3.96.08-2.07.16-4.14.23-6.22Z"/><path class="cls-23" d="M234.33,63.23c1.11,2.93,3.22,4.32,6.35,4.15,3.5-1.44,4.29,2.52,6.66,3.34,1.95,1.02,4.41.92,5.98,2.75,2.27,2.07,4.6,4.07,6.79,6.22,1.62,1.6,4.48,3.09,2.8,5.86-3.04,5.01,3.71,6.93,3.08,11.04,1.81,5.71-1.71,5.3-5.31,4.5-4.23-.94-5.24-4.9-7.15-7.98-5.87-8.26-13.68-14.5-21.63-20.61-2.51-2.17-4.13-4.7-2.61-8.06,1.06-2.34,2.94-2.5,5.03-1.21Z"/><path class="cls-28" d="M61.97,84.21c4.9-.64,8.89-3.12,12.6-6.19,6.15-.97,7.95,3.63,10.08,7.82-3.67,7.56-1.16,15.41-1.02,23.17-3.6,3.68-7.94,3.3-12.39,2.3-1.03-.5-1.96-1.14-2.82-1.91-1.63-2.36-3.42-5.24-2.01-7.75,4.22-7.49-.1-12.38-4.45-17.45Z"/><path class="cls-28" d="M763.88,275.43c2.3-4.02,5.73-7.03,9.31-9.76,4.28-3.26,8.55-1.44,12.3,1.26,1.8,1.3,2.57,4.54.52,5.36-8.31,3.31-1.85,4.28.65,6.13,1.08.8,1.81,2.06,2.7,3.11,1.12,1.82.89,4.05,1.78,5.94.54,2,.4,3.96-.38,5.87-.76,2.55-1.88,4.6-4.81,2.23-2.21-1.79-4.98-1.9-7.45-2.87-.63-.7-1.09-1.5-1.35-2.41.57-6.45-4.01-8.25-8.87-9.78-1.9-1.31-3.54-2.86-4.41-5.07Z"/><path class="cls-23" d="M513.9,50.53c4.93,7.64,5.06,7.89-2.75,11.83-3.84,1.94-6.77,6.4-12.02,5.03-4.86-3.18-9.27-6.56-5.71-13.34,3.6-.57,4.39-2.52,2.74-5.68-.21-2.64,1.17-4.46,3.04-6.03,3.36.67,6.74,1.26,10.07,2.03,3.19.74,4.48,3.05,4.62,6.15Z"/><path class="cls-25" d="M770.13,153.61c-.27,7.1.4,13.8,5.58,19.49,1.73,1.9,3.16,4.61,3.12,7.59,1.55,6.49-1.69,6.21-5.78,3.84-2.79-1.61-2.99-5.21-4.81-7.63-6.9-10.16-11.95-21.15-14.65-33.17.59-8.28,6.74-5.93,11.61-6.08,2.42.57,4.49,1.63,5.62,3.99-.64,1.93.26,3.92-.13,5.88-1.83,1.88-.76,4.02-.55,6.08Z"/><path class="cls-41" d="M160.58,17.04c3.57,3.37,3.63,6.82.21,10.34,1.32,2.55,1.41,4.45-2.3,4.36-2.44-.18-4.68.27-7.03,1.18-3.64,1.42-7.37,1.19-10.89-1-5.99-3.73-5.8-7.42.06-11.28,6.27-4.14,13.01-4.03,19.94-3.59Z"/><path class="cls-10" d="M843.94,441.65c.57,10.51-5.75,16.72-13.92,21.38-4.83,2.76-6.88,1.74-8.46-3.5-.69-2.27-.84-4.81-.68-7.2.43-6.57,2.28-8.14,8.92-8.7,2.6-.22,5.71,1.21,7.55-2,2.2-2.01,4.4-5.28,6.6,0Z"/><path class="cls-17" d="M679.89,229.1c-2.35,4.35-8.9,3.47-10.66,8.56-2.12,2.86-1.92,7.23-5.83,8.93-3.28.38-4.9-2.07-6.83-4.01-.48-.81-.72-1.69-.76-2.63.06-.45.13-.91.19-1.37,1.65-3.89,1.29-8.02,1.45-12.1,1.04-3.48,3.44-5.71,6.62-7.2,2.94-1.49,7.14-.5,8.82-4.53.69-.68,1.5-1.05,2.47-1.11,5.47.91,9.67,2.77,5.24,9.1-1.57,2.24,1.96,4.56-.71,6.36Z"/><path class="cls-10" d="M55.68,170.38c-5.8-4.52-6.42-11.47-8.2-17.81-.53-1.87-.5-4.12,1.76-5.35,3.08-2.84,6.76-5.43,4.3-10.53.23-1.14.88-1.92,2.01-2.28,2.7.17,4.7,1.45,6,3.82,1.2,2.49,3.12,5.66,1.83,7.8-4.9,8.12,1.85,10.67,6.2,14.47,1.15,1.03,1.93,2.26,2.2,3.8-3.03,8.22-10.7,4.14-16.11,6.07Z"/><path class="cls-34" d="M389.99,59.01c-3.07,4.42-8.82,3.54-12.67,6.41-5.18.51-10.07-1-15.02-2.11-4.49-7.74-4.36-9.14,2.87-11.85,8.59-3.22,17.26-6.61,26.8-5.03,1.52,1.15,3.36,2.14,2.31,4.59-2.5,2.09-8.79,2.15-4.29,8Z"/><path class="cls-42" d="M778.39,235.07c.18-2.84,1.23-7.22,4.32-10.79,1.33-1.54,2.75-3.58,5.13-2.87,2.12.64,3.26,2.52,3.34,4.82.08,2.44-.12,4.92.18,7.33.37,2.98-2.46,8.2,4.72,6.97,1.35-.23,1.43,2.9.36,3.18-3.71.96-5.58,4.49-8.66,5.79-2.62,1.1-7.04,2.85-6.2-4.06.27-2.22-4.78-4.59-3.18-10.36Z"/><path class="cls-48" d="M55.68,170.38c3.96-2.53,7.54-6.09,13.04-3.19,1.17.62,1.57-1.71,1.65-3.05,6.27.97,7.03,5.26,6.32,10.45-11.43,7.05-12.83,11.26-6.17,23,3.02,5.32,1.16,9.85-.1,14.74-2.81-1.43-3.66-4.28-4.05-6.89-1.62-10.65-4.77-20.84-8.58-30.86.27-.2.53-.42.81-.59,2.39-1.4,5.38-.12,7.72-1.73-2.73,1.21-6.14-.13-8.54,2.31-2.02-.74-2.05-2.47-2.11-4.19Z"/><path class="cls-29" d="M259.55,288.09c1.32,2.58,4.21,2.82,6.31,4.23,2.5,3.99,6.91,3.1,10.56,4.14v-.03c1.88,1.5,3.83,2.97,3.44,5.82-.62,5.35-3.02,9.27-8.62,10.59-14.8-1.48-17.6-14.35-23.27-24.5.23-1.75,1.19-2.89,2.86-3.45,3.49-.52,6.26.93,8.72,3.2Z"/><path class="cls-12" d="M839.83,78.06c-.43,3.3,2.02,4.98,3.91,6.98,3.89,4.12,4.92,9.16,4.23,14.54-.45,3.48-1.6,7.38-4.86,8.78-4.16,1.79-5.77-2.49-7.91-5.03-.36-4.19-7.39-3.91-6.15-9.18,9.04-6.02,2.25-10.99-1.08-16.18-.72-1.96-.84-3.9.25-5.78,5.49-2.97,7.99,1.61,11.19,4.43.15.48.28.96.42,1.45Z"/><path class="cls-26" d="M173.16,166.07c3.17.49,4.3,5.19,8.87,3.58,2.45-.86,2.71,3.09,3.94,4.88-1.35,2.88-5.52,2.95-6.33,6.37-1.66,4.76-3.89,9.08-8.72,11.43-5.2.55-7.47-2.71-9-6.93.26-4.48-1.01-9.19,1.09-13.38,2-3.99,4.21-8.37,10.16-5.95Z"/><path class="cls-25" d="M158.49,31.74c2.27-.66,2.27-2.52,2.3-4.36,9.31-1.97,18.3.19,27.3,2.15.53.54.75,1.11.66,1.72-.09.63-.21.94-.35.94-2.47,2.5-5.38,3.64-8.76,2.85.14.04-.54-.05-.54-.05,0,0,.56.24.65.26,2.22.92,5,.35,6.45,2.81-.07,1.37-.13,2.74-.2,4.12-2.51,2.37-5.49,2.58-8.67,1.92-4.17-2.2-8.14-2.66-11.57,1.38-4.78,3.3-7.12.34-9.07-3.57,2.25-3.1,2.05-6.63,1.82-10.17Z"/><path class="cls-41" d="M202.79,412.11c-3.64-.92-3.84,3.33-6.29,4.19-1.97-1.68-.08-4.6-2.04-6.29.98-13.41-2.98-26.56-2.2-39.96,2.11.15,4.19,4.19,6.32.03,5.17.22,4.05,4.46,4.82,7.5.15,4.29-.29,8.63.89,12.86.23,1.05.33,2.12.35,3.2-1.22,6.09,3.24,12.76-1.85,18.46Z"/><path class="cls-10" d="M509.73,416.45c-2.99,6.69-8.9,6.35-14.76,6.15-.51-1.09-.25-2.28.68-2.68,9.03-3.95,2.46-5.66-1.09-7.81,3.27-9.73,10.52-16.6,17.21-23.87,3.25-.55,6.15.29,8.73,2.3-.74,9.82-4,18.6-10.77,25.93Z"/><path class="cls-15" d="M251.15,285.99c-1.18.29-1.88,1.04-2.14,2.22-1.76.48-2.75-.53-3.6-1.83-1.95-4.67-3.64-10.11-9.47-3.11-6.91-1.04-10.36-4.95-10-12.03-1.05-3.37-.14-7.12-2.72-10.29-1.91-2.36.79-3.34,2.5-4.31,1.61,2.67,5.95,2.53,6.49,6.3,2.14,4.46,6.84,4.51,10.61,6.17v-.03c2.06,3.03,6.6,2.86,8.29,6.39.71.73,1.42,1.46,2.14,2.18,2.4,3.56.57,6.05-2.1,8.33Z"/><path class="cls-35" d="M623.11,210.61c-3.54-4.23-10.62-5.59-10.43-12.85,1.6-1.74,3.63-1.9,5.74-1.42,10.16,2.26,26.98,22.96,27.42,33.65-3.25,6.88-6.3,2.11-9.4-.18-2.85-1.47-.48-5.17-2.94-6.81-4.62-3.16-8.3-7.1-10.38-12.39Z"/><path class="cls-28" d="M545.34,363.6c.71.75-1.18,5.21,2.58,1.69,1.65-1.54,3.88-2.45,5.85-3.64,2.44,1.9,2.15,4.62,2.13,7.23,2.21,6.77-3.57,12.94-1.5,19.71,1.07,4.41-6.53,4.02-4.86,8.77-6.08,2.07-11.78-1.8-9.53-8.17,2.99-8.47,1.53-17.54,5.32-25.59Z"/><path class="cls-2" d="M459.14,416.35c-5.16-7.09-3.16-15.38-3.93-23.21,4.71-4.25,9.98-5.7,16.03-3.25,1.98,1.38,2.39,3.37,2.14,5.61-.36,2.41-4.03,4.17-1.41,7.19.44.8.62,1.66.53,2.56-2.57,3.33-2.18,7.29-2.33,11.14-1.02,1-2.28,1.32-3.65,1.31-2.43-.57-5.23.82-7.38-1.34Z"/><path class="cls-26" d="M499.2,42.35c.34,2.4-1.43,4.07-2.12,6.11.83,1.93-.39,2.81-1.84,3.56-2.57.79-4.95.36-7.13-1.18-2.87-2.95-6.09-2.69-9.45-.97-2.81,1.17-5.53,2.54-8.25,3.91-1.62.79-3.32,1.14-5.12.95-1.07-.28-1.67-.98-1.85-2.06.55-13.36,5.93-17.13,21.06-14.73,4.9,1.47,9.8,2.94,14.7,4.41Z"/><path class="cls-25" d="M749.31,224.97c-.68.1-1.37.17-2.06.22-3-1.73-6.87,1.89-9.6-1.57-1.77-1.76-2.75-3.89-3.04-6.35-1.13-4.77,4.32-7.71,3.46-12.43,5.08-4.67,9.13.28,13.59,1.43,3.78,5.48,8.89,9.41,14.71,12.51-.9,1.94-2.28,3.4-4.29,4.22-3.99,2.41-8.8-.61-12.77,1.96Z"/><path class="cls-10" d="M232.22,25.36c1.49-.5,1.81-1.9,2.56-3.04,1.07-1.63,2.19-3.87,4.17-.37,1.71,3.04,4.08,5.72,8.16,5.58-.4,4.99,3.27,4,6.14,4.19-2.73,3.27-6.53,2.57-10.16,3.09-6.87.98-7.13,1.93-4.63,9.73-2.62,5.39-7.17-.08-10.4,1.84-2.13-1.36-4.98-1.62-6.31-4.18-4.23-2.6-2.86-5.98-1.33-9.4,1.2-1.89,2.99-2.6,5.15-2.53,1.73.12,3.41.64,5.15.74,3.11.19,6.22.18,9.33.07-2.87-.53-6.01-.35-8.06-3.06-.52-.94-.43-1.83.25-2.65Z"/><path class="cls-7" d="M738.91,222.91c1.24.25,2.56,1.8,3.67.61,1.18-1.26,0-5.01,3.22-3.97,2.2.71,1.2,3.66,1.46,5.64.89,5.95,6.16,10.2,6.36,16.42,1.09,7,2.63,13.96,1.98,21.13-.73.73-1.46,1.46-2.19,2.2-2.09.47-4.24.18-6.33.56-1.78-.81-2.68-2.26-3.01-4.12.11-2.75-1.45-5.02-2.25-7.52-.13-.94-.07-1.86.16-2.77,4.27-5.38,3.27-10.55.14-16.21-1.96-3.56-6.49-6.85-3.21-11.96Z"/><path class="cls-23" d="M799.79,342.96c4.44-.64,9.91,1.48,12.33-4.58,4.6-1.69,8.89-.76,13.02,1.55,1.99,9.06-.98,14.25-9.42,14.94-5.1.41-10.15.78-15.15,1.87-4.51-.8-8.77-1.91-9.19-7.63.64-.14,1.29-.19,1.95-.13,3.32-.75,5.54-2.69,6.46-6.02Z"/><path class="cls-35" d="M574.83,243.86c-.66.15-1.34.24-2.02.24-3.69.5-7.14,2.69-11.06,1.62-5.21-1.47-9.8-4.34-14.68-6.55-3.82-2.3-8.08-4.19-9-9.29,1.78-4.46,6.11-4.68,9.85-5.91,6.76,10.02,16.57,5.09,25.36,5.16.32,4.93,3.2,9.59,1.55,14.73Z"/><path class="cls-34" d="M494.95,412.09c5.04-2.96,6.32,1.67,8.61,4.27,1.87,2.13-.11,2.84-1.42,3.64-2.2,1.33-5.69-.8-7.17,2.6-6.49,3.88-13.99,4.35-21.11,5.87-3.35.71-7.46,1.98-10.41-1.67-2.19-3.11-.31-4.45,2.41-5.09,3.41-.79,6.59-2.19,9.83-3.42,6.65-1.36,12.63-4.79,19.26-6.2Z"/><path class="cls-41" d="M868.93,374.35c2.29,7.24,7.81,9.9,14.82,10.41.67,6.11-1.05,11.63-4.14,16.82-5.57,3.78-11.17-2.74-16.74.05l-.13-.08c-1.7-9.92,2.88-18.42,6.18-27.2Z"/><path class="cls-29" d="M183.89,46.37c1.02,2.49,3.25,1.95,5.23,2.16.72.08,2.42-.31,1.55,1.32-.31.58-1.79.55-2.73.79-15.71,9.98-30.84,6.98-45.72-2.01-4.24-2.17-8.93-1-13.32-1.82-3.57-.66-8.18-.83-5.96-6.77,2.8,0,5.6,0,8.4,0,4.69,2.82,10.2-.48,14.94,2.01,3.34,1.65,6.31,4.19,10.28,4.36,2.16-.28,4.1.89,6.21.95,2.78.64,4.8-.99,6.93-2.33.88-.39,1.78-.65,2.72-.82,3.01-.02,6,0,8.99.4.99.36,1.82.93,2.49,1.75Z"/><path class="cls-11" d="M803.98,256.48c7.79,3.35,10.01,6.71,7.73,11.69-2.16,4.72-10.55,7.17-16.48,4.82-4.2-1.67-4.66-4.74-1.81-12.24,2.31-4.41,5.97-5.5,10.57-4.27Z"/><path class="cls-35" d="M188.05,222.98c4.39-2.91,9.35-1.89,14.15-2.08,6.06-.24,7.06,4.6,8.77,8.64.6,1.43-.3,3.33-1.58,3.31-4.69-.08-9.52,2.82-13.91.42-2.64-1.44-5.02-1.91-7.83-1.86-1.57.03-3.84.87-4.51-1.08-.64-1.84,1.58-2.82,2.61-4.13.84-1.07,1.6-2.2,2.39-3.31l-.09.09Z"/><path class="cls-7" d="M766.37,218.8c-1.63-.39-3.42-1.42-4.87-1.06-5.79,1.43-8.24-.76-8.06-6.49.05-1.55-.89-2.46-2.18-3.1.72-5.83,5.52-7.45,9.85-9.56,5.07-1.93,8.44.07,10.71,4.64.84.39,1.44,1,1.83,1.83.54,1.93.3,3.65-1.28,5.03-3.29,2.02-1.31,7.67-6.01,8.72Z"/><path class="cls-35" d="M782.93,420.51c.78.04,1.57.07,2.35.11-9.34,5.42-19.29,6.32-29.67,3.99-3.32-8.25.71-19.45,9.28-25.74,1.08.11,1.9.62,2.49,1.52,1.77,3.9,1.41,7.95.82,11.99-.54,2.96-1.4,6.21,3.72,4.03,2.1-.97,4.2-1.91,6.56-.91,1.59,1.58,2.17,4.05,4.45,5.01Z"/><path class="cls-34" d="M919.76,433.01c1.8,1.09,2.21,2.46.95,4.26-3.18,4.53-6.85,8.66-11.1,12.13-1.96,1.6-4.45,3.63-7.43,1.06-2.54-2.19-4.41-4.64-3.55-8.1.93-3.71,2.24-7.33,5.92-9.38,5.07,1.05,10.15-3.27,15.22.03Z"/><path class="cls-11" d="M742.94,315.45c9.47.78,19.15-1.58,28.46,1.94,1.35.51,2.48.99,3.09,2.33,1.54,2.52,1.42,4.2-2.11,4.12-9.63.61-19.29-.57-28.93.72-3.91.52-5.66-2.14-3.96-5.66.69-1.42,2.34-2.37,3.55-3.54l-.1.08Z"/><path class="cls-36" d="M764.02,38.04c6.37-1.14,12.33-4.05,18.91-4.29,5.66,4.54-1.88,11.25,2.61,15.99-4.97,4.7-10.39,7.77-17.47,4.87-1.14-2.77-1.3-6.05-4.56-7.63-6.83-3.32-2.22-6.1.51-8.94Z"/><path class="cls-11" d="M785.14,48.53c-3.33-1.61-8.27-3.21-3.14-7.52,3.27-2.75.23-4.95.93-7.26,6.1-4.16,9.03,1.02,12.6,4.28,2.26.3,1.72,7.29,6.36,2.45,1.59-1.66,3.29.61,3.48,2.26.6,5.22,1.43,10.79-6.17,11.87-5.19-.88-9.93-2.8-14.07-6.08Z"/><path class="cls-46" d="M22.07,67.4c-7.01.67-9.28,8.01-14.93,10.59-4.27-3.61-1.12-6.83,1.44-8.49,6.71-4.36,11.73-10.13,16.36-16.45,1.26-1.72,3.23-2.63,5.52-2.43,0,1.88.15,3.68,2.42,4.28,2.07,1.57,6,1.07,6.02,4.85.01,3.07-2.96,3.7-5.08,4.58-3.74,1.56-7.12,4.82-11.74,3.06Z"/><path class="cls-47" d="M711.38,283.92c-5.31-2.43-5.51-3.35-1.87-8.39,4.99-2.43,8.89-.3,12.51,2.99,4.46,3.55,6.86,8.38,8.45,13.72l-.09.05c-1.66,3.62,8.65,9.82-2.47,11.41-8.76-3.87-10.36-13.73-16.53-19.78Z"/><path class="cls-42" d="M251.29,435.36c1.28,10-2.01,16.95-12.68,18.97-3.4-.92-5.85,1.29-8.57,2.6-2.62.52-5.01-3.55-7.78-.39-2.83-9.04,2.81-16.25,15.53-19.93,5.83,11.75,8.44,1.09,12.18-1.76.44.17.88.34,1.32.52Z"/><path class="cls-12" d="M679.89,229.1c-.58-.89-.57-7.54.08-8.62,1.28-2.13,1.63-3.62-1.69-4.02-1.61-.19-3.11-1.27-4.66-1.95-1.26-9.03,5.66-11.03,11.79-12.18,4.97-.94,9.58,1.35,9.25,7.98-7.33,1.05-7.84,2.15-3.99,8.63-3.08,3.94-6.3,7.73-10.79,10.17Z"/><path class="cls-41" d="M135.55,235.54c0,.69,0,1.37-.01,2.06.73.49.98.97.72,1.45-.25.48-.5.71-.75.71-1.5,3.58-1.08,8.9-7.43,8.1-.49-.06-1.45.6-1.56,1.08-.39,1.63,1.07,1.28,1.87,1.32,2.61.15,5.31,3.82,7.85-.98,1.34-2.53,9.11-1.32,10.28,1.5.84,2.02-3.46,2.94-2.53,5.71-3.82-.16-7.21-2.06-11.15-2.29-6.48-.39-11.9-3.42-14.36-10.08,1.7-5.07,6.56-7.29,9.84-10.94,1.85-.96,3.58-.47,5.27.43.71.58,1.37,1.23,1.97,1.93Z"/><path class="cls-42" d="M576.93,254.47c-4.95,4.39-9.95,1.78-14.95.11-12.7,5.92-23.27.91-25.81-12.24,2.22-4.4,5.46-4.63,9.32-2.26,2.35,1.76,3.66,4.52,6.05,6.23,4.29,2.24,8.69,1.63,12.99.25,2.5-.8,4.64-1.53,5.92,1.61,2.16,2.1,4.32,4.2,6.48,6.3Z"/><path class="cls-26" d="M198.6,25.35c-6.17-1.22-11.57-4.74-18.37-4.58-5.04.12-5.32-4.13-2.74-8.06,6.86-.41,14.12,1.51,20.09-3.97.93-.86,2.48.43,2.94,1.93-2.91,5.01,2.11,4.68,4.24,6.3-.22,4.14-6.89,3.54-6.15,8.38Z"/><path class="cls-41" d="M461.37,325.82c-.07,1.76.05,3.61-2.14,4.3-1.6-1.06-3.08-4.53-4.46-3.25-8.54,7.92-8.68.13-10.29-5.14-1.44-2.59-2.34-5.34-2.35-8.34,3.23-1.34,7.22-2.1,5.44-7.23.17-.98.55-1.85,1.16-2.63,2.04-1.9,4.27-2.6,6.85-1.13,4.95,7.05,9.72,14.16,5.78,23.41Z"/><path class="cls-41" d="M255.34,90.51c3.17,2.71,1.47,9.53,8.23,9.37,2.89-.07,1.92-2.01,2.43-3.3,3.79,2.15,5.06,5.08,2.78,9.07-1.06,1.85-.78,3.84-.65,5.82-3.36-4.98-7.23-3.72-10.89-.6-4.79,4.07-7.51,3.6-7.36-3.13.08-3.36-1.55-2.16-2.94-1.41-1.8.97-3.2,1-4.21-.99,3.25-5.76,10.31-8.27,12.62-14.83Z"/><path class="cls-41" d="M854.33,307.05c1.84.1,3.38,2.94,5.32,1.04,1.97-1.94-.86-3.46-1.05-5.27,6.31-.92,10.63,1.5,13.25,7.41,1.04,2.33,1.77,5.55,5.56,5.14,3.95,2.81.08,6.08-1.02,5.51-6.34-3.27-10.6,2.05-15.83,2.91-1.32.22-2.7.07-4.06.09-.14-.45-.28-.89-.42-1.34,3.24-5.23-2.6-8.46-2.88-12.91.07-.99.46-1.84,1.12-2.57Z"/><path class="cls-12" d="M799.74,52.68c4.83-2.08,4.71-6.5,3.91-10.32-.52-2.44-1.69.02-2.14.83-1.82,3.3-3.46,6.24-4.58-.33-.28-1.64-.92-3.21-1.39-4.82,5.05.44,9.87-.8,14.7-1.99-1.29,7.69,7.19,1.93,8.43,6.13.74,4.86,6.53,2.94,8.42,6.26-5.97,4.68-13.41,5.55-20.35,7.59-2.73.8-6.48,1.52-6.99-3.34Z"/><path class="cls-11" d="M129.29,233.31c-1.72,5.49-6.4,8.02-10.82,10.81-2.66.11-4.91-1.78-8.01-.65-2.59.94-6.22,1.68-8.58-1.52-3.89-7.1,1.95-8.8,6.28-11.34.97-.26,1.97-.34,2.97-.28,4.81.93,9.61.59,14.4-.34,2.03.22,4.14.37,3.77,3.31Z"/><path class="cls-48" d="M259.63,65.48c1.01-1.26,2.02-2.52,3.04-3.78-2.74-1.07-4.89-3.61-8.57-1.95-4.01,1.81-5.81-.22-4.95-4.93,4.64,1.58,3.87-3.23,5.78-4.89,2.7-2.62,6.44-3.18,9.58-4.94,1.22-.69,2.48-1.28,3.86-1.57,3.76-.07,6.03,2.22,7.95,5.05-.06,1.38.11,3.2-1.44,3.58-5.72,1.39-8.93,4.46-9.32,10.7-.2,3.28-3.71,2.27-5.93,2.74Z"/><path class="cls-26" d="M373.06,176.69c4.97,1.56-2.28,6.65,1.59,7.14,2.99.38,6.46-1.98,9.51-3.52,1.4-.71,2.32-2.4,3.45-3.65,3.67,7.32,1.41,14.15-1.73,20.9-5.89-.61-11.99-.38-17.15-4.1.59-5.61-1.13-11.54,2.29-16.77.68-1.01,1.36-1.01,2.04,0Z"/><path class="cls-36" d="M436.16,290.18c5.27-.04,10.82.9,14.66-4.17,6.64,1.41,5.73,6.55,5.61,11.3-1.18,3.93-7.49,2.67-7.71,7.6h0c-5.33-1.11-5.19,4.94-8.49,6.48-3.49-6.66-1.87-14.3-4.07-21.2Z"/><path class="cls-41" d="M593.79,27.47c2.26,1.47,2.7,3.49-.25,3.86-4.13.52-2.74,2.42-1.88,4.53-.34.33-.69.66-1.03.99-3.43,1.7-7.2.15-10.92,1.56-5.48,2.08,1.02,3.68-.33,5.3-2.76,3.55-6.35,3.07-10.04,2.13-4.72-2.63-6.84-6.8-7.09-12.06,2.76-2.85,7.24-4.75,9.96-3.77,7.95,2.85,14.58-.34,21.58-2.53Z"/><path class="cls-29" d="M648.39,29.6c-1.98-6.1-.44-9.15,6.44-12.71,2.06,2.82,4.13,5.64,6.19,8.46,3.64,2.04,2.91,4.96,1.64,8-.42,1.25-.72,2.53-.89,3.86-.3,3.78-2.62,4.7-5.95,4.19-4.86-2.43-8.76-5.46-7.43-11.79Z"/><path class="cls-44" d="M728.28,302.8c2.08-.13,4.24-.13,2.47-3.26-1.31-2.32-2.29-4.73-.37-7.25,3.36,4.76,8.12,7.98,12.5,11.66,6.78,5.69,6.62,5.88.05,11.51l.1-.08c-3.7.24-7.34.13-10.54-2.12-1.98-3.25-7.04-5.26-4.22-10.45Z"/><path class="cls-37" d="M450.88,382.66c6.94-1.48,8.22-5.9,5.61-11.72-2.86-6.37,1.92-4.72,4.92-5.08,6.25,5.46,9.19,12.4,9.2,20.64-4.8,3.61-10.11,4.13-15.75,2.54-2.37-1.48-2.75-4.19-3.98-6.38Z"/><path class="cls-44" d="M820.73,136.63c-13.18,3.82-13.45,3.55-10.61-10.31.13-.65.04-1.35.05-2.02-1.48-4.24-.5-6.1,4.21-4.35,4.23,3.95,11.01,1.69,15.01,6.19-1.71,2.45,1.1,2.93,1.88,4.3-2.17,4.35-7.81,2.79-10.53,6.19Z"/><path class="cls-42" d="M667.29,252.31c-2.2,3.41-4.57,6.46.87,9.62,2.61,1.52.91,5.64,2.15,8.34-4.16.57-6.49,5.1-10.86,5.05-.77,0-2.25-1.19-2.18-1.67.66-5.14-5.41-3.42-6.56-6.6,5.58-1.89-.68-6.31,1.88-8.84.91-.52,2.22-1.09,2.88-.52,3.83,3.27,3.95.23,4.35-2.43,3.65-6.97,4.61-7.34,7.46-2.93Z"/><path class="cls-11" d="M381.21,153.72c5.92-2.29,7.56-8.17,10.72-12.78,4.33,4.12,9.04,7.68,14.64,9.92,1.46,5.74-6.72,4.43-6.66,9.15-.59,1.92-2.22,2.88-3.66,4.03-1.42-.69-2.85-1.37-4.27-2.06-1.75-.04-3.21-.66-4.29-2.07-4.04-.09-5.97-2.39-6.48-6.18Z"/><path class="cls-34" d="M223.71,456.47c1.82-9.08,4.35,1.92,6.42-.23,4.82,1.11,2.02,5.97,4.14,8.41,2.5,4.59,2.79,9.83,4.26,14.72.81,2.21-.21,2.59-2.1,2.09-3.25-.16-5.32,1.41-6.43,4.39-5.04-.31-4.78-3.61-4.06-7.18,1.97-3.34,1.89-6.64-.23-9.9-1.53-3.97-4.78-7.66-2-12.31Z"/><path class="cls-25" d="M368.73,193.46c4.41.31,8.82.51,13.21.98,1.77.19,1.52,1.91,1.61,3.21-.36,6.33-6.1,7.65-9.96,10.75-6.41,1.97-11.86,1.94-13.14-6.48,3.03-2.56,6.29-4.88,8.28-8.46Z"/><path class="cls-42" d="M251.16,416.31c2.11-2.38,3.71-3.88,7.14-.9,2.7,2.35,3.5,3.64,1.5,6.63-2.2,3.28-2.73,7.08-2.36,10.99-1.98.97-3.73,2.55-6.16,2.33l-.18-.17c-3-3.7-5.85-7.52-9.04-11.06,1.34-4.57,3.85-7.79,9.09-7.82Z"/><path class="cls-23" d="M843.94,441.65c-2.2-3.27-4.4,1.05-6.6,0-4.66.08-8.77-1.41-12.37-4.33-1.23-2.36.5-3.24,2.09-4.19.61-1.15,1.43-1.64,2.08-.17.86,1.94,2.41,2.26,4.21,2.27,1.71-.28,2.99-1.41,4.45-2.22,2.67-1.56,4.99-3.86,8.31-4.06,4.55,2.26,6.65,7.01,10.33,10.16-4.13,1.02-7.99,3.36-12.49,2.55Z"/><path class="cls-1" d="M293.01,71.66c2.07.47,4.38,2.6,4.54-2.2.18-5.42-.74-11.78,6.02-14.7,3.77,4.83,3.82,11.26,7.04,16.32-4.61,6.3,2.23,3.48,3.85,4.82-7.08,9.81-15.03,8.24-21.46-4.24Z"/><path class="cls-41" d="M110.41,231.25c-3.55,3-9.54,4.06-8.54,10.7-6.68-1.71-10.68-6.11-12.63-12.58-1.04-1.22-1-2.62-.63-4.06,4.94-.31,9.87-.63,13.54-4.65,5.37,1.49,8.2,4.96,8.26,10.59Z"/><path class="cls-11" d="M818.66,42.17c-.96-.35-1.91-.73-2.88-1.05-2.67-.89-1.75,5.85-2.75,2.66-1.38-4.37-4.56,1.3-4.84-2.03-.19-2.34,1.43-3.8,2.04-5.72,10.5-8.02,18.88-1.51,27.4,4-6.23,1.49-12.57,2.09-18.97,2.13Z"/><path class="cls-7" d="M778.59,289.92c.04.79.09,1.58.13,2.37,1.94,6.99,2.25,13.61-4.17,18.74-6.76.74-13.1-.49-18.98-3.97-2.44-5.34,1.6-6.26,5.12-7.55,4.9,1.67,8.69,1.02,11-4.37,1.2-2.78,2.85-5.8,6.89-5.23Z"/><path class="cls-7" d="M764.02,38.04c4.05,4.17-3.69,4.13-2.41,5.56,1.6,1.79,5.17,1.72,7.15,3.34.73.6,2.06,4.14-.68,5.79-9.05,4.5-15.26-.38-21.13-6.38.94-5.07,5.89-6.83,8.64-10.42,2.81.7,5.63,1.4,8.44,2.1Z"/><path class="cls-41" d="M791.38,349.11c2.75,2.06,5.5,4.13,8.24,6.19,1.55,4.97-1.12,7.6-5.22,9.45-4.26,1.04-8.77-.33-13.05,1.99-3.36,1.82-6.66.25-8.9-2.97,7.87-2.86,12.68-9.69,18.93-14.66Z"/><path class="cls-28" d="M755.58,35.94c-.59,5.01-2.84,8.36-8.42,8.33-4.56,1.48-7.54-1-10.26-4.1-.96-.21-1.92-.41-2.88-.62,3.87-3.14-.6-9.58,4.79-12.11,4.49,5,10.55,6.91,16.77,8.5Z"/><path class="cls-39" d="M652.61,258.66c.65,1.23,1.25,2.48,1.95,3.68,2.93,5.03-.47,4.85-3.85,4.7-2.44-4.65-7.16-6.97-10.75-10.44.19-5.73,1.19-10.99,7.52-13.23,2.74.64,3.51,3.93,6.22,4.63.85.37,1.63.85,2.37,1.4,3.05,4.66-.36,6.9-3.46,9.25Z"/><path class="cls-48" d="M314.47,75.9c-2.45,1.14-4.88,2.33-7.36,3.41-2,.87-4.28,1.17-5.11-1.28-1.03-3.06.87-4.33,3.8-4.3,1.79.02,3.37-.3,4.19-2.14,1.21-5.25,1.09-11.39,8.45-12.47-.17,4.97,3.58,3.87,6.44,4.15-.18,6.92-3.95,10.89-10.42,12.63Z"/><path class="cls-26" d="M259.55,4.43c-4.03,1.48-5.76,5.29-8.32,8.24-5.39,6.21-8.97,6.1-12.58-1.12-1.14-2.29-2.45-2.94-4.55-3.17,7.62-6.9,16.73-4.2,25.46-3.96Z"/><path class="cls-28" d="M230.11,136.77c-3.55-.81-3.89,3.32-6.37,4.15-5.36,1.89-10.52,1.87-15.35-1.56-1.74-2.04-2.76-4.36-2.68-7.09,1.16-4.59,3.89-7.31,8.84-7.35,6.15,2.15,11.34,5.8,15.9,10.41-.11.48-.22.96-.33,1.45Z"/><path class="cls-42" d="M549.55,397.37c-2.11,0-4.4-.25-4.96-2.54-.55-2.28,2.23-1.84,3.33-2.85,1.65-1.52,4.96-.04,5.87-3.1-2.27-5.35,3.01-9.38,2.53-14.42.4-.96,1.04-1.71,1.89-2.29,2.09,1.43,4.18,2.85,6.27,4.28.83,11.11-4.32,17.97-14.93,20.92Z"/><path class="cls-4" d="M444.48,321.73c1.75-.3,5.4-3.33,3.15,2.14-.67,1.64-1.85,3.64-.31,4.75,1.75,1.25,2.77-1.15,3.96-2.14q5.24-4.38,7.94,3.64c-3.2-.1-5.56-.08-6.65,4.31-1.64,6.55-4.03,12.87-3.86,19.76.05,2.03.37,4.23-2.04,5.34.41-12.67-.34-25.27-2.2-37.81Z"/><path class="cls-34" d="M782.93,151.49c2.01,1.97-.66,7.02,5.02,6.87,2.3-.06,2.73,3.25,3.62,5.51,2.24,5.67-1.79,4.18-4.46,4.41-3.84-6.08-12.16-7.58-15-14.69-.57-.82-.82-1.72-.76-2.72.44-1.54,1.49-2.47,2.94-3.03.96-.28,1.93-.39,2.93-.38,2.7.2,4.62,1.52,5.7,4.03Z"/><path class="cls-48" d="M509.73,416.45c.66-3.27,5.97-5.07,2.67-9.73-1.38-1.95,1.6-3.37,2.28-5.11,1.46-3.74,5.68-5.99,5.51-10.52,3.11-4.8,5.61-2.36,8.07.67.12.48.25.97.37,1.45-3.08,5.36-5.83,10.95-9.35,16.01-2.27,3.27-4.76,6.98-9.55,7.23Z"/><path class="cls-26" d="M74.69,210.59c.63-.74,1.27-2.13,1.88-2.11,7.24.17,10.16-3.35,9.49-10.4-.08-.85.84-1.8,1.29-2.7,4.52-.46,5.67,3.04,7.21,6.1,1.3,1.99-2.14,7.23,4.06,5.89,1.42.58,2.22,1.66,2.6,3.1.36,4.4-2.79,7.26-4.62,10.71-1.93,1.64-3.85,3.7-6.12.42,0-5.2-2.54-8.25-7.73-9.03-2.43-1.7-4.96-2.99-8.05-1.99Z"/><path class="cls-42" d="M791.5,298.49c6.56.46,6.67,5.1,6.11,9.84-.54,4.62-4.16,4.91-7.83,4.93-3.83.02-7.7.37-11-2.2-.75-1.77-.55-4.15.7-4.8,4.27-2.23,7.96-5.27,12.02-7.77Z"/><path class="cls-42" d="M829.26,94.51c.52,1.93,2.39,1.76,3.67,2.56,2.1,1.31,5.78,2.67,2.26,6.26-9.05-3.76-16.04-10.28-22.81-17.08,1.35-2.98,4.05-1.77,6.28-2.04,2.17-1.53,2.69-5.54,6.64-4.43,2.1,2.2,2.15,5.23,3.25,7.84.68,2.25,1.88,4.45.72,6.89Z"/><path class="cls-42" d="M648.42,243.95c-5.41,2.49-4.65,9.09-8.45,12.66-3.31-2.11-1.58-5.51-2.14-8.32-2.19-3.24,1.69-7.68-2.1-10.6l.02.02c-1.97-3.5.06-5.99,2.15-8.46.49-.88,1.74-1.58,1.77-.37.11,4.02,1.75,4.19,4.64,2.44.89-.59,1.76-.6,2.62.07,2.05,2.99,1.86,6.52,2.43,9.88,0,1.01-.32,1.91-.93,2.7Z"/><path class="cls-41" d="M770.23,174.61c3.8,1.55,1.09,5.66,3.11,7.9,3.18,3.53,5.01,2.85,5.49-1.82,4.2,5.22.83,11.38,2.12,16.96-1.69,1.79-4.23,1.62-6.25,2.69-.98.2-1.93.12-2.86-.23-3.35-2.6-6.06-5.55-5.69-10.22,1.2-5.13.42-10.8,4.07-15.28Z"/><path class="cls-10" d="M658.92,35.86c.26-1.14.96-1.84,2.1-2.11,2.41-3.17,4.92-6.24,8.4-8.34.68-.11,1.36-.15,2.04-.1,3.8-1.96,7.85-.63,11.78-.89,2.93,1.14,4.58,3.08,4.01,6.41-2.15,3.89-6.27,5.43-9.53,8.02-6.35-.49-12.68-1.08-18.81-3Z"/><path class="cls-3" d="M791.5,298.49c-3.81,1.12-3.36,3.51-1.85,6.22-2.74.97-6.25-1.27-8.43,1.92-.94,1.39-1.63,2.95-2.44,4.43-1.41,0-2.82-.02-4.23-.03,3.2-5.84,2.6-12.53,4.17-18.74,4.19-2.64,7.83-3.59,9.07,2.94,0,.04.63.08.86-.05.26-.16.39-.52.58-.79.68-.73,1.37-.73,2.05,0,.07,1.37.14,2.74.21,4.12Z"/><path class="cls-26" d="M843.91,330.1c7.46-.82,7.65,4.72,6.71,9.15-.82,3.88,1.16,6.55,1.67,9.78-7.79,4.41-14.62-.47-21.25-3.03-2.86-1.11-1.21-5.43,1.4-7.73,3.16-1.71,6.3.27,9.46.07,1.7.44,1.56,3.03,3.6,3.08-.76-3.05,4.66-5.9.45-8.9-1.25-.89-3.39-.45-4.14-2.41.7-.66,1.4-.66,2.11-.02Z"/><path class="cls-34" d="M745.09,260.76c.69,1.39,1.39,2.78,2.08,4.18-1.42,1.24-2.87,1.17-4.36.13-6.02-3.39-7.85-10.28-12.42-14.88-8.13-5.52-8.6-7.67-2.59-11.96,7.9,1.6,10.61,8.82,15.17,14.05,0,.73.01,1.46.02,2.19.78,2.08,1.73,4.09,2.1,6.31Z"/><path class="cls-36" d="M526.5,374.27c.72,2.09,2.48,2.08,4.23,2.1-.84,5.59,2.12,11.66-2.1,16.84l-.13-.14c-1.91-4.02-4.66-6.75-9.51-6.79-2.76-.02-5.66-.21-6.9-3.49-1.25-6.96-2.35-13.89,3.99-19.25,6.37,1.43,2.52,6.38,3.32,9.73,1.04,4.38,2.64,4.15,4.71.62.89-.46,1.69-.33,2.38.39Z"/><path class="cls-48" d="M833.46,54.74c3.46-1.26,8.64,2.97,10.54-3.54.75-2.57,1.95-1.03,1.87.44-.35,6.54,7.17,6.9,9.17,11.88.84,2.1,5.89-2.67,7.76,1.78-3.92-.72-5.44,3.08-8.28,4.38-5.79,1.22-9.96-2.81-14.84-4.54,1.4-5.53-6.53-5.51-6.21-10.4Z"/><path class="cls-26" d="M360.45,201.92c3.12,4.62,6.78,7.62,12.58,4.19,2.54,3.59.74,6.12-2.04,8.42-1,.13-1.99.27-2.99.4-2.78.38-2.96,6.01-5.4,4.26-3.35-2.4-8.01-5.21-6.36-10.99,1.19-2.24,1.71-4.92,4.22-6.28Z"/><path class="cls-40" d="M209.11,138.85c4.88.69,9.75,1.38,14.63,2.07-7.25,3.95-12.85,9.53-16.74,16.83-.14-1.98.65-4.5-1.33-5.65-3.9-2.26-2.57-5.83-2.86-9.04,1.82-1.82,3.72-3.53,6.31-4.21Z"/><path class="cls-2" d="M68.42,109.4c.67,0,1.33.02,2,.03,2.15,9,8.98,6.95,15.17,6.43-.56,6.87-1.82,13.3-9.73,15.54-2.94-4.83-8.48.16-11.87-3.1-.53-6.77,5.96-11.9,4.43-18.9Z"/><path class="cls-36" d="M761.9,300.7c-2.61,1.63-6.56,1.91-6.32,6.37-11.15-8.87-11.57-13.57-2.04-23.05,2.44,1.57.4,6.68,5.13,6.47,1.68,3.22,4.54,6.06,3.24,10.21Z"/><path class="cls-28" d="M560.31,52.78c-1.39-.04-2.83.14-4.15-.17-6.21-1.49-8.15-5.29-6.54-12.57,4.1.09,8.19.14,10.49-4.23,4.29,4.84,5.63,10.5,4.67,16.79-1.45,1.18-2.93,1.33-4.47.17Z"/><path class="cls-14" d="M728.28,302.8c-.23,4.14,6.16,5.62,4.22,10.45-5.73,0-9.32-4.5-10.86-8.33-2.93-7.3-8.69-13.13-10.26-20.99,3.16,1.05,5.68,3.5,6.87,6.09,2.37,5.19,6.78,8.48,10.04,12.79Z"/><path class="cls-48" d="M171.28,191.4c.83-5.06,6.33-6.4,8.36-10.5-.71,8.37,2.18,17.03-2.09,25.1l-1.05.06-1.05-.03c-5.34-3.75-11.62-7.23-4.18-14.63Z"/><path class="cls-7" d="M192.16,46.3c.7-1.69,1.92-2.97,3.52-3.71,3.17-1.48,5.32-2.61,2.37-6.76-2.05-2.89,1.91-5.48,2.63-8.38,1.22-.58,2.39-1.42,3.67-1.67,2.19-.42,5.03-1.61,6.17,1.29.84,2.15-1.98,3.26-2.78,4.97-.94,1.99-7.84,1.32-2.82,6-1.06,7.68-5.92,9.5-12.76,8.26Z"/><path class="cls-5" d="M232.08,124.22c3.14-.36,5.83.28,8.28,2.59,2.16,2.03,4.75,2.63,6.66-.65,3.21,6.92-2.26,9.47-6.39,12.69-2.7-.34-4.82-1.96-7.07-3.27-2.11-2.19-5.52-3.19-6.16-6.73.42-2.7,3.08-3.13,4.69-4.62Z"/><path class="cls-30" d="M820.78,290.22c.83,7.7,2.76,14.82,10.21,18.96-1.32,1.4-2.64,2.8-3.96,4.2-9.1-.71-12.27-4.05-9.46-11.92,1.33-3.73-.94-8.46,3.21-11.23Z"/><path class="cls-42" d="M757.76,370.27c2.79-1.48,5.57-2.95,8.36-4.43,2.05,1.71,4.79,2.88,4.88,6.15-.72,2.72-2.55,4.92-3.54,7.53-.99,2.23-1.62,4.68-3.75,6.23-3.23,1.4-5.98.66-8.34-1.85-1.4-4.92-.7-9.48,2.39-13.62Z"/><path class="cls-28" d="M574.83,243.86q-3.97-7.54-2.12-14.77c.04-3.14,1.71-3.2,3.98-2.11,1.24.44,3.6,1.12,3.56,1.27-1.15,5.07,4.08,7.24,5.02,11.28-4.18-.24-6.11,4.95-10.45,4.33Z"/><path class="cls-11" d="M188.14,222.89c-3.97.41-7.91,0-11.9,1.62-2.78,1.13-6.61,1.95-9.26-1.35-1.39-1.56-1.89-3.34-1.28-5.38.37-.91.95-1.66,1.73-2.26,2.62-.98,5.24-2.05,8.12-1.04,3.49,1.38,6.49,3.83,10.33,4.47,2.21.37,2.21,2.26,2.18,4.02l.09-.09Z"/><path class="cls-39" d="M303.73,330.13c-4.19-.02-6.31-2.11-6.34-6.31-3.26-2.67-4.5-6.68-6.75-10.04-.7-1.96-.13-3.74.71-5.5.5-.85,1.17-1.54,1.97-2.1,1.49-.48,2.85-.31,4.01.84,4.34,7.09,7.62,14.48,6.4,23.11Z"/><path class="cls-46" d="M757.81,290.23c-2.23-.23-1.64,4.11-4.21,2.82-2.65-1.33-.51-3.34-.24-5.09.2-1.29.13-2.63.17-3.94,3.45-2.86,6.9-5.73,10.35-8.59,2.96-.11,4.5,1.23,4.34,4.29.58,7.52-3.57,10.36-10.42,10.52Z"/><path class="cls-20" d="M721.97,279.68c-4.06-1.65-7.57-4.96-12.46-4.15.76-1.91,2.37-2.18,4.14-2.15,2.7.04,3.04-.9,2.57-3.67-.72-4.29-.36-8.76-.47-13.16,2.79,2.9,2.92,7.41,6.49,9.99,2.48,1.79,2.64,5.12,1.3,7.54-1.99,3.59,2.48,3.47,2.62,5.63-1.41,1.27-2.81,1.15-4.2-.03Z"/><path class="cls-15" d="M770.32,372.15c-.9-2.44-5.11-2.66-4.21-6.3,2.05-.9,3.86-2.5,6.34-2.07,6.26,3.47,11.7-1.78,17.67-1.69,1.54.02,2.65.1,3.3,1.59-5.75,8.13-13.51,10.79-23.1,8.48Z"/><path class="cls-23" d="M841.89,338.35c-2.74,4.72-5.66,1.02-8.52.18-1.43,1.11-3.03,1.97-4.58,2.89-.97.07-1.81-.22-2.55-.83-3.2-2.77-7.19-5.13-5.48-10.46,8.36-.64,15.53,1.76,21.13,8.22Z"/><path class="cls-11" d="M843.91,330.1c-.7,0-1.41.01-2.11.02-1.98-.62-2.13-2.36-2.44-4,1.52-.72,3.02-1.48,4.57-2.13.91-.38,1.89-.59,2.84-.87-7.55-6.26,4.21-5.77,3.39-9.68,6.87.51,4.53,6.65,6.29,10.28l.06.16c-1.33,3.37-3.96,4.37-7.36,4.18-1.99-.11-4.19-.4-5.24,2.05Z"/><path class="cls-41" d="M812.36,153.57c-.12-4.13.76-7.86,4.15-10.62,5.33,4.02,5.88,12.14,12.73,14.86-.52,5.13-3.34,7.93-8.49,8.36.25-1.87,3.19-4.76.93-5.25-4.67-1.02-5.33-6.17-9.33-7.36Z"/><path class="cls-10" d="M154.46,214.52c-1.8-1.04-2.6-2.52-.58-3.81,5.64-3.6,11.53-3.36,17.42-.48.09.67.18,1.35.25,2.03-.42,2.55-3,2.89-4.48,4.36-1.79,1.79-3.6,3.52-6.45,2.18-1.07-.2-1.79-.78-2.04-1.87-1-1.44-3.26-.73-4.12-2.41Z"/><path class="cls-4" d="M764.01,399.49c-4.09,7.94-8.97,15.62-8.4,25.12-2.3.05-4.83-.87-3.9-3.26,2.75-7.09.95-14.88,3.88-21.85.31-.33.62-.66.93-.99.81-.43,1.68-.69,2.59-.82,1.39-.09,2.72.14,3.97.79.31.33.62.66.93,1Z"/><path class="cls-25" d="M63.99,128.31c3.42.38,6.04-2.67,9.58-2.11,4.16.66.87,2.8,1.02,4.25-.62,3.19-3.03,4.7-5.65,6.02-3.04.71-5.43,3.93-9.06,2.38-.51-2.38-3.94-1.92-4.33-4.43,1.68-3.61,5.56-4.17,8.44-6.11Z"/><path class="cls-12" d="M484.5,37.94c-13.84.07-15.54,1.27-21.06,14.73-2.08-1.01-4.42-1.89-2.73-4.97,1.22-2.24-1.05-3.55-1.41-5.36,7.69-5.52,15.68-9.38,25.21-4.4Z"/><path class="cls-12" d="M255.15,124.32c1.31-.55,2.09-1.52,2.53-2.88,1.44-4.41,3.57-6.09,7.39-1.96.52.56,1.91.32,2.9.44.85,1.7,2.66,1.54,4.09,2.11-1.45,8.94-2.73,9.82-10,6.44-2.43-1.13-5.26-1.71-6.92-4.16Z"/><path class="cls-42" d="M686.24,31.65c.41-2.47-1.37-4.21-2.1-6.29,1.39-1.19,2.77-1.24,4.14.02,1.11.17,1.92.71,2.22,1.85,2.15,4.06,5.8,6.48,9.7,8.5,1.08.56,3.46-.12,3.48,1.09.03,1.55-2.27.91-3.46,1.49-1.25.61-2.48,1.25-3.72,1.88-2.41,2.06-4.69,1.5-6.91-.32-2.03-2.36-3.57-4.93-3.36-8.22Z"/><path class="cls-29" d="M829.25,157.82c-3.08,2.65-5.02-1.79-7.76-1.24.51-5.33-5.94-8.12-4.97-13.62,1.37-2.87,4.11-1.86,6.35-2.25.7.77,1.4,1.55,2.11,2.32.31,5.25,5.69,9.04,4.25,14.8h.02Z"/><path class="cls-46" d="M564.33,52.7c-2.33-5.4-3.59-11.07-4.22-16.89.25-1.17,1.01-1.8,2.14-2.04,3.51,2.78,4.23,7.23,6.44,10.78,2.2,2.81,4.09,5.85,1.29,9.16-2.08,2.46-4.17,1.6-5.65-1.01Z"/><path class="cls-11" d="M122.93,40.05c0,4.74,3.43,3.92,6.47,4.28,4.86.57,10.18-2.03,14.55,2-10.23,4.94-21.22,4.86-32.17,4.67-2.57-.04-5.69-.77-5.69-4.62,3.66,0,7.32,0,10.97,0,1.28,0,2.98.05,2.38-1.8-.33-1.03-1.89-1.65-2.89-2.46,1.46-2.74,4.08-1.9,6.38-2.07Z"/><path class="cls-34" d="M919.76,433.01c-5.08,1.87-10.15,2.4-15.22-.03.55-2.16-.4-4.86,2.25-6.26,5.08.95,6.46-3.18,8.59-6.26,2.9.01,4.37,1.32,4.27,4.37-.09,2.72.07,5.46.12,8.18Z"/><path class="cls-1" d="M873.35,471.07c2.14-5.35,8.06-7.01,11.95-9.92,3.65-2.73,5.54-6.76,9.23-9.04-2.43,12.74-6.68,16.55-21.18,18.95Z"/><path class="cls-10" d="M904.81,363.12c-.12-4.15,2.94-7.73,6.51-7.3,2.19.26,3.76,1.67,3.71,4.11-.05,2.53-5,9.77-6.47,9.68-2.09-.13-3.65-2.83-3.75-6.49Z"/><path class="cls-30" d="M728.26,239.75c-1.48.28-4.06-.26-2.7,2.57,1.33,2.76,3.2,5.25,4.84,7.86-5.36,1.91-4.14,6.54-4.36,10.57-5.5-4.36-1.63-12.2-6.27-16.89-.38-3.28.27-6.26,3.77-7.25,2.26-.64,4.87-.48,4.72,3.13Z"/><path class="cls-36" d="M257.45,44.25c-.14-1.32-.05-2.78-1.3-3.64-3.48-2.38-3.18-3.61.88-4.99,2.41-.82,7.58-.64,4.63-6.02,6.63.3,6.88,5.91,8.58,10.31-.34.25-.69.51-1.02.77-2.47.38-5,.59-6.91,2.53-1.48,1.02-2.95,2.07-4.86,1.04Z"/><path class="cls-11" d="M862.87,401.63c3.71-2.32,8.77-2.11,11.51-6.26.47-.71,1.4-1.77,2.39-.7.8.85.24,1.88-.41,2.69-.43.54-.94,1.01-1.37,1.55-.83,1.05-2.3,2.37-.9,3.47,1.19.94,2.22-.86,3.24-1.59,1.16-.83,1.82-.33,2.27.8.09,3.03-1.33,5.12-4.02,6.41-3.29-4.01-8.96-3.28-12.72-6.37Z"/><path class="cls-12" d="M82.74,212.57c2.68-.89,5.34-4.11,8.16-.86,2.33,2.68,2.96,5.93.5,9.11-1.23,1.13-.38,3.3-2.09,4.19-.02,1.45-.05,2.9-.07,4.35-2.17-5.6-4.34-11.2-6.5-16.79Z"/><path class="cls-10" d="M791.29,294.38c-.68,0-1.37.01-2.05,0,0-2.1,0-4.2,0-6.3,3.12-2.62,7.41.58,10.51-2.12,2.62.18,6.1-.79,6.17,3.44.05,2.78-2.49,2.8-4.57,3-3.42.32-6.46,2.59-10.06,1.97Z"/><path class="cls-11" d="M820.77,330.13c2.1,3.52,4.2,7.05,6.3,10.57-.58.61-1.17.6-1.78.06-4.47-.34-9.18.66-13.16-2.38.46-5.28,4.93-6.38,8.65-8.25Z"/><path class="cls-42" d="M839.66,65.27c3.18-.22,7-2.52,9.01,1.77,1.36,2.9,4.92-.39,5.85,2.63-.03.65-.1,1.29-.23,1.93-6.87,7.31-8.12,7.12-14.93-2.2-.15-.46-.29-.93-.44-1.4,0-.49,0-.98-.01-1.47.25-.42.5-.84.74-1.26Z"/><path class="cls-20" d="M440.24,311.38c.33-5.43,2.18-8.88,8.49-6.48.1,1.26-.23,3.05,1.42,3.21,1.39.13,2.8-.37,2.65,1.68-.06.89-.91,2.52-1.05,2.48-3.04-.81-5.65-1.6-4.31,3.43.27,1.03-.85,1.15-4.35-1.97-.23-.21-.63-.22-.96-.32-1.09-.24-1.7-.93-1.9-2.02Z"/><path class="cls-4" d="M757.76,370.27c-.71,4.13-1.42,8.25-2.13,12.38,1.57,2.29,2.46,4.81,2.57,7.6.09,1.09.06,2.18-.03,3.27-.14,2.27-1,4.23-2.51,5.92l-.07.06c-5.76-8.76-4.26-17.84-.98-26.9.37-1.02,2.07-1.56,3.15-2.33Z"/><path class="cls-1" d="M476.25,420.38c-3.87,1.71-7.3,4.89-12.07,3.56-.25.95-.49,1.9-.74,2.85-1.16-.2-1.86-.9-2.14-2.03-2.57-4.82-.25-7.18,4.24-8.47,1.4,0,2.8,0,4.2,0,2.68-2.27,4.66-.8,6.55,1.21.48.96.49,1.92-.05,2.87Z"/><path class="cls-42" d="M789.31,80.12c-.26,1.11-.94,1.8-2.05,2.07-3.12,1.65-5.91-.02-8.8-.86-2.4-1.23-4.63-2.62-5-5.64.37-3.1,2.21-4.78,5.19-5.36,5.53,1.11,9.97,3.41,10.66,9.8Z"/><path class="cls-40" d="M667.29,252.31c-1.49-2.33-3.01-2.54-3.96.28-.52,1.54-.46,3.26-2.32,3.97-4.7-4.58-3.15-7.91,2.1-10.51,1.81-2.96,2.29-6.89,6.11-8.39.39,5.02-.05,9.93-1.93,14.65Z"/><path class="cls-12" d="M839.68,67.39c.71.69,1.52,1.31,2.11,2.09q5.26,6.96,12.5,2.13c.02,4.22-2.22,6.18-6.3,6.29-2.72.07-5.44.11-8.16.17l-.19-.21c-2.02-3.49-6.3-6.99.04-10.46Z"/><path class="cls-11" d="M173.69,10.61c-3.25,8.19-4.26,8.79-10.6,6.27,2.86-8.17,4.18-8.95,10.6-6.27Z"/><path class="cls-1" d="M274.34,27.42c6.63-2.81,12.5-2.61,16.73,4.18-5.92-.03-12.7,3.4-16.73-4.18Z"/><path class="cls-29" d="M213.26,12.8c-4.15-6.97-3.74-8.07,3.25-8.45,2.06-.11,4.13,0,6.19.07,1,.03,2.28.21,1.95,1.54-.33,1.38-1.59,2.16-2.97,2.55-3.09.87-4.45,5.15-8.42,4.29Z"/><path class="cls-28" d="M570.46,248.17c-5.34-.5-9.97,3.81-15.56,2.17-1.84-.54-4.09.2-5.29-2.01,3.21-4.34,9.08-1,12.62-4.39,2.31-.03,4.6.14,6.71-1.26,1.75-1.16,3.08-.4,3.88,1.42-.79,1.35-1.57,2.71-2.36,4.06Z"/><path class="cls-18" d="M593.93,210.2c-.8.06-1.6.12-2.39.18-.39-.22-.78-.44-1.18-.65-1.65-1.49-3.24-3.06-5.08-4.33-1.1-.84-1.99-1.85-2.59-3.11-.2-.94.02-1.77.6-2.52,7.54,3.24,16.48,2.6,23.08,8.4-2.86.3-5.39-.71-8.04-1.66-3-1.08-4.62.44-4.41,3.69Z"/><path class="cls-48" d="M755.6,262.74c-3.4-6.79-3.29-13.9-1.98-21.13,3.79,6.75,6.47,13.6,1.98,21.13Z"/><path class="cls-48" d="M381.47,21.15c1.39-4.02,4.64-4.41,8.2-4.23-1.06,3.61,3.57,9.39-4.02,10.49-.91-2.41-5.08-2.64-4.18-6.26Z"/><path class="cls-30" d="M789.31,80.12c-2.01-4.82-6.51-6.54-10.73-8.6.98-4.45,3.55-3.78,6.45-1.99,1.78,2.85,3.1,5.95,7.7,5.14,1.37-.24,4.04.9,4.9,3.18-2.77.76-5.55,1.52-8.32,2.27Z"/><path class="cls-26" d="M333.14,2.3c.7,1.39,1.39,2.78,2.09,4.17-3.3,6.84-8.62,6.81-14.67,4.32.68-1.49,1.36-2.98,2.04-4.47,2.64-3.62,7.61-1.13,10.54-4.01Z"/><path class="cls-34" d="M454.85,389.04c4.67-2.57,9.93-1.04,14.81-2.14,1.92.77,3.1,1.91,2.08,4.15-5.78-1.39-10.91,2.34-16.54,2.09-.12-1.37-.23-2.73-.35-4.1Z"/><path class="cls-29" d="M774.53,199.8c.14-6.71,4.58-.56,6.42-2.15,2.83,1.18,4.34,3.2,4.08,6.36-6.68,6.47-7.5,6.14-10.5-4.21Z"/><path class="cls-1" d="M234.27,464.65c-3.1-1.96-1.91-6.02-4.14-8.41q4.02-7.32,8.48-1.91c-1.42,3.45-4.37,6.26-4.34,10.31Z"/><path class="cls-34" d="M915.37,420.46c2.01,4.59-1.67,7.82-3.97,9.89-4.21,3.78-2.15-3.4-4.61-3.63.02-.68.09-1.36.22-2.03,1.47-4.04,3.48-7.01,8.39-4.21l-.02-.02Z"/><path class="cls-41" d="M774.53,199.8c.69.65,1.79,1.2,2,1.98,1.56,5.86,4.56,5.73,8.5,2.23-.52,5.14-2.93,7.77-8.4,6.3-2.1-1.64-2.5-4.4-4.2-6.3-.7,0-1.4,0-2.1,0-1.3-4.1,2.86-2.74,4.2-4.2h.01Z"/><path class="cls-41" d="M225.93,31.66c-1.79.01-3.6,0-4.25,2.2-1.85,1.6-2.32,5.3-6.08,4.03-.87-4.33-.14-8.03,4.03-10.4,1.11-1.21,2.5-1.47,4.06-1.21,1.97.58,3.7,1.53,4.81,3.36-.1,1.63-.41,3-2.57,2.02Z"/><path class="cls-41" d="M829.23,157.83c-.43-1.22-.5-3.06-1.35-3.56-4.89-2.85-4.03-6.97-2.9-11.24,5.48,5.88,6.36,8.95,4.25,14.8Z"/><path class="cls-1" d="M545.52,319.57c-4.27.68-4.8-3.38-6.55-5.55-2.35-2.92-.92-4.12,2.58-3.79,1.21.11,2.51-.71,3.76-1.11.07,3.48.14,6.97.21,10.45Z"/><path class="cls-25" d="M251.15,285.99c.7-2.78,1.4-5.55,2.1-8.33,4.28,2.16,5.65,6.08,6.3,10.44-3.1.48-5.79-.65-8.4-2.1Z"/><path class="cls-30" d="M778.73,80c3.16-.49,5.88.71,8.54,2.2-.08,3.01-1.55,5.08-4.25,6.32-.76-4.88-6.55-3.09-8.49-6.41.95-1.61,2.5-2.01,4.21-2.11Z"/><path class="cls-32" d="M227.91,19.08c-2.77,2.15-5.53,4.3-8.3,6.45-2.65-1.58-3.12-3.85-.89-5.8,2.69-2.35,5.93-3.24,9.19-.65Z"/><path class="cls-28" d="M772.37,323.85c2.05-.68,2.15-2.37,2.11-4.12,2.28.65,2.07,3.27,3.62,4.55,2.37,1.94,2.6,3.93-.54,5.22-2.48,1.02-4.68.75-5.03-2.63-.1-1-.11-2.01-.17-3.01Z"/><path class="cls-11" d="M389.99,59.01c-3.62.31-5.17-2.33-5.29-5-.13-2.98,2.73-3.39,5.24-3.43,1.37-.02,2.74-.01,4.12-.02,2.49,1.33-3.41,2.93.13,4.23-.74,2.06-2.22,3.39-4.2,4.22Z"/><path class="cls-5" d="M373.06,176.69c-.68,0-1.36,0-2.04,0,.97-5.95,4.74-9.22,10.32-10.74.37,3.22-1.11,5.29-4.02,6.48-2.01.82-3.55,2.13-4.26,4.26Z"/><path class="cls-11" d="M362.3,63.31c5.15-.34,10.46-1.74,15.02,2.11-5.73,4.43-10.21,0-15.02-2.11Z"/><path class="cls-28" d="M234.34,134.65c3.12-.14,5.22,1.25,6.29,4.19-4.56,4.67-7.3.1-10.52-2.06l.08-.14c.91-1.66,1.89-3.15,4.15-1.99Z"/><path class="cls-40" d="M198.54,166c-.6-2.05-2.69-3.59-.84-6.33,2.83-4.17,4.89-2.25,7.21.21-1.32,2.88-3.28,5.09-6.38,6.12Z"/><path class="cls-41" d="M278.48,302.8c.42-2.48-1.44-4.23-2.07-6.38,3.71.9,7.55,1.46,10.49,4.26-.12.45-.25.89-.36,1.35-2.29,4.35-4.87,5.8-8.06.77Z"/><path class="cls-20" d="M736.67,290.27c.7-2.78,1.41-5.55,2.11-8.33,2.59,1.03,3.61,3.86,3.55,5.72-.09,3.14-1.59,6.52-5.66,2.6Z"/><path class="cls-30" d="M669.42,25.42c-1.45,4.14-4.24,6.93-8.4,8.34-.25-2.8,2.68-5.6,0-8.4,2.8.02,5.6.04,8.4.07Z"/><path class="cls-30" d="M53.54,136.69c.02.35.13.72.05,1.05-.72,2.9,4.34,4.36,2.28,6.93-1.28,1.6-4.36,1.75-6.63,2.55.08-4.06.84-7.85,4.3-10.53Z"/><path class="cls-1" d="M297.31,37.81c.03,3.84-.04,7.67.11,11.5.14,3.44-.68,6.21-4.19,7.56,3.51-5.89.07-13.28,4.08-19.06Z"/><path class="cls-11" d="M835.21,315.57c2.14-.83,4.51-2.79,5.97.81,1.4,3.47.11,5.31-3.65,5.36-2.71-1.33-1.77-4.02-2.31-6.16Z"/><path class="cls-10" d="M276.42,296.45c-.67.07-1.46-.08-1.98.23-5.2,3.07-8.41,2.39-8.57-4.37,3.79.69,7.54,1.46,10.56,4.14Z"/><path class="cls-30" d="M814.38,119.95c-3.1-.19-4.25,1.5-4.21,4.35-1.38-.09-2.76-.17-4.14-.26-.46-.45-.61-.9-.45-1.35.16-.45.32-.67.47-.67,1.04-2.98,4.3-4.85,4.21-8.4,2.58,1.32,2.9,4.12,4.12,6.33Z"/><path class="cls-1" d="M394.19,54.79c-.7.04-1.41.18-2.09.1-1.26-.16-2.69,2.07-3.57.24-.78-1.61.86-2.25,2.29-2.4,1.48-.16,2.66-.68,3.24-2.16-.7-1.38-1.39-2.76-2.09-4.14,6.63,1.23,4.81,4.7,2.22,8.37Z"/><path class="cls-36" d="M637.9,229.23c-.72,2.82-1.44,5.64-2.15,8.46-3.99-4.4-1.11-9.86-2.25-14.69,3.55.6,1.1,5.45,4.41,6.23Z"/><path class="cls-25" d="M242.81,269.11c-4.71-.03-10.18,1.23-10.61-6.17,3.42,2.26,7.87,2.74,10.61,6.17Z"/><path class="cls-46" d="M806.01,324.19c1.78.28,3.35,1.2,3.19,3.18-.11,1.43-1.61,2.32-3.09,2.29-1.87-.04-3.5-.98-3.26-3.06.16-1.43,1.59-2.17,3.16-2.41Z"/><path class="cls-41" d="M827.06,433.12c-.7,1.4-1.4,2.8-2.09,4.19-2.12-.2-4.6-.46-3.38-3.44.95-2.34,1.42-4.54,1.01-6.97,3.64.53,1.16,5.44,4.46,6.22Z"/><path class="cls-30" d="M688.29,25.37c-1.38,0-2.76-.01-4.14-.02l-12.68-.04c5.62-3.08,11.23-3.27,16.83.06Z"/><path class="cls-41" d="M194.47,410.02c2.96,1.36,1.76,4.06,2.04,6.29-1.66,2.79,2.91,5.65-.08,8.43-4.15-4.44-1.25-9.82-1.96-14.72Z"/><path class="cls-7" d="M419.16,279.75c.98-.02,1.96,0,2.94-.07,5.73-.43,6.08,2.11,3.51,6.3-2.81-1.39-4.92-3.51-6.45-6.22Z"/><path class="cls-23" d="M809.31,310.95c-2.06-.08-3.08-1.11-2.78-2.52.36-1.66,1.67-2.91,3.56-2.96,1.8-.05,2.22,1.44,2.16,2.73-.1,1.96-1.38,2.9-2.95,2.75Z"/><path class="cls-41" d="M883.85,305.06c-1.2,3.42.95,9.35-6.22,8.28-.07-4.37,2.76-6.56,6.22-8.28Z"/><path class="cls-36" d="M276.31,48.46c-2.78-1.4-5.57-2.79-8.35-4.19-.98-2.22.41-3.26,2.06-4.18l.21-.17c3.24,1.98,6.21,4.16,6.07,8.54Z"/><path class="cls-39" d="M831.26,130.44c-.99,0-1.98.08-2.96-.02-1.48-.15-3.76.77-4.16-1.12-.36-1.73,1.56-2.63,3.28-2.94.64-.12,1.31-.15,1.96-.22,1.64.99,4.38,1.5,1.88,4.3Z"/><path class="cls-12" d="M568.58,363.81c.66-4.16,1.32-8.32,1.98-12.48,3.32,4.79,3.68,9.11-1.98,12.48Z"/><path class="cls-6" d="M788.03,326.03c1.43.23,3.13.55,2.71,2.23-.54,2.17-2.8,2.66-4.72,2.9-.61.08-1.96-1.14-1.99-1.79-.09-2.64,2.07-2.97,3.99-3.34Z"/><path class="cls-26" d="M236.44,481.46c1.13-.26,1.83-.97,2.1-2.09,3.77,2.91,1.31,7.02,2.02,10.52-2.79-2.11-3.85-5.07-4.12-8.42Z"/><path class="cls-25" d="M251.11,275.47c-2.37-2.65-8.56-.33-8.31-6.39,3.62,1.03,8.01,1.05,8.31,6.39Z"/><path class="cls-31" d="M272.07,122.04c-.29.16-.59.31-.88.48-1.47.83-1.53,4.6-4.16,2.65-2.25-1.67.81-3.42.94-5.24.2-1.1.83-1.8,1.94-2.05l2.16,4.16Z"/><path class="cls-3" d="M799.75,285.97c-2.85,3.94-7.02,1.36-10.51,2.12.04-2.19.09-4.38.13-6.56,2.08,4.72,6.11,4.86,10.38,4.44Z"/><path class="cls-41" d="M297.33,307.02c-1.38,0-2.76-.01-4.14-.02-3.76-.41-6.99-1.35-6.36-6.24l.07-.09c4.3.75,8.33,1.96,10.43,6.34Z"/><path class="cls-28" d="M154.46,214.52c1.83.03,3.71-.03,4.12,2.41-5.24.13-2.71,6.4-6.23,7.88,0-2.73,0-5.45,0-8.18,1.15-.26,1.89-.92,2.1-2.11Z"/><path class="cls-28" d="M160.63,218.8c2.14-.75,3.91-2.59,6.45-2.18-.03,2.18-.07,4.36-.1,6.53-2.97-.2-5.09-1.65-6.35-4.35Z"/><path class="cls-36" d="M798.39,330.16c1.36.08,2.83.24,2.96,1.95.14,1.95-1.14,3.27-2.93,3.26-1.33,0-2.45-1.4-2.57-2.75-.13-1.49.97-2.37,2.54-2.46Z"/><path class="cls-36" d="M635.72,237.68c7.08,2.27,1.95,6.96,2.1,10.6-3.7-2.94-1.48-7.05-2.1-10.6Z"/><path class="cls-11" d="M146.27,42.05c-4.98-.66-10.44,2.2-14.94-2.01,4.95.92,10.39-1.83,14.94,2.01Z"/><path class="cls-16" d="M465.55,416.3c-2.1,2.48-5.26,4.43-4.24,8.47-3.52-2.09-1.53-5.59-2.17-8.42,2.15,1.13,4.25-3.11,6.41-.05Z"/><path class="cls-26" d="M791.35,418.44c-.27-1.26-.54-2.53-.81-3.79,2.68-.54,5.45-1.5,7.17,1.79-1.48,2.68-4.1,1.77-6.35,2Z"/><path class="cls-42" d="M392,14.76c3.7-2.96,7.93-4.29,12.65-4.07-3.37,4-7.89,4.39-12.65,4.07Z"/><path class="cls-20" d="M793.45,252.37c1.05,0,2.11-.13,3.13.03,1.36.21,2.99.59,2.39,2.47-.23.7-1.49,1.37-2.35,1.5-1.71.25-3.47.1-5.21.11.68-1.37,1.37-2.75,2.05-4.12Z"/><path class="cls-41" d="M816.09,287.62c-.01,1.43-.68,2.43-2.31,2.52-1.38.08-2.83-.03-3.11-1.72-.33-2.02,1.11-3.37,2.74-3.58,1.21-.16,2.27,1.26,2.67,2.78Z"/><path class="cls-38" d="M213.26,12.8c2.52-1.98,4.33-5.37,8.42-4.29-2.54,1.95-2.69,8.59-8.42,4.29Z"/><path class="cls-48" d="M742.82,265.07c1.45-.04,2.9-.09,4.36-.13,2.08-1.24,4.15-1.43,6.23,0-3.49,3.27-7.02,3.03-10.59.13Z"/><path class="cls-48" d="M421.41,107.32c-2.44-2.91.12-5.74.13-8.62,2.12.65,1.63,3.77,3.99,4.19-.47,2.31-1.97,3.67-4.12,4.42Z"/><path class="cls-7" d="M749.31,224.97c3.74-4.03,8.51-1.32,12.77-1.96-3.77,3.82-8.52,1.24-12.77,1.96Z"/><path class="cls-28" d="M167.07,216.62c.73-2.24,2.29-3.62,4.48-4.36,1.67.12,3.28.36,3.99,2.23-2.63,1.46-5.34,2.63-8.46,2.14Z"/><path class="cls-30" d="M810.26,113.63c-5.85-.1-6.63-3.9-6.21-8.55,2.07,2.85,4.14,5.7,6.21,8.55Z"/><path class="cls-34" d="M915.39,420.48c-4-1-5.96,2.08-8.39,4.21,1.05-7.21,1.85-7.62,8.39-4.21Z"/><path class="cls-11" d="M143.96,233.44c-.01-3.05,1.71-3.64,6.22-2.13.03,1.41.06,2.82.09,4.22-2.09-.72-3.83-2.51-6.3-2.1Z"/><path class="cls-28" d="M284.74,4.18c-4.1,3.52-8.28,3.35-12.54.29,4.18-.1,8.36-.2,12.54-.29Z"/><path class="cls-5" d="M387.69,159.9c1.78-.02,3.58-.12,4.29,2.07-1.36,3.04-4.09,1.87-6.38,2.06.7-1.38,1.39-2.76,2.09-4.13Z"/><path class="cls-41" d="M799.79,342.96c.63,4.99-1.71,6.8-6.46,6.02,2.15-2.01,4.31-4.01,6.46-6.02Z"/><path class="cls-14" d="M204.76,16.97c-6.8-.67-7.06-1.06-4.24-6.3-.74,3.55,3.35,3.85,4.24,6.3Z"/><path class="cls-36" d="M566.48,374.36c.69-3.53-1.93-7.72,2.12-10.58-.81,3.51,1.49,7.63-2.12,10.58Z"/><path class="cls-42" d="M404.66,10.72c-.72-1.43-1.45-2.86-2.17-4.29,1.95.26,4.69-.75,5.49,1.66.84,2.52-1.73,2.3-3.32,2.63Z"/><path class="cls-4" d="M772.42,204.01c2.94,1.07,4.34,3.17,4.2,6.3l-4.24-.23c.01-2.02.02-4.04.04-6.07Z"/><path class="cls-34" d="M854.48,357.6c-.07,4.16-2.97,4.43-5.84,3.77-3.36-.77-6.57-2.21-9.86-3.32-10.91-3.68-12.37-6.22-9.77-17.15.66-2.26,2.47-2.39,4.36-2.37-2.37,4.35-4.32,8.45,3.88,6.46,2.37,4.02,8.27-.39,10.56,4.57.93,2.01,2.94-.33,4.48-.53,1.4,1.4,2.8,2.8,4.21,4.21-1.53,1.05-1.23,2.96-2.02,4.36Z"/><path class="cls-26" d="M854.48,357.6c-.96-2.21-2.61-4.74,2.02-4.36.74,2.1,2.55,3.85,2.08,6.35-1.37-.67-2.73-1.33-4.1-2Z"/><path class="cls-35" d="M383.71,262.82c1.12.27,1.75,1,1.98,2.11-.82,1.83-2.27,2.35-4.12,1.9-2.17-.53-2.58-2.41-1.97-3.94,1.04-2.64,2.72.21,4.12-.07Z"/><path class="cls-7" d="M173.43,283.79c4.14,5.5,2.07,10.84-.63,16-2.23,4.26-4.52,8.4-3.44,13.46-5.05-3.23-.07-9.41-3.92-13.12-2.99-2.89-4.44-4.78,2-3.98,4.97.62,5.06-4.49,5.91-8.06.03-1.43.05-2.86.08-4.29Z"/><path class="cls-11" d="M177.66,269.25c-1.13,3.19-7.54.78-6.56,6.2-3.12-2.96-3.14-5.25,1.53-6.18,1.62-.32,3.36-.03,5.04-.02Z"/><path class="cls-42" d="M183.82,63.06c5.79-3.98,12.77-5.26,18.98-8.3,2.84-4.97,8.25-4.76,12.77-6.32,3.54-.27,5.14,2.64,7.47,4.45,4.75,3.68-.97,5.46-1.32,8.2,1.27,1.46,1.07,2.97.13,4.5-8.34,5.68-18.19,6.84-27.63,9.28-6.22-1.5-12.5-2.97-10.39-11.8Z"/><path class="cls-12" d="M221.69,65.34l.03-4.26c1.4-.01,2.8-.02,4.2-.03,3.51-2.71,7.02-3.66,10.52.02-.24,1.17-.97,1.87-2.11,2.17-1.68.12-3.58.01-3.97,2.24-.58,3.28,1.36,5.02,4.07,6.19-.88,1.94-2.14,3.47-4.35,3.97-1.23-.66-2.68-.87-3.77-1.83-2.16-1.94-3.94-4.12-4.62-7.04,0-.48,0-.95,0-1.43Z"/><path class="cls-42" d="M236.44,61.06c-3.5-1.14-7.01-1.11-10.52-.02,5.18-5.77,7.63-5.76,10.52.02Z"/><path class="cls-10" d="M295.37,323.82c-4.28-7.23-13-6.27-19.07-10.23-1.29-.84-3.31-.56-4.12-2.39,3.02-2.11,4.69-5.24,6.3-8.4,2.02.21,5.26,4.89,5.6-1.51.01-.22,1.79-.35,2.75-.52.7,3.52,5.02,3.37,6.36,6.24,0,.7,0,1.4,0,2.1-1.87.89-4,.79-5.9,1.55.97,1.32,2.99,1.12,3.81,2.65,6.37.94,4.73,6.69,6.3,10.51-.67,0-1.35,0-2.02,0Z"/><path class="cls-28" d="M520,359.47c.32-1.07.95-1.83,2.08-2.11,3.3-.47,6.2,3.55,9.86.68,1.07-.84,2.6.29,2.82,1.98.28,2.23-.56,2.44-2.84,2.6-3.28.23-6.14,1.55-2.27,5.71,3.71,3.98-5.82,1.91-3.15,5.93-.7,0-1.4,0-2.1,0-8.97-2.7-2.75-9.92-4.4-14.79Z"/><path class="cls-1" d="M532.73,317.66c-3.58-3.01-1.39-7.08-1.96-10.64,3.8,2.97,1.34,7.09,1.96,10.64Z"/><path class="cls-41" d="M600.01,39.9c-2,.86-3.67,2.55-6.08,2.34-2.5,1.04-3.85-.4-4.57-2.43-.7-1.98.92-2.98,2.29-3.96h0c2.38,2.19,6.35,1.07,8.35,4.04Z"/><path class="cls-46" d="M495.41,69.52c-.85,1.39-1.7,2.78-2.55,4.17-4.81,1.68-8.94,6.99-14.86,2.84-3.07-.95-4.22,2.31-6.53,3.01-7.77-.92-5.43,4.92-5.93,8.86-5.42,3.16-6.58,2.55-8.54-4.53-4.88-8.94-3.14-16.57,4.55-23.02,3.64-2.51,6.63-5.98,10.89-7.63,4.83-1.11,8.88-.42,10.99,4.75.12,1.02.28,2.17-.29,3-1.44,2.07-2.08,4.28-1.81,6.77.19-2.24-.45-4.95,3.04-5.32,3.98,1.91,9.7,1.11,11.06,7.1Z"/><path class="cls-41" d="M478.06,73.75c3.1-.64,6.8,6.03,9.61-1.11.84-2.12,3.37.8,5.2,1.05-2.85,5.55-5.26,11.56-12.67,12.49-.68-2.03-2.08-3.35-4.09-4.05-1.26-3.24,1.37-5.57,1.95-8.38Z"/><path class="cls-41" d="M465.54,88.41c-1.65-.24-4.03.01-3.71-2.48,1.04-8.03,1.15-8.02,10.19-7.95,2.25,1.53.54,4.28,1.87,6.09-1.28,4.34-4.73,4.5-8.35,4.34Z"/><path class="cls-48" d="M412.91,100.81c-.86,3.67,3.25,4.08,4.28,6.51-2.61,1.46-5.31,2.58-8.4,2.1,1.36-5.6-1.47-11.21,0-16.81-.83-2.22.22-2.57,2.09-2.11,0,.73.02,1.46.02,2.18,2.38,2.29,1.11,5.47,2,8.13Z"/><path class="cls-41" d="M202.86,393.09c2.64,1.6,1.92,4.25,1.94,6.59.09,10.45.08,20.9.11,31.35-4.91-5.83-2.86-12.44-2.12-18.9-.45-4.42,1.1-9.01-1.4-13.27-1.29-2.19.99-3.82,1.47-5.76Z"/><path class="cls-41" d="M801.87,130.48c-1.51,6.87-6.73,11.39-10.59,16.77-.51-.43-1.41-.83-1.44-1.29-.07-1.07-3.4-6.95-4.51-7.31-3.26-1.07-2.08-3.88-2.41-6.09,1.72-1.9,2.82-4.2,4.21-6.32h0c5,1.1,11.28-2.25,14.74,4.24Z"/><path class="cls-19" d="M808.16,167c-.04,2.07.13,4.19-1.59,5.81-1.03.97-2.07,1.91-3.55.94-1.07-.71-.86-1.76-.42-2.72.72-1.57,1.42-3.16,2.3-4.64.67-1.13,1.63-2.09,2.45-3.12,1.1,1.07.74,2.44.8,3.73Z"/><path class="cls-13" d="M776.47,149.22c-.14-2.43,1.57-4.14,2.38-6.2,3.16,1.96,5.66,4.24,4.07,8.48-2.11-.89-3.95-2.51-6.45-2.27Z"/><path class="cls-36" d="M787.13,126.24c-.02,3.03.6,6.49-4.21,6.32-.67,0-1.35,0-2.02.02,1.27-2.91,3.44-4.93,6.24-6.34Z"/><path class="cls-28" d="M112.41,201.9c5.45-17.3,12.85-23.09,29.44-23.05.92,2.52,2.98,3.15,5.39,3.71,2.36.55,5.65.59,5.12,4.58-8.12,1-15.11,4.03-20.2,10.79-4.16,5.52-5.62,11.69-4.86,18.42.25,2.18,2.23,2.27,3.99,2.3-.3,1.47.29,4.25-2.52,2.82-2.56-1.3-7.26,1.11-7.68-3.55-.61-6.72-4.64-11.3-8.67-16.01Z"/><path class="cls-15" d="M152.35,187.13c-1.56-3.01-4.85-2.7-7.24-2.92-4.83-.45-4.87-.01-3.26-5.36,7.92-.87,14.89,1.4,21.04,6.37,2.79,2.08,4.05,6.23,8.39,6.19-4.35,6.52,2.39,9.87,4.18,14.63-6.74,1.29-11.86-2.52-17.06-5.7-2.32-1.42-3.94-3.72-3.92-6.85.01-2.29.67-4.95-2.12-6.36Z"/><path class="cls-10" d="M144.02,214.49c-3.96-.68-6.42,1.18-7.75,4.74-2.52,6.73-3.15-2.03-5-.59,3.06-7.21,4.67-7.74,12.75-4.15Z"/><path class="cls-2" d="M219.53,115.83c-3.12-5.36-2.55-6.49,4.29-8.5.65,3.88-3.36,5.42-4.29,8.5Z"/><path class="cls-1" d="M589.55,210.19c-13.51,3.88-26.52-1.26-31.56-12.46,3.64.91,3.89-3.41,6.45-4.17,4.52,6.65,13.08,4.19,18.73,8.3,1.15.28,1.9.97,2.2,2.13.15,2.91,5.44,2.35,4.18,6.2Z"/><path class="cls-4" d="M455.77,355.93c-.24-.61-.62-1.21-.67-1.83-.18-2.68.19-5.39-1.5-7.86-.78-1.15-.54-2.93,1.46-2.32,2.06.62,2.1-2.88,3.86-1.6.53.39.25,1.92.29,2.93.12,3.12-2.62,5.55-2.13,8.79.13.88-.07,1.82-1.31,1.9Z"/><path class="cls-1" d="M288.99,19.05c-2.23,3.62,1.55,1.26,2.1,2.12.68.47.91.93.68,1.39-.23.46-.46.69-.69.69-6.9,1.25-11.31-1.24-12.61-8.41.62-1.37,2.58-2.35,2.92-1.38,1.33,3.79,6.03,2.5,7.59,5.58Z"/><path class="cls-42" d="M484.34,179.04c-2.37-1.22-4.02-2.63-7.32-.39-14.46,9.84-20.52,7.32-29.53-4.55-4.34-5.72-8.86-10.09-15.66-12.09,4.5-.68,10.17,2.08,12.72-4.32.76-.64,1.62-.83,2.58-.58,2.59,1.17,4.93,2.76,7.25,4.38.8.64,1.55,1.33,2.21,2.11q7.8,9.23,17.2,1.51c1.32-1.09,2.87-1.81,4.52-2.28,5.09-.45,8.45,2.17,11.01,6.2.4,4.36,1.32,8.99-4.99,10.01Z"/><path class="cls-43" d="M402.61,159.97c-.06.64-.09,1.29-.1,1.94-1.29,3.06-4,1.92-6.26,2.12.68-1.38,1.36-2.77,2.04-4.15,1.47-1.3,2.91-1.1,4.32.09Z"/><path class="cls-45" d="M301.69,23.14c9.34,4.33,10.8,9.27,6.24,21.22-3.2-1.74-4.39-4.71-4.9-8.08,2.95-4.09-.03-7.41-1.43-10.94.03-.74.06-1.47.09-2.21Z"/><path class="cls-28" d="M301.6,25.35c4.26,1.62,5.76,4.95,5.29,9.19-.19,1.67-1.99,1.18-3.19,1.32-.7,1-1.4,1-2.1,0-.07-3.51-4.8-7.01,0-10.52Z"/><path class="cls-1" d="M301.6,35.86c.7,0,1.4,0,2.1,0,.99,3.05,4.88,4.65,4.24,8.51-.19,1.19-.95,1.79-2.07,2.03-5.35-1.92-4.14-6.49-4.27-10.53Z"/><path class="cls-28" d="M291.08,23.25c0-.69,0-1.39,0-2.08,3.53.66,7.64-1.74,10.57,2.04-3.52.02-7.05.03-10.57.05Z"/><path class="cls-39" d="M188.18,117.78c1.35.04,2.7.08,4.05.12,1.92,2.24,2.25,5.11,3.12,7.77.82,3.07.57,6.53,3.29,8.89,2.09,0,4.17,0,6.26,0,1.08,2.3-.2,3.44-2.09,4.29-3.49.74-7.6-1.78-10.5,2.01-3.27,2.17-7.44,3.59-10.58,2.03-5.26-2.61-9.81.36-14.65.17-1.83-1.28-3.13-2.77-1.93-5.17,2.53-5.08,5.24-9.74-3.24-12.53-2.94-.97-1.22-4.11,1.57-5.08,2.94-1.02,6.05-1.37,9.12-1.87,5.2,0,10.29-3.02,15.59-.65Z"/><path class="cls-44" d="M202.8,138.86c.7-1.43,1.4-2.86,2.09-4.29.27-1.12.96-1.82,2.1-2.03.73,2.1,2.52,3.84,2.11,6.32.18,4.83-3.3,4.16-6.31,4.21,0-1.4,0-2.8,0-4.2Z"/><path class="cls-36" d="M801.87,130.48c-.72-.61-1.9-1.88-2.1-1.74-5.13,3.58-8.81.22-12.64-2.5,2.61-3.95,3.13-8.94,6.3-12.61,4.63,2.16,9.3,4.25,12.61,8.4,0,.67,0,1.35-.02,2.02-1.37,2.15-1.65,5.02-4.16,6.43Z"/><path class="cls-4" d="M824.89,80.03c-2.38.93-2.62,5.08-6.23,4.17,1.26-2.8-4.16-3.75-2.06-6.29,2.02-2.43,4.36-5.25,8.36-4.22,1.8,2.13,1.81,4.25-.07,6.34Z"/><path class="cls-26" d="M778.66,416.05c.85-1.93,2.56-1.92,4.27-1.89-1.33,2.11-1.39,4.23,0,6.35-3.16.18-4.36-1.52-4.27-4.45Z"/><path class="cls-41" d="M833.45,428.76c3.05,1.14.75,5.63,4.12,6.58-1.47,2.51-2.88,2.35-4.22-.11.03-2.15.07-4.31.1-6.46Z"/><path class="cls-41" d="M829.16,420.54c3.02,1.01,4.3,3.17,4.11,6.28-4.76.12-4.05-3.33-4.11-6.28Z"/><path class="cls-7" d="M434.14,277.55c1.13.24,1.79.97,2.09,2.06-.6.29-1.17.66-1.8.87-1.49.48-2.85,4.24-4.33,1.11-1.28-2.71,1.24-4.08,4.04-4.03Z"/><path class="cls-33" d="M223.83,27.63c2.27-.42,5.13.81,6.41-2.32.66.03,1.32.05,1.98.05,0,.7.01,1.4.02,2.1.09,3.53-1.78,3.35-4.16,2.2-1.69-.1-3.45-.05-4.25-2.02Z"/><path class="cls-28" d="M114.46,223.11c-5.74-6.58-5.18-13.77-2.05-21.21-.39,6.06,3.61,11.02,4.21,16.83-.08,1.78-.58,3.35-2.17,4.38Z"/><path class="cls-11" d="M150.35,225.09c-3.02-.08-5.53-1.24-7.34-3.68-.11-.15.67-1.41,1.08-1.44,3.63-.24,4.76,2.69,6.24,5.15v-.03Z"/><path class="cls-10" d="M131.49,227.2c-3.6,3.06-7.2,3.01-10.8,0,3.6,0,7.2,0,10.8,0Z"/><path class="cls-10" d="M114.46,223.11c.1-1.77-.06-3.67,2.17-4.38,4.25,2.21.07,4.3-.09,6.45-1.04-.34-1.85-.92-2.08-2.07Z"/><path class="cls-10" d="M133.47,235.55c-.08-2.79-.15-5.57-.23-8.36,3.43,2.05,4.26,4.81,2.31,8.35-.69,0-1.38,0-2.08,0Z"/><path class="cls-31" d="M186.19,38.06c-3.13.3-5.94-.65-8.6-2.2-.54-.47-.71-.93-.53-1.4.18-.46.36-.7.54-.7,3.82.9,6.84-2.2,10.5-2.1,1.81,2.08,1.67,4.15-.01,6.22-.63.09-1.25.15-1.88.18Z"/><path class="cls-10" d="M188.07,37.88c0-2.07,0-4.15.01-6.22v-2.13c2.15,1.39,5.95,1.55,5.59,4.94-.27,2.5-2.89,3.62-5.6,3.42Z"/><path class="cls-26" d="M358.32,8.39c-7.12.62-13.78-3.43-20.98-2.01,7.33-2.86,14.56-4.69,20.98,2.01Z"/><path class="cls-42" d="M383.34,12.64c1.05-1.17,2.1-2.34,3.14-3.52-1.68-.18-3.36-.36-5.03-.55.41-.52.74-1.39,1.24-1.49,2.83-.58,6.7-2.2,6.86,2.62.14,4.17-3.75,2.67-6.21,2.93Z"/><path class="cls-26" d="M371.07,8.59c-3.55,4.21-7.09,1.34-10.63-.02,3.55-5.48,7.08,1.19,10.63.02Z"/><path class="cls-34" d="M85.28,107.23c.83.61,1.8,1.11,2.47,1.86,1.33,1.49,3.86,2.73,2.87,5.07-.97,2.32-3.65,1.23-5.6,1.54-.67.1-1.43.03-1.99.32-2.95,1.54-4.43,6.69-8.94,4.25-4.26-2.31-3.91-6.72-3.68-10.84,4.17-.83,8.97,2.06,12.58-2.12.72-1.02,1.49-1.01,2.28-.09Z"/><path class="cls-48" d="M85.28,107.23l-2.28.09c1.28-3.2-3.85-3.64-2.9-7,.44-1.53,1.49-8.07,2.82-10.99.4-.87.09-2.06.11-3.1,4.61,6.59.69,14.09,2.25,21Z"/><path class="cls-48" d="M72.47,102.63c-1.65-.1-1.96-1.49-1.91-2.82.07-2,1.29-2.92,3.32-2.83,1.69.08,2.64,1.18,2.3,2.56-.4,1.6-1.6,2.93-3.71,3.09Z"/><path class="cls-12" d="M495.13,54.84c-.09-1.4-.18-2.81-.27-4.21,1.16-.29,1.93-.99,2.21-2.17,2.26,1.22,3.38,3.31,2.69,5.58-.2.67-3.02.55-4.64.8Z"/><path class="cls-14" d="M755.48,143.24c-4.26-3.98-1.37-5.95,2.25-7.39,3.52-1.4,7.51-3.32,8.26,3.06-2.09.65-3.74,2.58-6.47.98-3.51-2.05-3.69,1-4.04,3.35Z"/><path class="cls-25" d="M770.48,142.98c2.76,1.2,4,3.4,4.18,6.31-1.24.31-2,1.1-2.33,2.33-1.78-.83-2.07-2.41-2.09-4.13.4-1.49-3-3.17.24-4.51Z"/><path class="cls-11" d="M663.12,246.05c-2.82,3.08-3.7,6.54-2.1,10.51-.17,3.07,1.03,8.08-4.64,3.08-.87-.77-2.49-.67-3.77-.98.11-2.95,5.02-4.7,2.1-8.41-.58-3.13,1-5.71,2.15-8.4,3.62-.89,3.8,3.35,6.25,4.2Z"/><path class="cls-12" d="M665.04,220.74c1.71-3.66,5.49-4.46,8.59-6.22.11,2.75,3.2,7.55-3.86,5.29-1.34-.43-3.14.59-4.72.93Z"/><path class="cls-40" d="M656.87,239.76c.69-4.22-1.86-8.96,2.01-12.68.71,4.45,2.24,9.02-2.01,12.68Z"/><path class="cls-40" d="M656.86,241.85c.4,3.09-.68,5.79-2.15,8.4-.75-.03-1.5-.06-2.26-.09,1.18-3.58,1.51-7.51,4.39-10.36-.01.68,0,1.37.02,2.05Z"/><path class="cls-30" d="M68.37,134.69c-4.67,9.08-5.8,18.17-.04,27.26-4.66-.1-5.81-7.96-11.95-5.47-.44.18.1-3.36,1.22-4.19,5.21-3.85,4.07-8.55,2.28-13.45,3.05-.93,4.6-4.94,8.5-4.16Z"/><path class="cls-34" d="M57.79,174.57c2.47-6.09,8.18-2.53,12.19-4.03.25-.09.83.7,1.26,1.07-.54.39-1.07.78-1.61,1.17-3.63,2.65-7.83,1.6-11.84,1.79h0Z"/><path class="cls-29" d="M829.23,71.58c.02-1.36.04-2.73.06-4.09.65-.1,1.3-.14,1.96-.12,2.8,3.28,5.63-2.94,8.43.02h0c-3.29,3.47-.07,6.97-.04,10.45-3.47-2.09-6.94-4.18-10.41-6.26Z"/><path class="cls-3" d="M175.47,41.99c-3.1-.17-5.9.7-8.42,2.5-.69-.11-1.38-.19-2.08-.23q5.6-7.5,10.5-2.27Z"/><path class="cls-10" d="M177.59,33.77c0,.7,0,1.4,0,2.09-.35,0-.7.01-1.05,0-1.68-.08-3.59.33-4.58-1.54-.22-.41.1-1.51.51-1.78,2.07-1.37,3.87-1.09,5.12,1.23Z"/><path class="cls-41" d="M200.75,378.34c3.79,3.74,1.43,8.5,2.09,12.75-4.33-3.66-1.21-8.53-2.09-12.75Z"/><path class="cls-34" d="M511.9,388.99c.7-1.41,1.4-2.81,2.1-4.22,10.7-1.52,12.69-.38,14.5,8.29-2.75-.73-4.58-5.33-8.31-1.98-3.05.44-5.74-.57-8.3-2.09Z"/><path class="cls-25" d="M246.84,286.23c-3.65-1.13-7.5-1.74-10.53-4.36,4.03-.85,1.31-7.55,3.5-6.58,3.93,1.74,8.61,4.83,7.04,10.94Z"/><path class="cls-16" d="M471.9,403.65c2.86,4.5,3.66,9.58,4.07,14.75-2.05-.77-3.78-2.51-6.23-2.1-5.04-5.2-1.49-8.93,2.16-12.65Z"/><path class="cls-16" d="M471.88,397.39c0,2.09.01,4.17.02,6.26-3.61.38-5.27-2.3-5.08-4.85.18-2.43,3.27-1.05,5.05-1.41Z"/><path class="cls-12" d="M488.59,48.68c-3.47-.1-6.94-.2-10.42-.29,3.52-1.55,7.15-6.93,10.42.29Z"/><path class="cls-7" d="M736.64,216.73c-3.16-6.43-2.86-7.97,2.13-10.66.32,2.13,4.94,5.47-1.63,5.85-.26.02-.33,3.13-.49,4.8Z"/><path class="cls-31" d="M228.08,29.65c1.72-.09,3.47-.15,4.16-2.2,1.01.13,2.37-.1,2.97.46,2.44,2.32,6.05.65,8.49,2.72-3.4,1.34-6.65,3.34-10.48,3.09-2.54-.17-5.58,1.17-7.28-2.06,1.14-.21,1.84-.9,2.14-2.01Z"/><path class="cls-48" d="M745.09,260.76c-3.74-1.09-3.76-3.42-2.1-6.31,1.98,1.68,6.72,2.43,2.1,6.31Z"/><path class="cls-8" d="M530.69,233.46c-2.97-1.06-3.85-3.45-4.46-6.32-1.2-5.63-2.74-11.18-4.14-16.77,3.65-1.36,5.1,1.42,6.39,3.75,3.54,6.41,8.46,7.69,14.83,4.59,2.88,1.11,4.26,3.24,4.23,6.31-2.69,1.68-5.15,3.84-8.46,4.29-.77.99-1.02,2.35-2.2,3.06-1.93,1.13-4.08,1.01-6.2,1.1Z"/><path class="cls-12" d="M171.16,46.3c3.58-2.99,7.18-3.22,10.78-.03l-10.78.03Z"/><path class="cls-3" d="M167.04,46.1c.71.1,1.43.2,2.14.3-.72,4.71-2.7,5.79-6.3,2.19,1.39-.83,2.77-1.66,4.16-2.49Z"/><path class="cls-4" d="M761.86,199.78c.14-4.28,3.02-6.54,6.29-8.51.04,4.4,2.91,6.69,6.37,8.54-1.4,1.4-2.8,2.8-4.2,4.2-.2.28-.4.57-.59.85-1.59-3.3-3.08-6.75-7.87-5.09Z"/><path class="cls-4" d="M766.06,378.47c0,7.01.01,14.02.02,21.03-.69,0-1.38-.01-2.06-.02h0c-3.02-3.53-3.07-7.55-1.95-11.77.52-1.07,1.16-2.06,1.91-2.99.29-2.22-.87-4.93,2.08-6.26Z"/><path class="cls-26" d="M765.99,414.23c-.15,4.83,3.42,4.14,6.4,4.31-2.31,3.22-5.34,2.66-7.65.6-1.43-1.28-1.04-3.72,1.24-4.91Z"/><path class="cls-39" d="M238.54,437.33c3.41-3.6.16-9.26,3.93-12.75,5.85,1.13,8.46,4.88,8.64,10.62-3.9,1.72-.8,6.86-5.11,9.23-4.11,2.26-5.71,2.04-6.97-2.03-.49-1.59-.35-3.37-.5-5.07Z"/><path class="cls-46" d="M536.95,231.35c1.86,3.32,4.04,6.22,8.35,6.3-.02,1.38-.04,2.76-.05,4.14-2.69-2.06-5.38-2.06-8.08,0,.38-4.75-4.56-5.38-6.48-8.34,1.31-3.03,4.02-1.87,6.26-2.11Z"/><path class="cls-20" d="M454.97,298.61c-.1,1.4,3.06,2.73.09,4.2-2.48-.43-4.23,1.36-6.33,2.09q-2.34-6.21,6.24-6.29Z"/><path class="cls-37" d="M868.52,310.02c.6,1.37,1.64,2.81,1.77,4.34.11,1.29-1.29,2.57-2.68,2.14-1.66-.52-2.73-2.07-2.29-3.92.3-1.24,1.27-2.26,3.19-2.55Z"/><path class="cls-41" d="M110.36,231.24c4.88.08,9.75.17,14.63.25-4.93,3.01-9.82,3.46-14.63-.25Z"/><path class="cls-29" d="M265.69,46.48c-1.93-.83-3.33-2.19-4.15-4.13,1.03-7.48,5.11-3.55,8.48-2.27-.69,1.39-1.38,2.79-2.06,4.18-.29,1.21-1.1,1.9-2.27,2.22Z"/><path class="cls-34" d="M591.65,35.86c-1.94,3.09-1.43,5.31,2.28,6.38-.03.61-.04,1.22-.03,1.84.93,3.99-4.77,3.33-4.68,6.73-.44.79-1.03,1.43-1.78,1.92-2.59-1.77-6.19-2.65-5.04-7.29.39-1.57-1.59-2.7-3.26-3.22-4.89-.65-4.56-.48-3.32-2.85,2.75-5.28,6.25-7.05,11.73-3.78,1.05.63,2.72.21,4.11.27Z"/><path class="cls-30" d="M680.01,37.99c-7.6,1.85-14.95,6.54-23.11,2.03,4.42.44,2.97-1.98,2.02-4.16,6.62-2.23,12.9-1.39,18.9,2.07.75-.69,1.48-.7,2.19.06Z"/><path class="cls-1" d="M817.55,132.44c-2.1-.24-3.03-1.34-2.93-3.37.08-1.68,1.18-2.61,2.57-2.27,1.61.4,3.02,1.59,3.07,3.53.05,1.86-1.5,1.9-2.71,2.11Z"/><path class="cls-46" d="M402.61,159.97c-1.44-.03-2.88-.06-4.32-.09-1.75-2.91-1.47-5.2,2.14-6.17,2.17-.58,5.02.76,6.25-2.33,7.1-9.11,14.52-17.76,27.16-18.94,3.56-1.79,7.37-.55,11.04-.9,1.06.09,1.87.58,2.39,1.52-.52,4.43-2.32,8.3-5.27,11.65-1.26,2.05.15,4.82-1.78,6.7-2.15-.61-3.14-2.69-4.79-3.83-3-2.06,1.65-8.66-2.25-7.19-4.5,1.69-10.09,1.53-13.85,5.75-4.83,5.42-9.8,10.85-16.71,13.84Z"/><path class="cls-26" d="M227.79,479.29c.07-3.48.14-6.96.22-10.45,3.17,3.55,3.55,7.04-.22,10.45Z"/><path class="cls-35" d="M89.31,225.02c0-1.74.01-3.48,2.09-4.19,1.4,3.02,2.8-.23,4.2,0,2.12-.37,4.23-1.63,6.37-.07h-.01c-3.84,8.42-6.85,9.43-12.65,4.26Z"/><path class="cls-39" d="M215.44,124.18c5.11-1.34,8.78,1.64,12.59,4.19,1.36,2.84,5.72,2.66,6.31,6.27-1.38.66-2.76,1.33-4.15,1.99-5.71-2.5-10.43-6.42-14.94-10.62.04-.61.1-1.23.18-1.84Z"/><path class="cls-12" d="M101.98,220.76c-2.12.2-4.21,4.26-6.37.07-2.11-4.88,4.45-6.28,4.17-10.42,3.85,2.79,1.35,6.93,2.2,10.35Z"/><path class="cls-12" d="M93.5,201.93c2.93,1.02,4.19,3.22,4.37,6.19l-3.53,3.26c-1.01-1.69-2.55-3.17-1.74-5.49.44-1.27.61-2.63.9-3.96Z"/><path class="cls-36" d="M646.27,231.58c3.85,2.76,1.48,6.84,2.18,10.28-3.94-2.74-1.39-6.86-2.18-10.28Z"/><path class="cls-12" d="M680.01,37.99l-2.19-.06c.31-5.44,4.72-5.39,8.42-6.28,2.57,1.39,2.93,4.21,4.15,6.46-3.46-.04-6.93-.08-10.39-.12Z"/><path class="cls-46" d="M520,359.47c1.87.32,4.92.15,2.6,3.26-3.5,4.68-.66,7.99,1.8,11.53-.72,1.56,1.36,5.05-1.45,4.53-1.82-.34-5.61,1.96-6.54-3.11-.83-4.54,3.22-7.88,1.57-12.13.07-1.66.1-3.34,2.02-4.09Z"/><path class="cls-14" d="M763.97,384.73l-.03,2.21c-2.48,1.97-4.06,5.76-8.33,4.16,0-2.82,0-5.64,0-8.46,2.59,1.48,5.26,2.63,8.35,2.08Z"/><path class="cls-41" d="M291.09,313.31c-3.22-.43-7.06,1.35-9.3-2.57-.11-.19-.02-.74.1-.79,3.68-1.34,7.28-4.02,11.3-.85l-2.1,4.2Z"/><path class="cls-25" d="M755.62,391.11c3-.93,4.48-4.91,8.33-4.16.02,4.18.04,8.37.06,12.55-2.1,0-4.19,0-6.29-.01-2.65-1.46,2.01-5.35-2.09-6.33,0-.68,0-1.36,0-2.04Z"/><path class="cls-14" d="M755.63,393.15c10.32-1.07-.44,4.83,2.09,6.33-.69,0-1.38,0-2.07-.04,0-2.1-.02-4.19-.03-6.29Z"/><path class="cls-12" d="M839.68,67.39c-.68.08-1.74-.1-2,.27-2.36,3.38-4.41,2.33-6.44-.29,2.13-3.39,5.6-1.46,8.42-2.11,0,.71,0,1.42.01,2.13Z"/><path class="cls-34" d="M589.55,210.19c-.67-1.39-1.88-1.74-3.31-2.02-1.36-.27-3.87,1.27-3.82-1.63.02-1.3,1.57-2.14,2.95-2.56,4.19.09,6.35,2.16,6.26,6.42-.7-.04-1.39-.11-2.08-.22Z"/><path class="cls-25" d="M480.13,142.77c.73-1.68,1.99-2.84,3.6-3.62,4.18-2.05,9.18-2.29,7.67-10.07-.94-4.84,6.1-7.82,9.47-11.71,1.16-1.34,2.7-.74,3.39.61,3.33,6.54,6.68,3.97,10.34.3,2.29-2.29,4.9-4.36,7.7-.46.41,5.35,4.58,10.77-.33,16.01-5.77-1.17-11.61-1.46-17.51-1.25-3.29.12-2.96,2.08-2.49,4.27-2.77,5.38-6.82,9.86-10.27,14.77-.75.55-1.6.89-2.52,1.01-2.8.24-3.54-4.67-7.01-2.8-1.52-1.17-2.37-2.76-2.89-4.56-.11-.96.18-1.79.85-2.48Z"/><path class="cls-25" d="M484.34,179.04c3.55-1.83,1.65-6.33,4.23-8.64,4.05-1.69,6.96,1.69,10.47,2.4,3.64.74,7.25,2.06,10.5-.93,1.92-2.42,1.45-4.51-.89-6.35-3.79-4.98,1.75-6.81,3.36-9.98.6-.65,1.23-1.26,1.88-1.86q8.41-1.48,12.7,8.27c2.95,7.54-5.35,10.71-6.46,16.68-11.87,6.07-23.79,7.25-35.8.4Z"/><path class="cls-12" d="M568.44,149.37c4.82,2.63,9.6,6.8,7.05,12.01-2.89,5.92-9.39,1.81-14,.96-4.59-.85-8.5-4.3-7.6-9.72,1.38-8.36-2.85-13.58-8.24-19.05-6.08-6.17-5.55-7.45,1.81-13.79,2.14.86,3.63,2.45,4.88,4.31.71,2.52.47,5.27,1.83,7.64,2.18,3.22,3.35,7.57,8.48,7.41,2.41.11,4.49.91,6.03,2.84,2.24,2.54-2.03,4.87-.24,7.4Z"/><path class="cls-47" d="M446.62,134.65c0-.7,0-1.39,0-2.09.13-1.26,1.4-1.43,2.08-2.16,4.32-3.48,9.32-4.52,14.73-4.16,1.64,1.27,3.47,2.64,1.49,4.85-1.98,2.21-1.71,4.17.02,6.24,1.35,1.88,2.83,3.66,4.01,5.65,3.52,5.64-.71,8.69-4.02,12.06-1.09,1.01-2.34,1.67-3.85,1.75-4.22-.84-6.41-3.92-8.21-7.44.26-4.83-3.44-3.89-6.23-4.29-1.42-3.47.27-6.94-.03-10.42Z"/><path class="cls-12" d="M463.45,138.84c-2.36-3.26-7.72-6.81.86-9.12.02,0-.57-2.27-.87-3.48,7.19.49,7.6,8.07,11.96,11.6,1.67,1.35,2,4.33,4.73,4.92.04.79.08,1.59.12,2.38.64,5.15.74,10.39,2.69,15.31-.54,2.58-2.57,2.52-4.54,2.56-7.1.33-7.82-9.55-14.87-9.3,1.11-3.66,7.5-5.27,4.13-10.66,1.31-4.11-2.77-2.85-4.2-4.22Z"/><path class="cls-7" d="M520.17,208.28c-2.58-3.11-5.47-6.02-7.63-9.39-1.92-2.99-4.33-6.09-1.17-10.19,3.07-3.99,6.21-2.91,9.85-1.58,1.33.49,2.53.85,3.23,2.15-.6.49-.68,1.13-.05,1.33.85.26,1.41-.54,2.04-1.01,4.9,4.62,10.77,8.61,10.68,16.46-5.3,3.42-11.8-2.38-16.94,2.23Z"/><path class="cls-7" d="M513.9,153.69c0,.66-.01,1.32-.01,1.97-5.07,3.42-11.5,3.78-16.5,7.37-4.69,1.01-7.92-1.47-10.92-4.54-1.57-4.17,2.67-4.8,4.29-7.03,1.13-6.59,5.91-10.57,10.5-14.68,1.19-1.2,2.65-1.41,4.24-1.11,3.14,2.05,8.08,2.07,8.38,7.37-2.06.05-4.62-.65-6.08.31-2.58,1.69-7.05-.94-7.21,1.06-.28,3.68,2.62,7.09,6.21,8.66,2.06.9,4.71.46,7.09.62Z"/><path class="cls-42" d="M520.17,208.28c.02-1.39,0-2.78.06-4.17.21-4.15,2.21-5.37,4.95-2.06,2.72,3.29,4.67,6.64,8.16.99,1.26,1,2.51,2.01,3.77,3.01l-.03-.02c2.01,1.72-2.1,7.27,4.01,6.43.57,2.14-.64,4.92,2.22,6.24-5.51,7.22-12.37,6.48-16.49-2.21-1.21-2.56-1.57-5.27-4.74-6.13-1.12-.25-1.74-.97-1.92-2.09Z"/><path class="cls-11" d="M551.72,124.14c-3.09.18-4.36-1.43-4.27-4.36,1.09-2.91,3.75-3.86,6.26-5.01,4.34-1.99,7.58-1.41,10.65,2.83,3.44,4.74-.38,6.65-2.53,9.42-.96,1.24-2.35,1.29-3.69,1.53-2.96-.27-4.74-2.28-6.42-4.41Z"/><path class="cls-2" d="M520.13,132.57c1.42-.37,3.93.27,2.91-2.57-1.44-4.02-.4-8.13-.75-12.18,1.9.69,3.18,3.06,2.78,3.99-2.54,5.95,3.25,6.12,5.57,8.65-2.04,4.85-1.08,8.51,4.14,10.49-.25,6.23-5.12,3.57-8.24,4.3-3.94-4.01-12.04-1.9-13.69-9.3,1.17-3.81,5.32-1.22,7.27-3.38Z"/><path class="cls-11" d="M513.84,134.82c.14,2.33.97,4.36,3.66,3.94,5.32-.84,7.51,2.28,9.05,6.49-3.99,1.19-7.36.6-12.67-2.22-1.95-3.31-7.81-1.5-8.48-6.49,1.83-5.39,4.52-6.54,8.44-1.73Z"/><path class="cls-10" d="M534.79,140.96c-2.81,1.59-6.25,3.26-7.46-1.06-.91-3.24-3.74-8.46,3.32-9.43,3.49,2.67,4.51,6.3,4.14,10.49Z"/><path class="cls-25" d="M551.72,124.14c3.27-.17,5.33,1.42,6.42,4.41-.81,3.81,3.32,5.11,4.13,8.1.69.89.7,1.78.01,2.68-6.34,2.1-6.07-6.04-10.55-6.82-2.14-2.79-2.06-5.58,0-8.37Z"/><path class="cls-7" d="M562.23,138.84c.02-.73.03-1.46.05-2.19,2.39.02,4.79.21,7.16.02,4.93-.41,5.72,2.47,5.4,6.39-2.09,1.38-4.19,1.6-6.28.01-2.09-.73-3.82-2.51-6.29-2.11-.74-.46-.99-.93-.75-1.4.24-.47.48-.71.73-.71Z"/><path class="cls-9" d="M520.14,178.64c.45-2.64-1.16-6.01,1.68-7.76,3.71-2.29,5.76-4.43,1.87-8.21l2.91-.71c5.25,8.43-2.28,11.9-6.46,16.68Z"/><path class="cls-8" d="M541.09,212.46c-.89.45-1.74,1.05-2.68,1.33-2.51.76-5.94,2-6.94-1.08-1.24-3.83,2.86-3,4.96-3.92.52-.23.45-1.81.65-2.77,2.43,1.46,2.83,4.19,4.01,6.43Z"/><path class="cls-41" d="M587.45,50.57c-1.78-6.06,3.31-5.31,6.45-6.49,2.09,1.76,6.08,2.95,2.01,6.59-2.83.64-5.66,1.76-8.46-.1Z"/><path class="cls-27" d="M526.43,189.59c-.23.96-.13,2.35-.74,2.81-1.81,1.37-3.69,3.13-6.22,2.49-.59-.15-1.25-1.64-1.19-2.46.34-4.21,3.75-2.75,6.16-3.15.69-.05,1.35.06,1.99.32Z"/><path class="cls-24" d="M587.45,50.57c2.83-1.17,5.67-2.27,8.46.1-2.09,3.7-4.46,6.24-8.47,2.07,0-.72.01-1.44.02-2.16Z"/><path class="cls-12" d="M448.71,130.4c-.24,1.16-.94,1.87-2.08,2.16-4.27-.04-8.53-.08-12.8-.12,4.52-3.88,9.96-1.08,14.88-2.04Z"/><path class="cls-2" d="M568.54,143.06c2.09,0,4.19,0,6.28-.01-1.34,2.91-5.76,2.7-6.39,6.32-4.01-2.17-.12-4.21.1-6.31Z"/><path class="cls-26" d="M228.04,73.69c1.1.21,1.81.83,2.05,1.94l-2.16,2.25c-8,2.39-3.57,10.04-6.2,14.69.06,7.42-5.36,10.98-10.43,14.78-4.5.69-5.92-1.95-4.52-5.41,1.25-3.1-.28-6.29,1.24-9.16,5.3-4.1,5.3-9.51,3.78-15.3-.03-2.15.72-3.89,2.63-5.03,2.26-1.11,4.68-1.62,7.16-1.91,2.59.14,4.41,1.88,6.46,3.15Z"/><path class="cls-20" d="M209.09,92.64c-1.64,3.36,4.75,7.94-1.64,10.88-.5.23,1.9,3.08,3.84,3.84-.14,1.37-.14,3.34-1.59,3.48-4.44.45-13.18-5.39-12.99-9.36.32-6.88-4.3-9.57-8.72-12.76-1.41-1.78-4.21-3.49-.31-5.57.95-.2,1.91-.2,2.87-.02,4.35,1.76,8.82,3.25,12.93,5.57,1.95,1.2,4.26,1.88,5.62,3.93Z"/><path class="cls-41" d="M190.12,84.22c-.67,0-1.35-.01-2.02-.02-3.27-2-4.75-8.47-10.52-4.19-3.58-8.49-3.42-8.95,6.25-16.95.22,6.64,5.91,7.98,10.28,10.61,1.43,4.56-1.16,7.6-3.98,10.56Z"/><path class="cls-12" d="M173.39,119.94c-2.24.89-4.22,2.37-6.89,2.17-1.5-.11-4.23-.91-4.33,1.08-.12,2.55,2.28,2.29,4.55,2.46,3.1.24,3.39,5.06,2.48,9.06-.63,2.8-4.93,4.78-2.13,8.35-6.79-4.36-7.31-5.3-3.28-10.35,2.46-3.08,2.9-3.75-1.45-5.01-3.53-1.03-5.73-4.2-1.77-7.84,2.33-1.94,5.12-2.84,7.97-3.64,1.01-.09,2,0,2.98.27,1.44.71,2.53,1.6,1.86,3.45Z"/><path class="cls-11" d="M173.39,119.94c-.27-1.15-.97-1.86-2.12-2.13-.92-3.18,4.15-5.02,1.91-8.5,7.6-4.69,7.52-4.66,11.04,2.62,1.01,2.1,2.63,3.9,3.97,5.84-4.84,1.33-9.58,3.39-14.79,2.17Z"/><path class="cls-20" d="M177.58,80.01c1.45-2.82,4.4-6.92,6.31-5.6,2.48,1.71,2.9,6.39,4.21,9.79-3.06,1.43.42,3.03-.12,4.53-4.97-1.12-7.88-4.69-10.4-8.72Z"/><path class="cls-12" d="M221.72,92.58c-.18-2.76-.07-5.45-.86-8.26-2-7.13-1.3-7.62,7.06-6.44-2.07,4.9-4.14,9.8-6.2,14.69Z"/><path class="cls-39" d="M173.18,109.31c.91.47,1.89.83,2.7,1.43,1.24.92,3.65,1.06,3.02,3.4-.41,1.51-2.02,1.57-3.39,1.55-1.78-.02-3.41.25-4.24,2.11-.7.01-1.39.02-2.09.01-1.58-.94-3.19-1.86-2.09-4.15,2.03-1.46,4.06-2.91,6.09-4.37Z"/><path class="cls-11" d="M167.09,113.68c.7,1.38,1.39,2.77,2.09,4.15-2.67,1.51-5.44,2.62-8.6,2.04.12-4.22,3.69-4.82,6.51-6.19Z"/><path class="cls-44" d="M198.64,134.56c-.53,1.03-1.32,1.63-2.03.35-1.48-2.67-2.74-5.47-2.21-8.68.71-1,1.4-.95,2.08.02,1.46,2.58,2.45,5.28,2.16,8.31Z"/><path class="cls-39" d="M221.73,67.41c-.02-.71-.03-1.41-.05-2.12,2.12,2.8,4.24,5.6,6.36,8.4-2.48.41-4.22-1.37-6.32-2.11-1.33-1.4-1.16-2.79,0-4.18Z"/><path class="cls-7" d="M467.8,75.38c-1.64-.12-2.86-.84-3.22-2.16-.56-2.12,1.19-2.99,2.74-3.25,1.52-.26,2.3,1.07,2.29,2.54-.01,1.34-.25,2.67-1.81,2.87Z"/><path class="cls-7" d="M482.37,58.97c2.01.77,2.11,2.47,2.06,4.24-.65.74-1.42,1.42-1.93,2.24-.51.82-.79,2.58-1.12,2.57-1.18-.03-.96-1.29-1.11-2.19-.44-2.65,1.22-4.63,2.11-6.86Z"/><path class="cls-21" d="M461.48,155.83c-2.14,3.21-6.87,2.73-8.82,6.21-2.96,0-4.95-1.43-6.05-4.15,1.22-3.48-.25-8.94,6.27-8.54,4.95-.61,4.54,5.9,8.6,6.48Z"/><path class="cls-12" d="M446.62,134.65c4.75,3.46.31,6.94.03,10.42l-1.03.03-1.03-.06c-1.23-1.05-3.22-.43-4.24-1.92.63-2.17,4.56-2.63,2.68-6.37-.84-1.67,2.01-1.9,3.59-2.1Z"/><path class="cls-46" d="M486.55,157.7c-.69,1.89-2.3,2.15-4,2.28-1.65-.2-3.88-.23-4.03-2.16-.33-4.29-.11-8.62,1.72-12.67,2.08.71,2.1,2.46,2.11,4.21,2.16.53,3.42,3.74,6.3,2.1h2.11c.9,3.63-3.27,3.85-4.21,6.24Z"/><path class="cls-17" d="M488.66,151.46c-3.87,4.62-4.62-.13-6.3-2.1,3.38-3.13,4.31,1.07,6.3,2.1Z"/><path class="cls-34" d="M509.47,170.23c-4.89-1.62-5.91-9.04-12.39-8.27,3.85-6.77,10.39-6.37,16.81-6.3.35,2.85-1.64,3.87-3.68,5.07-1.24.73-3,1.98-.37,3.4,1.46,2.13,1.72,4.18-.36,6.1Z"/><path class="cls-14" d="M562.23,138.84c0,.7.01,1.41.02,2.11-2.12.99-4.16,2.25-5.81-.88-1.38-2.62-3.13-5.05-4.71-7.57,2.64-.14,4.73.95,5.81,3.28.99,2.14,2.42,3.11,4.69,3.04Z"/><path class="cls-35" d="M463.45,138.84c3.04-2,5.66-.93,7.81,1.39.86.93,1.06,2.89-.02,3.59-.73.47-2.36-.46-3.59-.76-2.1-.71-3.51-2.11-4.2-4.22Z"/><path class="cls-12" d="M202.82,90.65c2.86-.23,6.33.64,6.37-4.15.03-3.44,1.28-6.47,4.04-8.73,5.36,2.62,2.07,6.04,1.16,9.51-.52,2.01-2.18,4.51-5.3,5.35-2.21-.27-4.87.87-6.27-1.99Z"/><path class="cls-12" d="M221.73,67.41c0,1.39,0,2.78,0,4.18-1.32,3.03-4.06,1.85-6.31,2.11,1.37-2.84,3.44-4.97,6.32-6.28Z"/><path class="cls-22" d="M770.26,262.67c.38.27.8.48,1.23.68-.43-.2-.85-.41-1.23-.68M762.79,262.61c2.38-1.43,5.57-1.52,7.07-4.15-.37-.37-.73-.73-1.1-1.1-.69.55-1.5.92-2.26.98.76-.07,1.57-.43,2.26-.98.37.37.74.73,1.1,1.1-1.5,2.63-4.68,2.72-7.07,4.15M756,248.74c.5.38.99.75,1.49,1.13.77-.86,1.72-1.09,2.73-1.13-1.01.04-1.96.28-2.73,1.13-.5-.38-.99-.76-1.49-1.13M766.03,249.55c-1.12-.6-2.33-.99-3.74-.8-.09.35-.17.9-.27,1.16.09-.26.18-.81.27-1.16,1.41-.19,2.62.21,3.74.8M741.16,286.01c-.61-.06-1.16.11-1.69.33.52-.23,1.07-.39,1.69-.33M742.24,285.99c0-.33,0-.66,0-.99,0,.33,0,.66,0,.99M670.08,244.46c.34-.07.59-.26.43-.82h0c.17.55-.09.74-.43.82M628.05,209.03c-1.49-1.63-1.24-4.78-4.16-4.01.7,0,1.39.02,2.09.03.96,1.49,1.29,4.53,3.73,4.82-.73-.12-1.25-.42-1.66-.84M610.19,172.02c-.12.1-.25.2-.37.3,1.86-1.14,3.02-2.83,3.95-4.73-.91,1.71-1.83,3.4-3.58,4.43M624.94,184.78c1.02-.59,1.93-1.47,3-1.93-1.08.46-1.98,1.34-3,1.93ZM669.61,243.4c-.26-.44-.02-1.29-.23-1.78.21.49-.04,1.34.23,1.78M676.54,241.07h0l.33.39s-.34-.39-.33-.39M676.29,235.45c-.02.37,0,.72.04,1.06-.04-.34-.06-.69-.04-1.06M779.12,251.93c-17.91-5.45-22.59-23.53-31.46-36.83-9.58,7.73,4.1,25.23,8.33,33.63-3.92,1.98-50.8-2.49-67.71-10.42-.07.51-.02,1.13-.15,1.61.12-.49.07-1.1.15-1.61-7.96-3.71-15.64-7.6-23.06-12.37-.4,1.15-1.13,2.06-1.89,2.96.77-.9,1.5-1.81,1.89-2.96-12.62-8.11-30.09-31.51-29.22-31.47-10.52-19.48-17.12-41.21-17.55-63.04-7.82-13.6-24.97,4.56-18.55,18.37,4.32-1.47,3.22,9.08,6.05,7.4-2.82,1.68-1.73-8.87-6.05-7.4,3.95,35.84,23.9,73.44,55.43,91.5-.3,0-.6,0-.9,0,18.91,13.35,43.63,19.85,67.65,21.6,12.31,2.51,26.5-1.05,37.89,2.02.54-.67,1.15-1.22,1.8-1.68-20.33,5.22-44.19,64.97-16.18,26.04,6.85-11.01,31.29-24.5,31.39-25.72,5.34-.2,7.65-9.76,2.14-11.63"/></g></svg>