<?xml version="1.0" encoding="UTF-8"?>
<svg id="Layer_2" data-name="Layer 2" xmlns="http://www.w3.org/2000/svg" viewBox="0 0 40 40">
  <defs>
    <style>
      .cls-1 {
        fill: #012d2e;
        stroke-width: 0px;
      }
    </style>
  </defs>
  <g id="Layer_1-2" data-name="Layer 1">
    <path class="cls-1" d="M40,35.98c-.21-2.51-1-4.29-2.46-5.36-1.34-.97-2.65-2.07-3.98-3.02-1.51-1.07-2.94-2.28-4.25-3.85-.25-.32-.55-.53-.83-.81-.38-.45-.73-.93-1.14-1.33-.75-.73-1.52-1.37-2.25-2.11-.08-.08-.15-.19-.21-.3.07-.37.07-.75-.04-1.15.37-.37.75-.74,1.11-1.11.11-.33.32-.41.52-.52-.17.18-.35.34-.52.52.38-.12.7-.4.93-.92h.01s.06-.04.08-.1c.2-.16.39-.33.58-.48,1.42-.96,2.65-2.4,3.84-3.92,1.84-1.32,2.77-3.76,3.31-6.68.08-.47.06-1.02.01-1.51-.08-1.03-.34-1.95-.7-2.81-.17-.41-.59-.62-.84-.43-.89.67-1.6,1.69-2.29,2.77-.68.73-1.35,1.45-2.03,2.17v.03c-.63.26-1.14.85-1.6,1.55-.59.26-1.04.81-1.36,1.6-1.74,1.43-3.45,2.95-4.87,5.09-.27-.16-.55-.27-.86-.32-1.07-1.21-2.14-2.43-3.36-3.22-2.01-2.26-4.24-3.9-6.57-5.17-.15-.08-.32-.05-.49-.08-1.6-1.76-3.43-2.83-5.22-4.02C3.54-.12,2.57-.07,1.6.15c-.42.1-.73.51-.93,1.11C.1,1.98-.07,2.88.03,4.01c.21,2.51,1,4.29,2.46,5.36,1.34.97,2.65,2.07,3.98,3.02,1.51,1.07,2.94,2.28,4.25,3.85.25.32.55.53.83.81.38.45.73.93,1.14,1.33.75.73,1.52,1.37,2.25,2.11.08.08.15.19.21.3-.07.37-.07.75.04,1.15-.37.37-.75.74-1.11,1.11-.11.33-.32.41-.52.52.17-.18.35-.34.52-.52-.38.12-.7.4-.93.92h-.01s-.06.04-.08.1c-.2.16-.39.33-.58.48-1.42.96-2.65,2.4-3.84,3.92-1.84,1.32-2.77,3.76-3.31,6.68-.08.47-.06,1.02-.01,1.51.08,1.03.34,1.95.7,2.81.17.41.59.62.84.43.89-.67,1.6-1.69,2.29-2.77.68-.73,1.35-1.45,2.03-2.17v-.03c.63-.26,1.14-.85,1.6-1.55.59-.26,1.04-.81,1.36-1.6,1.74-1.43,3.45-2.95,4.87-5.09.27.16.55.27.86.32,1.07,1.21,2.14,2.43,3.36,3.22,2.01,2.26,4.24,3.9,6.57,5.17.15.08.32.05.49.08,1.6,1.76,3.43,2.83,5.22,4.02.91.62,1.9.56,2.87.33.42-.1.73-.51.93-1.11.56-.71.73-1.62.65-2.74h.03Z"/>
  </g>
</svg>